SplineFontDB: 3.2
FontName: telugu54mu
FullName: telugu54mu
FamilyName: telugu54mu
Weight: Regular
Copyright: Copyright 2022 The Noto Project Authors (https://github.com/notofonts/telugu)
Version: 2.003
ItalicAngle: 0
UnderlinePosition: -125
UnderlineWidth: 50
Ascent: 800
Descent: 200
InvalidEm: 0
sfntRevision: 0x000200c5
LayerCount: 2
Layer: 0 1 "Back" 1
Layer: 1 1 "Fore" 0
XUID: [1021 467 -1121320856 9400805]
StyleMap: 0x0040
FSType: 0
OS2Version: 4
OS2_WeightWidthSlopeOnly: 0
OS2_UseTypoMetrics: 1
CreationTime: 1554112134
ModificationTime: 1684156718
PfmFamily: 81
TTFWeight: 400
TTFWidth: 5
LineGap: 0
VLineGap: 0
Panose: 0 0 0 0 0 0 0 0 0 0
OS2TypoAscent: 869
OS2TypoAOffset: 0
OS2TypoDescent: -483
OS2TypoDOffset: 0
OS2TypoLinegap: 0
OS2WinAscent: 869
OS2WinAOffset: 0
OS2WinDescent: 483
OS2WinDOffset: 0
HheadAscent: 869
HheadAOffset: 0
HheadDescent: -483
HheadDOffset: 0
OS2SubXSize: 650
OS2SubYSize: 600
OS2SubXOff: 0
OS2SubYOff: 75
OS2SupXSize: 650
OS2SupYSize: 600
OS2SupXOff: 0
OS2SupYOff: 350
OS2StrikeYSize: 50
OS2StrikeYPos: 300
OS2CapHeight: 620
OS2XHeight: 500
OS2Vendor: 'GOOG'
OS2CodePages: 00000093.00000000
OS2UnicodeRanges: 80208003.00002042.00000000.00000000
Lookup: 6 8 0 "Contextual Chaining Substitution lookup 0" { "Contextual Chaining Substitution lookup 0 subtable"  } []
Lookup: 1 8 0 "Single Substitution lookup 1" { "Single Substitution lookup 1 subtable"  } []
Lookup: 1 8 0 "Single Substitution lookup 2" { "Single Substitution lookup 2 subtable"  } []
Lookup: 1 8 0 "Single Substitution lookup 3" { "Single Substitution lookup 3 subtable"  } []
Lookup: 1 8 0 "Single Substitution lookup 4" { "Single Substitution lookup 4 subtable"  } []
Lookup: 1 8 0 "Single Substitution lookup 5" { "Single Substitution lookup 5 subtable"  } []
Lookup: 1 8 0 "Single Substitution lookup 6" { "Single Substitution lookup 6 subtable"  } []
Lookup: 1 8 0 "Single Substitution lookup 7" { "Single Substitution lookup 7 subtable"  } []

StartChar: exclam.telu
Encoding: 33 33 3
Width: 1033
Flags: W
LayerCount: 2
Fore
SplineSet
546.5 201 m 1,0,-1
 489.5 201 l 1,1,-1
 464.5 657 l 1,2,-1
 571.5 657 l 1,3,-1
 546.5 201 l 1,0,-1
454.5 57 m 0,4,5
 454.5 93 454.5 93 473 108.5 c 128,-1,6
 491.5 124 491.5 124 516.5 124 c 0,7,8
 542.5 124 542.5 124 560.5 108.5 c 128,-1,9
 578.5 93 578.5 93 578.5 57 c 0,10,11
 578.5 20 578.5 20 560.5 4 c 128,-1,12
 542.5 -12 542.5 -12 516.5 -12 c 0,13,14
 491.5 -12 491.5 -12 473 4 c 128,-1,15
 454.5 20 454.5 20 454.5 57 c 0,4,5
EndSplineSet
EndChar

StartChar: quotedbl.telu
Encoding: 34 34 4
Width: 1033
Flags: W
LayerCount: 2
Fore
SplineSet
398 515 m 1,0,-1
 373 773 l 1,1,-1
 484 773 l 1,2,-1
 459 515 l 1,3,-1
 398 515 l 1,0,-1
575 515 m 1,4,-1
 550 773 l 1,5,-1
 660 773 l 1,6,-1
 635 515 l 1,7,-1
 575 515 l 1,4,-1
EndSplineSet
EndChar

StartChar: numbersign.telu
Encoding: 35 35 5
Width: 1033
Flags: W
LayerCount: 2
Fore
SplineSet
307 0 m 1,0,-1
 345 182 l 1,1,-1
 219 182 l 1,2,-1
 219 248 l 1,3,-1
 358 248 l 1,4,-1
 391 408 l 1,5,-1
 256 408 l 1,6,-1
 256 474 l 1,7,-1
 405 474 l 1,8,-1
 442 651 l 1,9,-1
 514 651 l 1,10,-1
 476 474 l 1,11,-1
 620 474 l 1,12,-1
 658 651 l 1,13,-1
 727 651 l 1,14,-1
 689 474 l 1,15,-1
 814 474 l 1,16,-1
 814 408 l 1,17,-1
 675 408 l 1,18,-1
 641 248 l 1,19,-1
 780 248 l 1,20,-1
 780 182 l 1,21,-1
 627 182 l 1,22,-1
 589 0 l 1,23,-1
 518 0 l 1,24,-1
 557 182 l 1,25,-1
 415 182 l 1,26,-1
 377 0 l 1,27,-1
 307 0 l 1,0,-1
428 248 m 1,28,-1
 571 248 l 1,29,-1
 606 408 l 1,30,-1
 463 408 l 1,31,-1
 428 248 l 1,28,-1
EndSplineSet
EndChar

StartChar: percent.telu
Encoding: 37 37 6
Width: 1033
Flags: W
LayerCount: 2
Fore
SplineSet
280 0 m 1,0,-1
 676 651 l 1,1,-1
 753 651 l 1,2,-1
 357 0 l 1,3,-1
 280 0 l 1,0,-1
296 276 m 0,4,5
 225 276 225 276 187.5 327 c 128,-1,6
 150 378 150 378 150 469 c 0,7,8
 150 561 150 561 185 611 c 128,-1,9
 220 661 220 661 296 661 c 0,10,11
 370 661 370 661 408 611 c 128,-1,12
 446 561 446 561 446 469 c 0,13,14
 446 378 446 378 409.5 327 c 128,-1,15
 373 276 373 276 296 276 c 0,4,5
296 339 m 0,16,17
 335 339 335 339 354 371.5 c 128,-1,18
 373 404 373 404 373 469 c 256,19,20
 373 534 373 534 354 566.5 c 128,-1,21
 335 599 335 599 296 599 c 0,22,23
 258 599 258 599 240.5 566.5 c 128,-1,24
 223 534 223 534 223 469 c 0,25,26
 223 405 223 405 240.5 372 c 128,-1,27
 258 339 258 339 296 339 c 0,16,17
733 -10 m 0,28,29
 662 -10 662 -10 624.5 41.5 c 128,-1,30
 587 93 587 93 587 183 c 0,31,32
 587 275 587 275 622 325 c 128,-1,33
 657 375 657 375 733 375 c 0,34,35
 806 375 806 375 844.5 325 c 128,-1,36
 883 275 883 275 883 183 c 0,37,38
 883 93 883 93 846.5 41.5 c 128,-1,39
 810 -10 810 -10 733 -10 c 0,28,29
733 53 m 0,40,41
 772 53 772 53 791 85.5 c 128,-1,42
 810 118 810 118 810 183 c 256,43,44
 810 248 810 248 791 280 c 128,-1,45
 772 312 772 312 733 312 c 0,46,47
 695 312 695 312 677.5 280 c 128,-1,48
 660 248 660 248 660 183 c 256,49,50
 660 118 660 118 677.5 85.5 c 128,-1,51
 695 53 695 53 733 53 c 0,40,41
EndSplineSet
EndChar

StartChar: quotesingle.telu
Encoding: 39 39 7
Width: 1033
Flags: W
LayerCount: 2
Fore
SplineSet
486 515 m 1,0,-1
 461 773 l 1,1,-1
 572 773 l 1,2,-1
 547 515 l 1,3,-1
 486 515 l 1,0,-1
EndSplineSet
EndChar

StartChar: parenleft.telu
Encoding: 40 40 8
Width: 1033
Flags: W
LayerCount: 2
Fore
SplineSet
382 211 m 0,0,1
 382 289 382 289 393.5 364.5 c 128,-1,2
 405 440 405 440 427.5 511.5 c 128,-1,3
 450 583 450 583 484.5 648.5 c 128,-1,4
 519 714 519 714 565 773 c 1,5,-1
 650 773 l 1,6,7
 589 684 589 684 549.5 592.5 c 128,-1,8
 510 501 510 501 490.5 406 c 128,-1,9
 471 311 471 311 471 210 c 0,10,11
 471 56 471 56 514 -84 c 128,-1,12
 557 -224 557 -224 651 -361 c 1,13,-1
 565 -361 l 1,14,15
 503 -282 503 -282 462.5 -190 c 128,-1,16
 422 -98 422 -98 402 3.5 c 128,-1,17
 382 105 382 105 382 211 c 0,0,1
EndSplineSet
EndChar

StartChar: parenright.telu
Encoding: 41 41 9
Width: 1033
Flags: W
LayerCount: 2
Fore
SplineSet
651 201 m 0,0,1
 651 123 651 123 639.5 47.5 c 128,-1,2
 628 -28 628 -28 605 -99.5 c 128,-1,3
 582 -171 582 -171 547.5 -236.5 c 128,-1,4
 513 -302 513 -302 467 -361 c 1,5,-1
 383 -361 l 1,6,7
 445 -271 445 -271 484.5 -179.5 c 128,-1,8
 524 -88 524 -88 543 7 c 128,-1,9
 562 102 562 102 562 202 c 0,10,11
 562 357 562 357 519.5 495.5 c 128,-1,12
 477 634 477 634 382 773 c 1,13,-1
 467 773 l 1,14,15
 529 695 529 695 570 602.5 c 128,-1,16
 611 510 611 510 631 408.5 c 128,-1,17
 651 307 651 307 651 201 c 0,0,1
EndSplineSet
EndChar

StartChar: asterisk.telu
Encoding: 42 42 10
Width: 1033
Flags: W
LayerCount: 2
Fore
SplineSet
563.5 773 m 1,0,-1
 543.5 581 l 1,1,-1
 736.5 635 l 1,2,-1
 749.5 543 l 1,3,-1
 566.5 528 l 1,4,-1
 685.5 370 l 1,5,-1
 599.5 323 l 1,6,-1
 514.5 498 l 1,7,-1
 436.5 323 l 1,8,-1
 348.5 370 l 1,9,-1
 465.5 528 l 1,10,-1
 283.5 543 l 1,11,-1
 297.5 635 l 1,12,-1
 487.5 581 l 1,13,-1
 466.5 773 l 1,14,-1
 563.5 773 l 1,0,-1
EndSplineSet
EndChar

StartChar: plus.telu
Encoding: 43 43 11
Width: 1033
Flags: W
LayerCount: 2
Fore
SplineSet
480.5 291 m 1,0,-1
 281.5 291 l 1,1,-1
 281.5 362 l 1,2,-1
 480.5 362 l 1,3,-1
 480.5 569 l 1,4,-1
 552.5 569 l 1,5,-1
 552.5 362 l 1,6,-1
 751.5 362 l 1,7,-1
 751.5 291 l 1,8,-1
 552.5 291 l 1,9,-1
 552.5 84 l 1,10,-1
 480.5 84 l 1,11,-1
 480.5 291 l 1,0,-1
EndSplineSet
EndChar

StartChar: comma.telu
Encoding: 44 44 12
Width: 1033
Flags: W
LayerCount: 2
Fore
SplineSet
585 116 m 1,0,-1
 592 105 l 1,1,2
 583 70 583 70 569 29 c 128,-1,3
 555 -12 555 -12 538.5 -52.5 c 128,-1,4
 522 -93 522 -93 506 -129 c 1,5,-1
 441 -129 l 1,6,7
 451 -91 451 -91 460.5 -47.5 c 128,-1,8
 470 -4 470 -4 478 38.5 c 128,-1,9
 486 81 486 81 491 116 c 1,10,-1
 585 116 l 1,0,-1
EndSplineSet
EndChar

StartChar: hyphen.telu
Encoding: 45 45 13
Width: 1033
Flags: W
LayerCount: 2
Fore
SplineSet
395.5 214 m 1,0,-1
 395.5 292 l 1,1,-1
 637.5 292 l 1,2,-1
 637.5 214 l 1,3,-1
 395.5 214 l 1,0,-1
EndSplineSet
EndChar

StartChar: period.telu
Encoding: 46 46 14
Width: 1033
Flags: W
LayerCount: 2
Fore
SplineSet
454.5 57 m 0,0,1
 454.5 93 454.5 93 472.5 108.5 c 128,-1,2
 490.5 124 490.5 124 515.5 124 c 0,3,4
 541.5 124 541.5 124 560 108.5 c 128,-1,5
 578.5 93 578.5 93 578.5 57 c 0,6,7
 578.5 20 578.5 20 560 4 c 128,-1,8
 541.5 -12 541.5 -12 515.5 -12 c 0,9,10
 490.5 -12 490.5 -12 472.5 4 c 128,-1,11
 454.5 20 454.5 20 454.5 57 c 0,0,1
EndSplineSet
EndChar

StartChar: slash.telu
Encoding: 47 47 15
Width: 1033
Flags: W
LayerCount: 2
Fore
SplineSet
705 773 m 1,0,-1
 415 -361 l 1,1,-1
 328 -361 l 1,2,-1
 619 773 l 1,3,-1
 705 773 l 1,0,-1
EndSplineSet
EndChar

StartChar: zero.telu
Encoding: 48 48 16
Width: 1033
Flags: W
LayerCount: 2
Fore
SplineSet
515.5 -10 m 0,0,1
 400.5 -10 400.5 -10 344.5 87.5 c 128,-1,2
 288.5 185 288.5 185 288.5 358 c 0,3,4
 288.5 474 288.5 474 311 556 c 128,-1,5
 333.5 638 333.5 638 383.5 681.5 c 128,-1,6
 433.5 725 433.5 725 515.5 725 c 0,7,8
 631.5 725 631.5 725 688 628.5 c 128,-1,9
 744.5 532 744.5 532 744.5 358 c 0,10,11
 744.5 271 744.5 271 732 203 c 128,-1,12
 719.5 135 719.5 135 692.5 87.5 c 128,-1,13
 665.5 40 665.5 40 621.5 15 c 128,-1,14
 577.5 -10 577.5 -10 515.5 -10 c 0,0,1
515.5 66 m 256,15,16
 590.5 66 590.5 66 622.5 138 c 128,-1,17
 654.5 210 654.5 210 654.5 358 c 0,18,19
 654.5 504 654.5 504 622.5 576.5 c 128,-1,20
 590.5 649 590.5 649 515.5 649 c 256,21,22
 440.5 649 440.5 649 409.5 576.5 c 128,-1,23
 378.5 504 378.5 504 378.5 358 c 256,24,25
 378.5 212 378.5 212 409.5 139 c 128,-1,26
 440.5 66 440.5 66 515.5 66 c 256,15,16
EndSplineSet
EndChar

StartChar: one.telu
Encoding: 49 49 17
Width: 1033
Flags: W
LayerCount: 2
Fore
SplineSet
560.5 0 m 1,0,-1
 560.5 446 l 2,1,2
 560.5 474 560.5 474 561.5 506.5 c 128,-1,3
 562.5 539 562.5 539 563.5 569.5 c 128,-1,4
 564.5 600 564.5 600 564.5 622 c 1,5,6
 548.5 605 548.5 605 537 594.5 c 128,-1,7
 525.5 584 525.5 584 505.5 567 c 2,8,-1
 433.5 508 l 1,9,-1
 386.5 568 l 1,10,-1
 573.5 714 l 1,11,-1
 646.5 714 l 1,12,-1
 646.5 0 l 1,13,-1
 560.5 0 l 1,0,-1
EndSplineSet
EndChar

StartChar: two.telu
Encoding: 50 50 18
Width: 1033
Flags: W
LayerCount: 2
Fore
SplineSet
294 76 m 1,0,-1
 465 262 l 2,1,2
 514 315 514 315 548.5 357 c 128,-1,3
 583 399 583 399 602 440 c 128,-1,4
 621 481 621 481 621 530 c 0,5,6
 621 587 621 587 589 618 c 128,-1,7
 557 649 557 649 506 649 c 0,8,9
 460 649 460 649 422.5 630 c 128,-1,10
 385 611 385 611 351 582 c 1,11,-1
 301 640 l 1,12,13
 327 664 327 664 358.5 683 c 128,-1,14
 390 702 390 702 427.5 713 c 128,-1,15
 465 724 465 724 507 724 c 0,16,17
 570 724 570 724 615.5 701 c 128,-1,18
 661 678 661 678 686 635.5 c 128,-1,19
 711 593 711 593 711 533 c 0,20,21
 711 478 711 478 689 429 c 128,-1,22
 667 380 667 380 628.5 332 c 128,-1,23
 590 284 590 284 540 231 c 2,24,-1
 403 85 l 1,25,-1
 403 81 l 1,26,-1
 739 81 l 1,27,-1
 739 0 l 1,28,-1
 294 0 l 1,29,-1
 294 76 l 1,0,-1
EndSplineSet
EndChar

StartChar: three.telu
Encoding: 51 51 19
Width: 1033
Flags: W
LayerCount: 2
Fore
SplineSet
480 -10 m 0,0,1
 427 -10 427 -10 379.5 -1.5 c 128,-1,2
 332 7 332 7 291 29 c 1,3,-1
 291 112 l 1,4,5
 334 90 334 90 383 77.5 c 128,-1,6
 432 65 432 65 478 65 c 0,7,8
 568 65 568 65 609.5 102.5 c 128,-1,9
 651 140 651 140 651 206 c 0,10,11
 651 250 651 250 628.5 278 c 128,-1,12
 606 306 606 306 564.5 319 c 128,-1,13
 523 332 523 332 465 332 c 2,14,-1
 400 332 l 1,15,-1
 400 406 l 1,16,-1
 465 406 l 2,17,18
 518 406 518 406 554.5 423 c 128,-1,19
 591 440 591 440 610 470.5 c 128,-1,20
 629 501 629 501 629 541 c 0,21,22
 629 575 629 575 613.5 599 c 128,-1,23
 598 623 598 623 571 636 c 128,-1,24
 544 649 544 649 507 649 c 0,25,26
 455 649 455 649 415 632.5 c 128,-1,27
 375 616 375 616 339 590 c 1,28,-1
 294 651 l 1,29,30
 331 681 331 681 385 702.5 c 128,-1,31
 439 724 439 724 507 724 c 0,32,33
 577 724 577 724 624.5 701 c 128,-1,34
 672 678 672 678 696 638.5 c 128,-1,35
 720 599 720 599 720 547 c 0,36,37
 720 499 720 499 700.5 463.5 c 128,-1,38
 681 428 681 428 646.5 406 c 128,-1,39
 612 384 612 384 566 376 c 1,40,-1
 566 373 l 1,41,42
 652 363 652 363 697 318.5 c 128,-1,43
 742 274 742 274 742 203 c 0,44,45
 742 141 742 141 714 92.5 c 128,-1,46
 686 44 686 44 628 17 c 128,-1,47
 570 -10 570 -10 480 -10 c 0,0,1
EndSplineSet
EndChar

StartChar: four.telu
Encoding: 52 52 20
Width: 1033
Flags: W
LayerCount: 2
Fore
SplineSet
586.5 160 m 1,0,-1
 256.5 160 l 1,1,-1
 256.5 238 l 1,2,-1
 580.5 718 l 1,3,-1
 672.5 718 l 1,4,-1
 672.5 241 l 1,5,-1
 776.5 241 l 1,6,-1
 776.5 160 l 1,7,-1
 672.5 160 l 1,8,-1
 672.5 0 l 1,9,-1
 586.5 0 l 1,10,-1
 586.5 160 l 1,0,-1
586.5 241 m 1,11,-1
 586.5 415 l 2,12,13
 586.5 452 586.5 452 588 492.5 c 128,-1,14
 589.5 533 589.5 533 591 568.5 c 128,-1,15
 592.5 604 592.5 604 592.5 626 c 1,16,-1
 588.5 626 l 1,17,18
 581.5 607 581.5 607 568.5 581 c 128,-1,19
 555.5 555 555.5 555 544.5 538 c 2,20,-1
 343.5 241 l 1,21,-1
 586.5 241 l 1,11,-1
EndSplineSet
EndChar

StartChar: five.telu
Encoding: 53 53 21
Width: 1033
Flags: W
LayerCount: 2
Fore
SplineSet
475 -10 m 0,0,1
 425 -10 425 -10 379 -0.5 c 128,-1,2
 333 9 333 9 301 29 c 1,3,-1
 301 113 l 1,4,5
 323 98 323 98 353.5 87.5 c 128,-1,6
 384 77 384 77 417 71.5 c 128,-1,7
 450 66 450 66 477 66 c 0,8,9
 554 66 554 66 597.5 103 c 128,-1,10
 641 140 641 140 641 219 c 0,11,12
 641 290 641 290 598 326.5 c 128,-1,13
 555 363 555 363 473 363 c 0,14,15
 447 363 447 363 413.5 358.5 c 128,-1,16
 380 354 380 354 360 350 c 1,17,-1
 316 378 l 1,18,-1
 343 714 l 1,19,-1
 680 714 l 1,20,-1
 680 633 l 1,21,-1
 420 633 l 1,22,-1
 401 428 l 1,23,24
 417 432 417 432 444.5 435 c 128,-1,25
 472 438 472 438 503 438 c 0,26,27
 568 438 568 438 619.5 414.5 c 128,-1,28
 671 391 671 391 701.5 344.5 c 128,-1,29
 732 298 732 298 732 229 c 0,30,31
 732 117 732 117 666 53.5 c 128,-1,32
 600 -10 600 -10 475 -10 c 0,0,1
EndSplineSet
EndChar

StartChar: six.telu
Encoding: 54 54 22
Width: 1033
Flags: W
LayerCount: 2
Fore
SplineSet
524.5 -10 m 0,0,1
 459.5 -10 459.5 -10 406.5 24 c 128,-1,2
 353.5 58 353.5 58 322.5 128 c 128,-1,3
 291.5 198 291.5 198 291.5 305 c 0,4,5
 291.5 367 291.5 367 299 427 c 128,-1,6
 306.5 487 306.5 487 326.5 540.5 c 128,-1,7
 346.5 594 346.5 594 381.5 635.5 c 128,-1,8
 416.5 677 416.5 677 471 700.5 c 128,-1,9
 525.5 724 525.5 724 603.5 724 c 0,10,11
 622.5 724 622.5 724 647 722 c 128,-1,12
 671.5 720 671.5 720 687.5 715 c 1,13,-1
 687.5 639 l 1,14,15
 670.5 645 670.5 645 649 648 c 128,-1,16
 627.5 651 627.5 651 606.5 651 c 0,17,18
 540.5 651 540.5 651 498 628 c 128,-1,19
 455.5 605 455.5 605 431 565.5 c 128,-1,20
 406.5 526 406.5 526 395.5 474 c 128,-1,21
 384.5 422 384.5 422 382.5 364 c 1,22,-1
 388.5 364 l 1,23,24
 408.5 399 408.5 399 444.5 423 c 128,-1,25
 480.5 447 480.5 447 538.5 447 c 0,26,27
 600.5 447 600.5 447 646 421.5 c 128,-1,28
 691.5 396 691.5 396 716.5 347.5 c 128,-1,29
 741.5 299 741.5 299 741.5 230 c 0,30,31
 741.5 156 741.5 156 715 102 c 128,-1,32
 688.5 48 688.5 48 640 19 c 128,-1,33
 591.5 -10 591.5 -10 524.5 -10 c 0,0,1
523.5 65 m 0,34,35
 582.5 65 582.5 65 619 105 c 128,-1,36
 655.5 145 655.5 145 655.5 230 c 0,37,38
 655.5 298 655.5 298 623.5 337.5 c 128,-1,39
 591.5 377 591.5 377 526.5 377 c 0,40,41
 482.5 377 482.5 377 449.5 357.5 c 128,-1,42
 416.5 338 416.5 338 398.5 308.5 c 128,-1,43
 380.5 279 380.5 279 380.5 247 c 0,44,45
 380.5 204 380.5 204 396.5 162 c 128,-1,46
 412.5 120 412.5 120 444 92.5 c 128,-1,47
 475.5 65 475.5 65 523.5 65 c 0,34,35
EndSplineSet
EndChar

StartChar: seven.telu
Encoding: 55 55 23
Width: 1033
Flags: W
LayerCount: 2
Fore
SplineSet
655 633 m 1,0,-1
 287 633 l 1,1,-1
 287 714 l 1,2,-1
 746 714 l 1,3,-1
 746 643 l 1,4,-1
 475 0 l 1,5,-1
 380 0 l 1,6,-1
 655 633 l 1,0,-1
EndSplineSet
EndChar

StartChar: eight.telu
Encoding: 56 56 24
Width: 1033
Flags: W
LayerCount: 2
Fore
SplineSet
516.5 -10 m 0,0,1
 409.5 -10 409.5 -10 351 41.5 c 128,-1,2
 292.5 93 292.5 93 292.5 182 c 0,3,4
 292.5 231 292.5 231 311 267 c 128,-1,5
 329.5 303 329.5 303 361 329.5 c 128,-1,6
 392.5 356 392.5 356 430.5 374 c 1,7,8
 398.5 395 398.5 395 372.5 420 c 128,-1,9
 346.5 445 346.5 445 331 478 c 128,-1,10
 315.5 511 315.5 511 315.5 554 c 0,11,12
 315.5 611 315.5 611 343.5 649 c 128,-1,13
 371.5 687 371.5 687 417.5 706 c 128,-1,14
 463.5 725 463.5 725 516.5 725 c 0,15,16
 571.5 725 571.5 725 617 706 c 128,-1,17
 662.5 687 662.5 687 690 649 c 128,-1,18
 717.5 611 717.5 611 717.5 553 c 0,19,20
 717.5 510 717.5 510 700.5 477.5 c 128,-1,21
 683.5 445 683.5 445 655 421 c 128,-1,22
 626.5 397 626.5 397 589.5 378 c 1,23,24
 627.5 358 627.5 358 662 331.5 c 128,-1,25
 696.5 305 696.5 305 718.5 269.5 c 128,-1,26
 740.5 234 740.5 234 740.5 186 c 0,27,28
 740.5 126 740.5 126 712 82 c 128,-1,29
 683.5 38 683.5 38 633.5 14 c 128,-1,30
 583.5 -10 583.5 -10 516.5 -10 c 0,0,1
514.5 64 m 0,31,32
 583.5 64 583.5 64 618.5 97 c 128,-1,33
 653.5 130 653.5 130 653.5 185 c 0,34,35
 653.5 233 653.5 233 617 268.5 c 128,-1,36
 580.5 304 580.5 304 503.5 340 c 1,37,38
 462.5 321 462.5 321 435 297.5 c 128,-1,39
 407.5 274 407.5 274 393.5 245.5 c 128,-1,40
 379.5 217 379.5 217 379.5 181 c 0,41,42
 379.5 129 379.5 129 412 96.5 c 128,-1,43
 444.5 64 444.5 64 514.5 64 c 0,31,32
517.5 414 m 1,44,45
 549.5 429 549.5 429 575 447 c 128,-1,46
 600.5 465 600.5 465 615.5 490 c 128,-1,47
 630.5 515 630.5 515 630.5 550 c 0,48,49
 630.5 600 630.5 600 600 625.5 c 128,-1,50
 569.5 651 569.5 651 515.5 651 c 0,51,52
 481.5 651 481.5 651 456 639.5 c 128,-1,53
 430.5 628 430.5 628 416.5 605.5 c 128,-1,54
 402.5 583 402.5 583 402.5 550 c 0,55,56
 402.5 514 402.5 514 417.5 489.5 c 128,-1,57
 432.5 465 432.5 465 458.5 447.5 c 128,-1,58
 484.5 430 484.5 430 517.5 414 c 1,44,45
EndSplineSet
EndChar

StartChar: nine.telu
Encoding: 57 57 25
Width: 1033
Flags: W
LayerCount: 2
Fore
SplineSet
429.5 -10 m 0,0,1
 410.5 -10 410.5 -10 386.5 -7.5 c 128,-1,2
 362.5 -5 362.5 -5 345.5 -1 c 1,3,-1
 345.5 75 l 1,4,5
 362.5 69 362.5 69 384 66 c 128,-1,6
 405.5 63 405.5 63 426.5 63 c 0,7,8
 492.5 63 492.5 63 535.5 86 c 128,-1,9
 578.5 109 578.5 109 602.5 148.5 c 128,-1,10
 626.5 188 626.5 188 637.5 240 c 128,-1,11
 648.5 292 648.5 292 650.5 350 c 1,12,-1
 644.5 350 l 1,13,14
 631.5 327 631.5 327 611 308 c 128,-1,15
 590.5 289 590.5 289 562 278 c 128,-1,16
 533.5 267 533.5 267 494.5 267 c 0,17,18
 433.5 267 433.5 267 387.5 292.5 c 128,-1,19
 341.5 318 341.5 318 316.5 366.5 c 128,-1,20
 291.5 415 291.5 415 291.5 484 c 0,21,22
 291.5 559 291.5 559 318 612.5 c 128,-1,23
 344.5 666 344.5 666 393.5 695 c 128,-1,24
 442.5 724 442.5 724 508.5 724 c 256,25,26
 574.5 724 574.5 724 627 690 c 128,-1,27
 679.5 656 679.5 656 710.5 586 c 128,-1,28
 741.5 516 741.5 516 741.5 409 c 0,29,30
 741.5 348 741.5 348 734 287.5 c 128,-1,31
 726.5 227 726.5 227 706.5 173.5 c 128,-1,32
 686.5 120 686.5 120 651.5 78.5 c 128,-1,33
 616.5 37 616.5 37 562 13.5 c 128,-1,34
 507.5 -10 507.5 -10 429.5 -10 c 0,0,1
506.5 337 m 0,35,36
 550.5 337 550.5 337 583.5 356.5 c 128,-1,37
 616.5 376 616.5 376 634.5 406 c 128,-1,38
 652.5 436 652.5 436 652.5 467 c 0,39,40
 652.5 500 652.5 500 643.5 532 c 128,-1,41
 634.5 564 634.5 564 616.5 590.5 c 128,-1,42
 598.5 617 598.5 617 572 633 c 128,-1,43
 545.5 649 545.5 649 509.5 649 c 0,44,45
 451.5 649 451.5 649 414.5 609 c 128,-1,46
 377.5 569 377.5 569 377.5 484 c 0,47,48
 377.5 416 377.5 416 410 376.5 c 128,-1,49
 442.5 337 442.5 337 506.5 337 c 0,35,36
EndSplineSet
EndChar

StartChar: colon.telu
Encoding: 58 58 26
Width: 1033
Flags: W
LayerCount: 2
Fore
SplineSet
454.5 57 m 0,0,1
 454.5 93 454.5 93 472.5 108.5 c 128,-1,2
 490.5 124 490.5 124 515.5 124 c 0,3,4
 541.5 124 541.5 124 560 108.5 c 128,-1,5
 578.5 93 578.5 93 578.5 57 c 0,6,7
 578.5 20 578.5 20 560 4 c 128,-1,8
 541.5 -12 541.5 -12 515.5 -12 c 0,9,10
 490.5 -12 490.5 -12 472.5 4 c 128,-1,11
 454.5 20 454.5 20 454.5 57 c 0,0,1
454.5 387 m 0,12,13
 454.5 425 454.5 425 472.5 440 c 128,-1,14
 490.5 455 490.5 455 515.5 455 c 0,15,16
 541.5 455 541.5 455 560 440 c 128,-1,17
 578.5 425 578.5 425 578.5 387 c 0,18,19
 578.5 351 578.5 351 560 335 c 128,-1,20
 541.5 319 541.5 319 515.5 319 c 0,21,22
 490.5 319 490.5 319 472.5 335 c 128,-1,23
 454.5 351 454.5 351 454.5 387 c 0,12,13
EndSplineSet
EndChar

StartChar: semicolon.telu
Encoding: 59 59 27
Width: 1033
Flags: W
LayerCount: 2
Fore
SplineSet
579 116 m 1,0,-1
 586 105 l 1,1,2
 577 70 577 70 563 29 c 128,-1,3
 549 -12 549 -12 532.5 -52.5 c 128,-1,4
 516 -93 516 -93 500 -129 c 1,5,-1
 434 -129 l 1,6,7
 444 -91 444 -91 453.5 -47.5 c 128,-1,8
 463 -4 463 -4 471.5 38.5 c 128,-1,9
 480 81 480 81 485 116 c 1,10,-1
 579 116 l 1,0,-1
475 387 m 0,11,12
 475 425 475 425 493 440 c 128,-1,13
 511 455 511 455 536 455 c 0,14,15
 562 455 562 455 580.5 440 c 128,-1,16
 599 425 599 425 599 387 c 0,17,18
 599 351 599 351 580.5 335 c 128,-1,19
 562 319 562 319 536 319 c 0,20,21
 511 319 511 319 493 335 c 128,-1,22
 475 351 475 351 475 387 c 0,11,12
EndSplineSet
EndChar

StartChar: less.telu
Encoding: 60 60 28
Width: 1033
Flags: W
LayerCount: 2
Fore
SplineSet
752 90 m 1,0,-1
 281 297 l 1,1,-1
 281 347 l 1,2,-1
 752 582 l 1,3,-1
 752 503 l 1,4,-1
 375 326 l 1,5,-1
 752 167 l 1,6,-1
 752 90 l 1,0,-1
EndSplineSet
EndChar

StartChar: equal.telu
Encoding: 61 61 29
Width: 1033
Flags: W
LayerCount: 2
Fore
SplineSet
287.5 390 m 1,0,-1
 287.5 460 l 1,1,-1
 745.5 460 l 1,2,-1
 745.5 390 l 1,3,-1
 287.5 390 l 1,0,-1
287.5 190 m 1,4,-1
 287.5 262 l 1,5,-1
 745.5 262 l 1,6,-1
 745.5 190 l 1,7,-1
 287.5 190 l 1,4,-1
EndSplineSet
EndChar

StartChar: greater.telu
Encoding: 62 62 30
Width: 1033
Flags: W
LayerCount: 2
Fore
SplineSet
281 167 m 1,0,-1
 658 325 l 1,1,-1
 281 503 l 1,2,-1
 281 582 l 1,3,-1
 752 347 l 1,4,-1
 752 297 l 1,5,-1
 281 90 l 1,6,-1
 281 167 l 1,0,-1
EndSplineSet
EndChar

StartChar: question.telu
Encoding: 63 63 31
Width: 1033
Flags: W
LayerCount: 2
Fore
SplineSet
507 661 m 0,0,1
 598 661 598 661 651 615 c 128,-1,2
 704 569 704 569 704 492 c 0,3,4
 704 454 704 454 692 424 c 128,-1,5
 680 394 680 394 656 367.5 c 128,-1,6
 632 341 632 341 595 311 c 0,7,8
 563 286 563 286 546 266.5 c 128,-1,9
 529 247 529 247 522.5 230 c 128,-1,10
 516 213 516 213 516 194 c 2,11,-1
 516 186 l 1,12,-1
 448 186 l 1,13,-1
 448 202 l 2,14,15
 448 231 448 231 455 256 c 128,-1,16
 462 281 462 281 480 304.5 c 128,-1,17
 498 328 498 328 531 354 c 0,18,19
 562 379 562 379 582 400 c 128,-1,20
 602 421 602 421 611.5 443.5 c 128,-1,21
 621 466 621 466 621 494 c 0,22,23
 621 520 621 520 608.5 540 c 128,-1,24
 596 560 596 560 571 572 c 128,-1,25
 546 584 546 584 508 584 c 0,26,27
 467 584 467 584 431.5 572.5 c 128,-1,28
 396 561 396 561 359 542 c 1,29,-1
 329 612 l 1,30,31
 368 632 368 632 414 646.5 c 128,-1,32
 460 661 460 661 507 661 c 0,0,1
486 -12 m 0,33,34
 461 -12 461 -12 442.5 4 c 128,-1,35
 424 20 424 20 424 56 c 0,36,37
 424 94 424 94 442.5 109 c 128,-1,38
 461 124 461 124 486 124 c 0,39,40
 512 124 512 124 530 109 c 128,-1,41
 548 94 548 94 548 56 c 0,42,43
 548 20 548 20 530 4 c 128,-1,44
 512 -12 512 -12 486 -12 c 0,33,34
EndSplineSet
EndChar

StartChar: bracketleft.telu
Encoding: 91 91 32
Width: 1033
Flags: W
LayerCount: 2
Fore
SplineSet
419.5 832 m 1,0,-1
 613.5 832 l 1,1,-1
 613.5 762 l 1,2,-1
 499.5 762 l 1,3,-1
 499.5 -96 l 1,4,-1
 613.5 -96 l 1,5,-1
 613.5 -166 l 1,6,-1
 419.5 -166 l 1,7,-1
 419.5 832 l 1,0,-1
EndSplineSet
EndChar

StartChar: backslash.telu
Encoding: 92 92 33
Width: 1033
Flags: W
LayerCount: 2
Fore
SplineSet
344 832 m 1,0,-1
 426 832 l 1,1,-1
 689 -166 l 1,2,-1
 607 -166 l 1,3,-1
 344 832 l 1,0,-1
EndSplineSet
EndChar

StartChar: bracketright.telu
Encoding: 93 93 34
Width: 1033
Flags: W
LayerCount: 2
Fore
SplineSet
419.5 -96 m 1,0,-1
 532.5 -96 l 1,1,-1
 532.5 762 l 1,2,-1
 419.5 762 l 1,3,-1
 419.5 832 l 1,4,-1
 613.5 832 l 1,5,-1
 613.5 -166 l 1,6,-1
 419.5 -166 l 1,7,-1
 419.5 -96 l 1,0,-1
EndSplineSet
EndChar

StartChar: asciicircum.telu
Encoding: 94 94 35
Width: 1033
Flags: W
LayerCount: 2
Fore
SplineSet
494.5 719 m 1,0,-1
 544.5 719 l 1,1,-1
 762.5 268 l 1,2,-1
 684.5 268 l 1,3,-1
 519.5 627 l 1,4,-1
 349.5 268 l 1,5,-1
 270.5 268 l 1,6,-1
 494.5 719 l 1,0,-1
EndSplineSet
EndChar

StartChar: underscore.telu
Encoding: 95 95 36
Width: 1033
Flags: W
LayerCount: 2
Fore
SplineSet
309 -90 m 1,0,-1
 724 -90 l 1,1,-1
 724 -158 l 1,2,-1
 309 -158 l 1,3,-1
 309 -90 l 1,0,-1
EndSplineSet
EndChar

StartChar: braceleft.telu
Encoding: 123 123 37
Width: 1033
Flags: W
LayerCount: 2
Fore
SplineSet
370 370 m 1,0,1
 410 370 410 370 437.5 379 c 128,-1,2
 465 388 465 388 479 408 c 128,-1,3
 493 428 493 428 493 460 c 2,4,-1
 493 691 l 2,5,6
 493 741 493 741 515 771.5 c 128,-1,7
 537 802 537 802 575.5 816.5 c 128,-1,8
 614 831 614 831 663 832 c 1,9,-1
 663 760 l 1,10,11
 636 760 636 760 616 753.5 c 128,-1,12
 596 747 596 747 585 731.5 c 128,-1,13
 574 716 574 716 574 685 c 2,14,-1
 574 455 l 2,15,16
 574 405 574 405 547 375.5 c 128,-1,17
 520 346 520 346 468 335 c 1,18,-1
 468 330 l 1,19,20
 520 320 520 320 547 291 c 128,-1,21
 574 262 574 262 574 211 c 2,22,-1
 574 -18 l 2,23,24
 574 -49 574 -49 585 -65 c 128,-1,25
 596 -81 596 -81 616 -87 c 128,-1,26
 636 -93 636 -93 663 -94 c 1,27,-1
 663 -166 l 1,28,29
 614 -165 614 -165 575.5 -150.5 c 128,-1,30
 537 -136 537 -136 515 -105.5 c 128,-1,31
 493 -75 493 -75 493 -25 c 2,32,-1
 493 206 l 2,33,34
 493 239 493 239 479 258.5 c 128,-1,35
 465 278 465 278 437.5 287 c 128,-1,36
 410 296 410 296 370 296 c 1,37,-1
 370 370 l 1,0,1
EndSplineSet
EndChar

StartChar: bar.telu
Encoding: 124 124 38
Width: 1033
Flags: W
LayerCount: 2
Fore
SplineSet
480.5 832 m 1,0,-1
 552.5 832 l 1,1,-1
 552.5 -166 l 1,2,-1
 480.5 -166 l 1,3,-1
 480.5 832 l 1,0,-1
EndSplineSet
EndChar

StartChar: braceright.telu
Encoding: 125 125 39
Width: 1033
Flags: W
LayerCount: 2
Fore
SplineSet
663 296 m 1,0,1
 623 296 623 296 596 287 c 128,-1,2
 569 278 569 278 555 258.5 c 128,-1,3
 541 239 541 239 541 206 c 2,4,-1
 541 -25 l 2,5,6
 541 -75 541 -75 518.5 -105.5 c 128,-1,7
 496 -136 496 -136 457.5 -150.5 c 128,-1,8
 419 -165 419 -165 370 -166 c 1,9,-1
 370 -94 l 1,10,11
 398 -93 398 -93 418 -87 c 128,-1,12
 438 -81 438 -81 448.5 -65 c 128,-1,13
 459 -49 459 -49 459 -18 c 2,14,-1
 459 211 l 2,15,16
 459 262 459 262 486 291 c 128,-1,17
 513 320 513 320 565 330 c 1,18,-1
 565 335 l 1,19,20
 513 346 513 346 486 375.5 c 128,-1,21
 459 405 459 405 459 455 c 2,22,-1
 459 685 l 2,23,24
 459 716 459 716 448.5 731.5 c 128,-1,25
 438 747 438 747 418 753.5 c 128,-1,26
 398 760 398 760 370 760 c 1,27,-1
 370 832 l 1,28,29
 419 831 419 831 457.5 816.5 c 128,-1,30
 496 802 496 802 518.5 771.5 c 128,-1,31
 541 741 541 741 541 691 c 2,32,-1
 541 460 l 2,33,34
 541 428 541 428 555 408 c 128,-1,35
 569 388 569 388 596 379 c 128,-1,36
 623 370 623 370 663 370 c 1,37,-1
 663 296 l 1,0,1
EndSplineSet
EndChar

StartChar: asciitilde.telu
Encoding: 126 126 40
Width: 1033
Flags: W
LayerCount: 2
Fore
SplineSet
291 335 m 1,0,1
 316 362 316 362 346 375 c 128,-1,2
 376 388 376 388 412 388 c 0,3,4
 431 388 431 388 447 385.5 c 128,-1,5
 463 383 463 383 483 376.5 c 128,-1,6
 503 370 503 370 533 357 c 0,7,8
 570 341 570 341 590 335.5 c 128,-1,9
 610 330 610 330 631 330 c 0,10,11
 659 330 659 330 689 347 c 128,-1,12
 719 364 719 364 742 389 c 1,13,-1
 742 310 l 1,14,15
 718 284 718 284 687.5 270.5 c 128,-1,16
 657 257 657 257 621 257 c 0,17,18
 602 257 602 257 586 259.5 c 128,-1,19
 570 262 570 262 550.5 268.5 c 128,-1,20
 531 275 531 275 500 288 c 0,21,22
 464 304 464 304 444.5 309.5 c 128,-1,23
 425 315 425 315 402 315 c 0,24,25
 375 315 375 315 345 298 c 128,-1,26
 315 281 315 281 291 256 c 1,27,-1
 291 335 l 1,0,1
EndSplineSet
EndChar

StartChar: A
Encoding: 65 65 42
Width: 1033
Flags: W
AnchorPoint: "Anchor-0" 516 -24 basechar 0
LayerCount: 2
Fore
SplineSet
506 -12 m 0,0,1
 416 -12 416 -12 349.5 9.5 c 128,-1,2
 283 31 283 31 239 70 c 128,-1,3
 195 109 195 109 173.5 161 c 128,-1,4
 152 213 152 213 152 273 c 0,5,6
 152 345 152 345 177 396 c 128,-1,7
 202 447 202 447 244.5 473.5 c 128,-1,8
 287 500 287 500 341 500 c 0,9,10
 381 500 381 500 410.5 484.5 c 128,-1,11
 440 469 440 469 456.5 440.5 c 128,-1,12
 473 412 473 412 473 373 c 0,13,14
 473 333 473 333 456 301.5 c 128,-1,15
 439 270 439 270 405 252.5 c 128,-1,16
 371 235 371 235 318 235 c 0,17,18
 268 235 268 235 231 258 c 128,-1,19
 194 281 194 281 174 304 c 1,20,-1
 198 366 l 1,21,22
 206 355 206 355 220.5 340.5 c 128,-1,23
 235 326 235 326 258 315.5 c 128,-1,24
 281 305 281 305 313 305 c 0,25,26
 353 305 353 305 373.5 322 c 128,-1,27
 394 339 394 339 394 369 c 0,28,29
 394 398 394 398 378 413.5 c 128,-1,30
 362 429 362 429 336 429 c 0,31,32
 289 429 289 429 260 390 c 128,-1,33
 231 351 231 351 231 280 c 2,34,-1
 231 271 l 2,35,36
 231 220 231 220 258.5 173 c 128,-1,37
 286 126 286 126 346.5 96.5 c 128,-1,38
 407 67 407 67 506 67 c 0,39,40
 654 67 654 67 726 119.5 c 128,-1,41
 798 172 798 172 798 285 c 0,42,43
 798 322 798 322 787 353.5 c 128,-1,44
 776 385 776 385 753.5 405 c 128,-1,45
 731 425 731 425 696 425 c 0,46,47
 673 425 673 425 653.5 409.5 c 128,-1,48
 634 394 634 394 634 360 c 0,49,50
 634 321 634 321 660 295.5 c 128,-1,51
 686 270 686 270 728 256 c 1,52,-1
 728 184 l 1,53,-1
 499 184 l 5,54,-1
 499 258 l 5,55,-1
 638 258 l 1,56,-1
 629 251 l 1,57,58
 594 268 594 268 574.5 300 c 128,-1,59
 555 332 555 332 555 374 c 0,60,61
 555 404 555 404 570 433 c 128,-1,62
 585 462 585 462 617.5 481 c 128,-1,63
 650 500 650 500 700 500 c 0,64,65
 752 500 752 500 792.5 472 c 128,-1,66
 833 444 833 444 857 395.5 c 128,-1,67
 881 347 881 347 881 284 c 0,68,69
 881 209 881 209 855.5 153 c 128,-1,70
 830 97 830 97 781.5 60.5 c 128,-1,71
 733 24 733 24 663.5 6 c 128,-1,72
 594 -12 594 -12 506 -12 c 0,0,1
EndSplineSet
EndChar

StartChar: B
Encoding: 66 66 43
Width: 1033
Flags: W
LayerCount: 2
Fore
SplineSet
471 714 m 2,0,1
 605 714 605 714 673.5 674.5 c 128,-1,2
 742 635 742 635 742 537 c 0,3,4
 742 495 742 495 726.5 462.5 c 128,-1,5
 711 430 711 430 680.5 408.5 c 128,-1,6
 650 387 650 387 606 379 c 1,7,-1
 606 374 l 1,8,9
 651 367 651 367 687.5 348 c 128,-1,10
 724 329 724 329 745 294 c 128,-1,11
 766 259 766 259 766 203 c 0,12,13
 766 138 766 138 736 92.5 c 128,-1,14
 706 47 706 47 650.5 23.5 c 128,-1,15
 595 0 595 0 518 0 c 2,16,-1
 267 0 l 1,17,-1
 267 714 l 1,18,-1
 471 714 l 2,0,1
489 410 m 2,19,20
 581 410 581 410 615 439.5 c 128,-1,21
 649 469 649 469 649 527 c 0,22,23
 649 586 649 586 607.5 611.5 c 128,-1,24
 566 637 566 637 475 637 c 2,25,-1
 357 637 l 1,26,-1
 357 410 l 1,27,-1
 489 410 l 2,19,20
357 335 m 1,28,-1
 357 76 l 1,29,-1
 501 76 l 2,30,31
 596 76 596 76 633 113 c 128,-1,32
 670 150 670 150 670 210 c 0,33,34
 670 248 670 248 653.5 276 c 128,-1,35
 637 304 637 304 598.5 319.5 c 128,-1,36
 560 335 560 335 494 335 c 2,37,-1
 357 335 l 1,28,-1
EndSplineSet
EndChar

StartChar: C
Encoding: 67 67 44
Width: 1033
Flags: W
LayerCount: 2
Fore
SplineSet
247 636 m 1,0,-1
 247 714 l 1,1,-1
 786 714 l 1,2,-1
 786 636 l 1,3,-1
 643 636 l 2,4,5
 553 636 553 636 486.5 597.5 c 128,-1,6
 420 559 420 559 383.5 492 c 128,-1,7
 347 425 347 425 347 337 c 0,8,9
 347 210 347 210 408.5 139 c 128,-1,10
 470 68 470 68 588 68 c 0,11,12
 632 68 632 68 674.5 75.5 c 128,-1,13
 717 83 717 83 760 97 c 1,14,-1
 760 20 l 1,15,16
 720 5 720 5 675 -2.5 c 128,-1,17
 630 -10 630 -10 575 -10 c 0,18,19
 472 -10 472 -10 400 32.5 c 128,-1,20
 328 75 328 75 290.5 152 c 128,-1,21
 253 229 253 229 253 332 c 0,22,23
 253 444 253 444 305.5 520 c 128,-1,24
 358 596 358 596 436 636 c 1,25,-1
 247 636 l 1,0,-1
EndSplineSet
EndChar

StartChar: D
Encoding: 68 68 45
Width: 1033
Flags: W
AnchorPoint: "Anchor-1" 869.5 -24 basechar 0
AnchorPoint: "Anchor-0" 516.5 -24 basechar 0
LayerCount: 2
Fore
SplineSet
486.5 425 m 0,0,1
 457.5 425 457.5 425 431 436 c 128,-1,2
 404.5 447 404.5 447 382.5 477.5 c 128,-1,3
 360.5 508 360.5 508 344.5 564 c 1,4,-1
 427.5 591 l 1,5,6
 442.5 536 442.5 536 456.5 518 c 128,-1,7
 470.5 500 470.5 500 492.5 500 c 0,8,9
 512.5 500 512.5 500 530 512.5 c 128,-1,10
 547.5 525 547.5 525 579.5 565 c 2,11,-1
 610.5 605 l 2,12,13
 644.5 649 644.5 649 673 675 c 128,-1,14
 701.5 701 701.5 701 733.5 713 c 128,-1,15
 765.5 725 765.5 725 809.5 725 c 1,16,-1
 815.5 648 l 1,17,18
 780.5 646 780.5 646 757 637 c 128,-1,19
 733.5 628 733.5 628 714 608.5 c 128,-1,20
 694.5 589 694.5 589 668.5 556 c 2,21,-1
 645.5 526 l 2,22,23
 617.5 490 617.5 490 592.5 468 c 128,-1,24
 567.5 446 567.5 446 542 435.5 c 128,-1,25
 516.5 425 516.5 425 486.5 425 c 0,0,1
667.5 -12 m 0,26,27
 630.5 -12 630.5 -12 601.5 -2 c 128,-1,28
 572.5 8 572.5 8 550 30.5 c 128,-1,29
 527.5 53 527.5 53 506.5 90 c 1,30,-1
 525.5 92 l 1,31,32
 504.5 49 504.5 49 478.5 26.5 c 128,-1,33
 452.5 4 452.5 4 423.5 -4 c 128,-1,34
 394.5 -12 394.5 -12 361.5 -12 c 0,35,36
 288.5 -12 288.5 -12 243.5 44 c 128,-1,37
 198.5 100 198.5 100 198.5 200 c 0,38,39
 198.5 289 198.5 289 237.5 356.5 c 128,-1,40
 276.5 424 276.5 424 348.5 462 c 128,-1,41
 420.5 500 420.5 500 520.5 500 c 256,42,43
 620.5 500 620.5 500 690.5 461.5 c 128,-1,44
 760.5 423 760.5 423 797.5 355.5 c 128,-1,45
 834.5 288 834.5 288 834.5 200 c 0,46,47
 834.5 132 834.5 132 814 84.5 c 128,-1,48
 793.5 37 793.5 37 756 12.5 c 128,-1,49
 718.5 -12 718.5 -12 667.5 -12 c 0,26,27
659.5 67 m 0,50,51
 701.5 67 701.5 67 726.5 98 c 128,-1,52
 751.5 129 751.5 129 751.5 202 c 0,53,54
 751.5 267 751.5 267 727 317 c 128,-1,55
 702.5 367 702.5 367 653 396 c 128,-1,56
 603.5 425 603.5 425 527.5 425 c 2,57,-1
 512.5 425 l 2,58,59
 437.5 425 437.5 425 386 397.5 c 128,-1,60
 334.5 370 334.5 370 308 320.5 c 128,-1,61
 281.5 271 281.5 271 281.5 205 c 0,62,63
 281.5 130 281.5 130 306 98.5 c 128,-1,64
 330.5 67 330.5 67 373.5 67 c 0,65,66
 418.5 67 418.5 67 446 99.5 c 128,-1,67
 473.5 132 473.5 132 477.5 185 c 1,68,-1
 555.5 185 l 1,69,70
 559.5 124 559.5 124 591 95.5 c 128,-1,71
 622.5 67 622.5 67 659.5 67 c 0,50,51
EndSplineSet
EndChar

StartChar: E
Encoding: 69 69 46
Width: 1033
Flags: W
LayerCount: 2
Fore
SplineSet
716 0 m 1,0,-1
 317 0 l 1,1,-1
 317 714 l 1,2,-1
 716 714 l 1,3,-1
 716 635 l 1,4,-1
 407 635 l 1,5,-1
 407 412 l 1,6,-1
 698 412 l 1,7,-1
 698 334 l 1,8,-1
 407 334 l 1,9,-1
 407 79 l 1,10,-1
 716 79 l 1,11,-1
 716 0 l 1,0,-1
EndSplineSet
EndChar

StartChar: F
Encoding: 70 70 47
Width: 1033
Flags: W
LayerCount: 2
Fore
SplineSet
407 0 m 1,0,-1
 317 0 l 1,1,-1
 317 714 l 1,2,-1
 716 714 l 1,3,-1
 716 635 l 1,4,-1
 407 635 l 1,5,-1
 407 382 l 1,6,-1
 697 382 l 1,7,-1
 697 303 l 1,8,-1
 407 303 l 1,9,-1
 407 0 l 1,0,-1
EndSplineSet
EndChar

StartChar: G
Encoding: 71 71 48
Width: 1033
Flags: W
LayerCount: 2
Fore
SplineSet
566 377 m 1,0,-1
 813 377 l 1,1,-1
 813 27 l 1,2,3
 755 8 755 8 696 -1 c 128,-1,4
 637 -10 637 -10 562 -10 c 0,5,6
 451 -10 451 -10 375 34.5 c 128,-1,7
 299 79 299 79 259.5 161.5 c 128,-1,8
 220 244 220 244 220 357 c 0,9,10
 220 469 220 469 264 551 c 128,-1,11
 308 633 308 633 390.5 678.5 c 128,-1,12
 473 724 473 724 590 724 c 0,13,14
 650 724 650 724 703.5 713 c 128,-1,15
 757 702 757 702 803 682 c 1,16,-1
 769 604 l 1,17,18
 731 621 731 621 683.5 633 c 128,-1,19
 636 645 636 645 585 645 c 0,20,21
 500 645 500 645 439 610 c 128,-1,22
 378 575 378 575 346 510.5 c 128,-1,23
 314 446 314 446 314 357 c 0,24,25
 314 272 314 272 341.5 206.5 c 128,-1,26
 369 141 369 141 428 104.5 c 128,-1,27
 487 68 487 68 583 68 c 0,28,29
 630 68 630 68 663 73 c 128,-1,30
 696 78 696 78 723 85 c 1,31,-1
 723 297 l 1,32,-1
 566 297 l 1,33,-1
 566 377 l 1,0,-1
EndSplineSet
EndChar

StartChar: H
Encoding: 72 72 49
Width: 1033
Flags: W
AnchorPoint: "Anchor-1" 1036.5 -24 basechar 0
AnchorPoint: "Anchor-0" 500.5 -24 basechar 0
LayerCount: 2
Fore
SplineSet
200.5 425 m 0,0,1
 171.5 425 171.5 425 145 436 c 128,-1,2
 118.5 447 118.5 447 96.5 477.5 c 128,-1,3
 74.5 508 74.5 508 58.5 564 c 1,4,-1
 141.5 591 l 1,5,6
 156.5 536 156.5 536 170.5 518 c 128,-1,7
 184.5 500 184.5 500 206.5 500 c 0,8,9
 226.5 500 226.5 500 244 512.5 c 128,-1,10
 261.5 525 261.5 525 293.5 565 c 2,11,-1
 324.5 605 l 2,12,13
 358.5 649 358.5 649 387 675 c 128,-1,14
 415.5 701 415.5 701 447.5 713 c 128,-1,15
 479.5 725 479.5 725 523.5 725 c 1,16,-1
 529.5 648 l 1,17,18
 494.5 646 494.5 646 471 637 c 128,-1,19
 447.5 628 447.5 628 428 608.5 c 128,-1,20
 408.5 589 408.5 589 382.5 556 c 2,21,-1
 359.5 526 l 2,22,23
 331.5 490 331.5 490 306.5 468 c 128,-1,24
 281.5 446 281.5 446 256 435.5 c 128,-1,25
 230.5 425 230.5 425 200.5 425 c 0,0,1
488.5 -12 m 0,26,27
 440.5 -12 440.5 -12 405 6 c 128,-1,28
 369.5 24 369.5 24 339.5 56 c 128,-1,29
 309.5 88 309.5 88 276.5 131 c 0,30,31
 247.5 171 247.5 171 226.5 189 c 128,-1,32
 205.5 207 205.5 207 175.5 207 c 0,33,34
 147.5 207 147.5 207 129 189 c 128,-1,35
 110.5 171 110.5 171 110.5 136 c 0,36,37
 110.5 105 110.5 105 130 84 c 128,-1,38
 149.5 63 149.5 63 183.5 63 c 256,39,40
 217.5 63 217.5 63 240 83 c 128,-1,41
 262.5 103 262.5 103 278.5 141 c 1,42,-1
 331.5 81 l 1,43,44
 312.5 54 312.5 54 291.5 33 c 128,-1,45
 270.5 12 270.5 12 244 0 c 128,-1,46
 217.5 -12 217.5 -12 178.5 -12 c 0,47,48
 125.5 -12 125.5 -12 93.5 10 c 128,-1,49
 61.5 32 61.5 32 47 66.5 c 128,-1,50
 32.5 101 32.5 101 32.5 138 c 0,51,52
 32.5 182 32.5 182 51.5 214 c 128,-1,53
 70.5 246 70.5 246 102.5 264 c 128,-1,54
 134.5 282 134.5 282 173.5 282 c 0,55,56
 209.5 282 209.5 282 237.5 269.5 c 128,-1,57
 265.5 257 265.5 257 292.5 230.5 c 128,-1,58
 319.5 204 319.5 204 351.5 161 c 0,59,60
 378.5 126 378.5 126 399.5 105 c 128,-1,61
 420.5 84 420.5 84 442.5 75.5 c 128,-1,62
 464.5 67 464.5 67 493.5 67 c 0,63,64
 543.5 67 543.5 67 570 99 c 128,-1,65
 596.5 131 596.5 131 596.5 189 c 0,66,67
 596.5 244 596.5 244 573 288 c 128,-1,68
 549.5 332 549.5 332 509.5 366.5 c 128,-1,69
 469.5 401 469.5 401 421.5 425 c 1,70,-1
 457.5 500 l 1,71,72
 467.5 496 467.5 496 482.5 487.5 c 128,-1,73
 497.5 479 497.5 479 506.5 471 c 2,74,-1
 526.5 446 l 1,75,76
 569.5 421 569.5 421 604 383 c 128,-1,77
 638.5 345 638.5 345 659 297 c 128,-1,78
 679.5 249 679.5 249 679.5 193 c 0,79,80
 679.5 130 679.5 130 657.5 84 c 128,-1,81
 635.5 38 635.5 38 593 13 c 128,-1,82
 550.5 -12 550.5 -12 488.5 -12 c 0,26,27
859.5 220 m 4,83,84
 822.5 220 822.5 220 796 231 c 132,-1,85
 769.5 242 769.5 242 753.5 260.5 c 132,-1,86
 737.5 279 737.5 279 730 301 c 132,-1,87
 722.5 323 722.5 323 722.5 344 c 4,88,89
 722.5 376 722.5 376 732 399 c 132,-1,90
 741.5 422 741.5 422 755.5 443 c 5,91,-1
 843.5 450 l 5,92,93
 818.5 425 818.5 425 807 401.5 c 132,-1,94
 795.5 378 795.5 378 795.5 353 c 4,95,96
 795.5 323 795.5 323 813 304.5 c 132,-1,97
 830.5 286 830.5 286 863.5 286 c 4,98,99
 898.5 286 898.5 286 913 304.5 c 132,-1,100
 927.5 323 927.5 323 927.5 350 c 4,101,102
 927.5 392 927.5 392 902 408.5 c 132,-1,103
 876.5 425 876.5 425 830.5 425 c 6,104,-1
 447.5 425 l 1,105,-1
 457.5 500 l 1,106,-1
 788.5 500 l 6,107,108
 831.5 500 831.5 500 861.5 496.5 c 132,-1,109
 891.5 493 891.5 493 913.5 485 c 132,-1,110
 935.5 477 935.5 477 953.5 462 c 4,111,112
 974.5 446 974.5 446 987.5 418.5 c 132,-1,113
 1000.5 391 1000.5 391 1000.5 353 c 4,114,115
 1000.5 290 1000.5 290 962.5 255 c 132,-1,116
 924.5 220 924.5 220 859.5 220 c 4,83,84
EndSplineSet
EndChar

StartChar: I
Encoding: 73 73 50
Width: 1033
Flags: W
LayerCount: 2
Fore
SplineSet
645.5 0 m 1,0,-1
 387.5 0 l 1,1,-1
 387.5 52 l 1,2,-1
 471.5 71 l 1,3,-1
 471.5 642 l 1,4,-1
 387.5 662 l 1,5,-1
 387.5 714 l 1,6,-1
 645.5 714 l 1,7,-1
 645.5 662 l 1,8,-1
 561.5 642 l 1,9,-1
 561.5 71 l 1,10,-1
 645.5 52 l 1,11,-1
 645.5 0 l 1,0,-1
EndSplineSet
EndChar

StartChar: J
Encoding: 74 74 51
Width: 1033
Flags: W
LayerCount: 2
Fore
SplineSet
466 -8 m 4,0,1
 411 -8 411 -8 367 4 c 132,-1,2
 323 16 323 16 289 33 c 5,3,-1
 320 103 l 5,4,5
 350 89 350 89 386.5 77 c 132,-1,6
 423 65 423 65 464 65 c 4,7,8
 521 65 521 65 551 94.5 c 132,-1,9
 581 124 581 124 581 190 c 6,10,-1
 581 329 l 5,11,-1
 377 329 l 5,12,-1
 377 395 l 5,13,-1
 581 395 l 5,14,-1
 581 499 l 6,15,16
 581 539 581 539 590.5 565.5 c 132,-1,17
 600 592 600 592 615.5 608 c 132,-1,18
 631 624 631 624 649 635 c 5,19,-1
 265 635 l 5,20,-1
 265 715 l 5,21,-1
 768 715 l 5,22,-1
 768 641 l 5,23,24
 739 634 739 634 717 617.5 c 132,-1,25
 695 601 695 601 682 572.5 c 132,-1,26
 669 544 669 544 669 500 c 6,27,-1
 669 395 l 5,28,-1
 765 395 l 5,29,-1
 765 329 l 5,30,-1
 669 329 l 5,31,-1
 669 181 l 6,32,33
 669 121 669 121 644 79 c 132,-1,34
 619 37 619 37 573 14.5 c 132,-1,35
 527 -8 527 -8 466 -8 c 4,0,1
EndSplineSet
EndChar

StartChar: K
Encoding: 75 75 52
Width: 1033
Flags: W
LayerCount: 2
Fore
SplineSet
777.5 0 m 1,0,-1
 671.5 0 l 1,1,-1
 418.5 341 l 1,2,-1
 345.5 277 l 1,3,-1
 345.5 0 l 1,4,-1
 255.5 0 l 1,5,-1
 255.5 714 l 1,6,-1
 345.5 714 l 1,7,-1
 345.5 362 l 1,8,9
 375.5 396 375.5 396 406.5 430 c 128,-1,10
 437.5 464 437.5 464 468.5 498 c 2,11,-1
 661.5 714 l 1,12,-1
 766.5 714 l 1,13,-1
 483.5 403 l 1,14,-1
 777.5 0 l 1,0,-1
EndSplineSet
EndChar

StartChar: L
Encoding: 76 76 53
Width: 1033
Flags: W
LayerCount: 2
Fore
SplineSet
567 723 m 0,0,1
 622 723 622 723 666 711 c 128,-1,2
 710 699 710 699 744 682 c 1,3,-1
 713 612 l 1,4,5
 683 626 683 626 646.5 638 c 128,-1,6
 610 650 610 650 569 650 c 0,7,8
 512 650 512 650 482 620.5 c 128,-1,9
 452 591 452 591 452 525 c 2,10,-1
 452 386 l 1,11,-1
 656 386 l 1,12,-1
 656 320 l 1,13,-1
 452 320 l 1,14,-1
 452 216 l 2,15,16
 452 176 452 176 442.5 149.5 c 128,-1,17
 433 123 433 123 417.5 107 c 128,-1,18
 402 91 402 91 384 80 c 1,19,-1
 768 80 l 1,20,-1
 768 0 l 1,21,-1
 265 0 l 1,22,-1
 265 74 l 1,23,24
 294 81 294 81 316 97.5 c 128,-1,25
 338 114 338 114 351 142.5 c 128,-1,26
 364 171 364 171 364 215 c 2,27,-1
 364 320 l 1,28,-1
 268 320 l 1,29,-1
 268 386 l 1,30,-1
 364 386 l 1,31,-1
 364 534 l 2,32,33
 364 594 364 594 389 636 c 128,-1,34
 414 678 414 678 460 700.5 c 128,-1,35
 506 723 506 723 567 723 c 0,0,1
EndSplineSet
EndChar

StartChar: M
Encoding: 77 77 54
Width: 1033
Flags: W
LayerCount: 2
Fore
SplineSet
475 0 m 1,0,-1
 240 626 l 1,1,-1
 236 626 l 1,2,3
 238 606 238 606 239.5 575 c 128,-1,4
 241 544 241 544 242 507.5 c 128,-1,5
 243 471 243 471 243 433 c 2,6,-1
 243 0 l 1,7,-1
 160 0 l 1,8,-1
 160 714 l 1,9,-1
 293 714 l 1,10,-1
 513 129 l 1,11,-1
 517 129 l 1,12,-1
 741 714 l 1,13,-1
 873 714 l 1,14,-1
 873 0 l 1,15,-1
 784 0 l 1,16,-1
 784 439 l 2,17,18
 784 474 784 474 785 508.5 c 128,-1,19
 786 543 786 543 788 573.5 c 128,-1,20
 790 604 790 604 791 625 c 1,21,-1
 787 625 l 1,22,-1
 549 0 l 1,23,-1
 475 0 l 1,0,-1
EndSplineSet
EndChar

StartChar: N
Encoding: 78 78 55
Width: 1033
Flags: W
AnchorPoint: "Anchor-2" 808.5 572 basechar 0
AnchorPoint: "Anchor-1" 517.5 572 basechar 0
AnchorPoint: "Anchor-0" 517.5 0 basechar 0
LayerCount: 2
Fore
SplineSet
753.5 572 m 1,0,-1
 753.5 0 l 1,1,-1
 646.5 0 l 1,2,-1
 356.5 464 l 1,3,-1
 352.5 464 l 1,4,5
 354.5 437 354.5 437 356.5 396.5 c 128,-1,6
 358.5 356 358.5 356 358.5 324 c 2,7,-1
 358.5 0 l 1,8,-1
 279.5 0 l 1,9,-1
 279.5 572 l 1,10,-1
 386.5 572 l 1,11,-1
 675.5 110 l 1,12,-1
 678.5 110 l 1,13,14
 676.5 131 676.5 131 675.5 170 c 128,-1,15
 674.5 209 674.5 209 674.5 244 c 2,16,-1
 674.5 572 l 1,17,-1
 753.5 572 l 1,0,-1
EndSplineSet
EndChar

StartChar: O
Encoding: 79 79 56
Width: 1033
Flags: W
LayerCount: 2
Fore
SplineSet
846 358 m 0,0,1
 846 275 846 275 825 207.5 c 128,-1,2
 804 140 804 140 762.5 91 c 128,-1,3
 721 42 721 42 659.5 16 c 128,-1,4
 598 -10 598 -10 517 -10 c 0,5,6
 433 -10 433 -10 371 16.5 c 128,-1,7
 309 43 309 43 268 91.5 c 128,-1,8
 227 140 227 140 207 208 c 128,-1,9
 187 276 187 276 187 359 c 0,10,11
 187 469 187 469 223 551 c 128,-1,12
 259 633 259 633 332.5 679 c 128,-1,13
 406 725 406 725 518 725 c 0,14,15
 625 725 625 725 698 679.5 c 128,-1,16
 771 634 771 634 808.5 551.5 c 128,-1,17
 846 469 846 469 846 358 c 0,0,1
282 358 m 256,18,19
 282 268 282 268 307 203 c 128,-1,20
 332 138 332 138 384.5 103 c 128,-1,21
 437 68 437 68 517 68 c 0,22,23
 598 68 598 68 649.5 103 c 128,-1,24
 701 138 701 138 726 203 c 128,-1,25
 751 268 751 268 751 358 c 0,26,27
 751 493 751 493 695 569.5 c 128,-1,28
 639 646 639 646 518 646 c 0,29,30
 437 646 437 646 384.5 611.5 c 128,-1,31
 332 577 332 577 307 512.5 c 128,-1,32
 282 448 282 448 282 358 c 256,18,19
EndSplineSet
EndChar

StartChar: P
Encoding: 80 80 57
Width: 1033
Flags: W
LayerCount: 2
Fore
SplineSet
477 714 m 2,0,1
 617 714 617 714 681 659 c 128,-1,2
 745 604 745 604 745 504 c 0,3,4
 745 460 745 460 730.5 419.5 c 128,-1,5
 716 379 716 379 683 347 c 128,-1,6
 650 315 650 315 595 296.5 c 128,-1,7
 540 278 540 278 460 278 c 2,8,-1
 378 278 l 1,9,-1
 378 0 l 1,10,-1
 288 0 l 1,11,-1
 288 714 l 1,12,-1
 477 714 l 2,0,1
469 637 m 2,13,-1
 378 637 l 1,14,-1
 378 355 l 1,15,-1
 450 355 l 2,16,17
 518 355 518 355 563 369.5 c 128,-1,18
 608 384 608 384 630 416 c 128,-1,19
 652 448 652 448 652 500 c 0,20,21
 652 569 652 569 608 603 c 128,-1,22
 564 637 564 637 469 637 c 2,13,-1
EndSplineSet
EndChar

StartChar: Q
Encoding: 81 81 58
Width: 1033
Flags: W
LayerCount: 2
Fore
SplineSet
767.5 -5 m 1,0,1
 747.5 -5 747.5 -5 728.5 2 c 128,-1,2
 709.5 9 709.5 9 695.5 26 c 1,3,-1
 695.5 291 l 5,4,5
 667.5 266 667.5 266 630.5 250.5 c 132,-1,6
 593.5 235 593.5 235 543.5 235 c 4,7,8
 501.5 235 501.5 235 452.5 258 c 132,-1,9
 403.5 281 403.5 281 361.5 318 c 132,-1,10
 319.5 355 319.5 355 291.5 401 c 132,-1,11
 263.5 447 263.5 447 263.5 493 c 4,12,13
 263.5 541 263.5 541 281 578 c 132,-1,14
 298.5 615 298.5 615 328.5 640.5 c 132,-1,15
 358.5 666 358.5 666 399 679 c 132,-1,16
 439.5 692 439.5 692 485.5 692 c 4,17,18
 519.5 692 519.5 692 549.5 684 c 4,19,20
 598.5 671 598.5 671 605.5 662.5 c 4,21,22
 640.5 622 640.5 622 654 631.5 c 4,23,24
 657.5 634 657.5 634 695.5 718 c 5,25,-1
 693.5 717 l 5,26,-1
 769.5 717 l 6,27,-1
 767.5 -5 l 1,0,1
486.5 292 m 4,28,29
 524.5 292 524.5 292 560.5 304.5 c 132,-1,30
 596.5 317 596.5 317 626.5 340 c 5,31,-1
 393.5 580 l 5,32,33
 366.5 556 366.5 556 351.5 521.5 c 132,-1,34
 336.5 487 336.5 487 336.5 442 c 4,35,36
 336.5 406 336.5 406 348 378 c 132,-1,37
 359.5 350 359.5 350 379.5 331 c 132,-1,38
 399.5 312 399.5 312 427 302 c 132,-1,39
 454.5 292 454.5 292 486.5 292 c 4,28,29
695.5 571 m 5,40,41
 660.5 598 660.5 598 623 613.5 c 132,-1,42
 585.5 629 585.5 629 536.5 629 c 4,43,44
 464.5 629 464.5 629 413.5 596 c 5,45,-1
 644.5 356 l 5,46,47
 660.5 371 660.5 371 673.5 389 c 132,-1,48
 686.5 407 686.5 407 695.5 427 c 5,49,-1
 695.5 571 l 5,40,41
EndSplineSet
EndChar

StartChar: R
Encoding: 82 82 59
Width: 1033
Flags: W
LayerCount: 2
Fore
SplineSet
458.5 714 m 2,0,1
 547.5 714 547.5 714 605 691.5 c 128,-1,2
 662.5 669 662.5 669 690.5 624 c 128,-1,3
 718.5 579 718.5 579 718.5 511 c 0,4,5
 718.5 454 718.5 454 697.5 416 c 128,-1,6
 676.5 378 676.5 378 644 355.5 c 128,-1,7
 611.5 333 611.5 333 575.5 320 c 1,8,-1
 771.5 0 l 1,9,-1
 666.5 0 l 1,10,-1
 493.5 295 l 1,11,-1
 351.5 295 l 1,12,-1
 351.5 0 l 1,13,-1
 261.5 0 l 1,14,-1
 261.5 714 l 1,15,-1
 458.5 714 l 2,0,1
453.5 636 m 2,16,-1
 351.5 636 l 1,17,-1
 351.5 371 l 1,18,-1
 458.5 371 l 2,19,20
 545.5 371 545.5 371 585.5 405.5 c 128,-1,21
 625.5 440 625.5 440 625.5 507 c 0,22,23
 625.5 554 625.5 554 607 582 c 128,-1,24
 588.5 610 588.5 610 550.5 623 c 128,-1,25
 512.5 636 512.5 636 453.5 636 c 2,16,-1
EndSplineSet
EndChar

StartChar: S
Encoding: 83 83 60
Width: 1033
Flags: W
LayerCount: 2
Fore
SplineSet
742 191 m 0,0,1
 742 127 742 127 711 82.5 c 128,-1,2
 680 38 680 38 622.5 14 c 128,-1,3
 565 -10 565 -10 487 -10 c 0,4,5
 447 -10 447 -10 410.5 -6 c 128,-1,6
 374 -2 374 -2 344 5.5 c 128,-1,7
 314 13 314 13 291 24 c 1,8,-1
 291 110 l 1,9,10
 327 94 327 94 380.5 81 c 128,-1,11
 434 68 434 68 491 68 c 0,12,13
 544 68 544 68 580 82 c 128,-1,14
 616 96 616 96 634 122 c 128,-1,15
 652 148 652 148 652 183 c 256,16,17
 652 218 652 218 637 242 c 128,-1,18
 622 266 622 266 585.5 286.5 c 128,-1,19
 549 307 549 307 484 330 c 0,20,21
 438 347 438 347 403.5 366.5 c 128,-1,22
 369 386 369 386 346 411 c 128,-1,23
 323 436 323 436 311.5 468 c 128,-1,24
 300 500 300 500 300 542 c 0,25,26
 300 599 300 599 329 639.5 c 128,-1,27
 358 680 358 680 409.5 702 c 128,-1,28
 461 724 461 724 528 724 c 0,29,30
 587 724 587 724 636 713 c 128,-1,31
 685 702 685 702 725 684 c 1,32,-1
 697 607 l 1,33,34
 660 623 660 623 616.5 634 c 128,-1,35
 573 645 573 645 526 645 c 0,36,37
 481 645 481 645 451 632 c 128,-1,38
 421 619 421 619 406 595.5 c 128,-1,39
 391 572 391 572 391 541 c 0,40,41
 391 505 391 505 406 481 c 128,-1,42
 421 457 421 457 455 438 c 128,-1,43
 489 419 489 419 547 397 c 0,44,45
 610 374 610 374 653.5 347.5 c 128,-1,46
 697 321 697 321 719.5 284 c 128,-1,47
 742 247 742 247 742 191 c 0,0,1
EndSplineSet
EndChar

StartChar: T
Encoding: 84 84 61
Width: 1033
Flags: W
AnchorPoint: "Anchor-1" 905 -24 basechar 0
AnchorPoint: "Anchor-0" 516 -24 basechar 0
LayerCount: 2
Fore
SplineSet
521 -12 m 0,0,1
 400 -12 400 -12 320.5 20.5 c 128,-1,2
 241 53 241 53 202 109.5 c 128,-1,3
 163 166 163 166 163 237 c 0,4,5
 163 293 163 293 186.5 335.5 c 128,-1,6
 210 378 210 378 251 401.5 c 128,-1,7
 292 425 292 425 345 425 c 0,8,9
 387 425 387 425 417 409.5 c 128,-1,10
 447 394 447 394 463 366 c 128,-1,11
 479 338 479 338 479 301 c 0,12,13
 479 240 479 240 437.5 203.5 c 128,-1,14
 396 167 396 167 321 167 c 0,15,16
 299 167 299 167 279 171.5 c 128,-1,17
 259 176 259 176 242 183 c 128,-1,18
 225 190 225 190 210 199 c 1,19,-1
 217 270 l 1,20,21
 237 255 237 255 259.5 246 c 128,-1,22
 282 237 282 237 309 237 c 0,23,24
 358 237 358 237 378.5 255 c 128,-1,25
 399 273 399 273 399 301 c 0,26,27
 399 327 399 327 383.5 340.5 c 128,-1,28
 368 354 368 354 340 354 c 0,29,30
 310 354 310 354 286.5 340 c 128,-1,31
 263 326 263 326 249 302 c 128,-1,32
 235 278 235 278 235 246 c 2,33,-1
 235 241 l 2,34,35
 235 198 235 198 255.5 165.5 c 128,-1,36
 276 133 276 133 313 111 c 128,-1,37
 350 89 350 89 401.5 78 c 128,-1,38
 453 67 453 67 516 67 c 0,39,40
 599 67 599 67 653.5 84 c 128,-1,41
 708 101 708 101 739 128 c 128,-1,42
 770 155 770 155 782.5 186 c 128,-1,43
 795 217 795 217 795 246 c 2,44,-1
 795 290 l 1,45,46
 786 317 786 317 762 335.5 c 128,-1,47
 738 354 738 354 703 354 c 0,48,49
 678 354 678 354 657.5 339.5 c 128,-1,50
 637 325 637 325 637 293 c 0,51,52
 637 271 637 271 653 254 c 128,-1,53
 669 237 669 237 703 237 c 0,54,55
 729 237 729 237 748 246.5 c 128,-1,56
 767 256 767 256 778.5 273.5 c 128,-1,57
 790 291 790 291 795 314 c 1,58,-1
 811 224 l 1,59,60
 796 206 796 206 778.5 193 c 128,-1,61
 761 180 761 180 739.5 173.5 c 128,-1,62
 718 167 718 167 690 167 c 0,63,64
 652 167 652 167 622 182 c 128,-1,65
 592 197 592 197 575 224.5 c 128,-1,66
 558 252 558 252 558 290 c 0,67,68
 558 346 558 346 593.5 377.5 c 128,-1,69
 629 409 629 409 688 409 c 0,70,71
 694 409 694 409 701.5 408 c 128,-1,72
 709 407 709 407 718 405 c 128,-1,73
 727 403 727 403 735 400 c 2,74,-1
 723 399 l 1,75,76
 703 409 703 409 672 415 c 128,-1,77
 641 421 641 421 609.5 424.5 c 128,-1,78
 578 428 578 428 556 428 c 1,79,-1
 576 496 l 1,80,81
 653 489 653 489 709 467.5 c 128,-1,82
 765 446 765 446 800.5 413 c 128,-1,83
 836 380 836 380 853 337.5 c 128,-1,84
 870 295 870 295 870 245 c 0,85,86
 870 190 870 190 849.5 143 c 128,-1,87
 829 96 829 96 786.5 61.5 c 128,-1,88
 744 27 744 27 678 7.5 c 128,-1,89
 612 -12 612 -12 521 -12 c 0,0,1
536 425 m 0,90,91
 507 425 507 425 480.5 436 c 128,-1,92
 454 447 454 447 432 477.5 c 128,-1,93
 410 508 410 508 394 564 c 1,94,-1
 477 591 l 1,95,96
 492 536 492 536 506 518 c 128,-1,97
 520 500 520 500 542 500 c 0,98,99
 562 500 562 500 579.5 512.5 c 128,-1,100
 597 525 597 525 629 565 c 2,101,-1
 660 605 l 2,102,103
 694 649 694 649 722.5 675 c 128,-1,104
 751 701 751 701 783 713 c 128,-1,105
 815 725 815 725 859 725 c 1,106,-1
 865 648 l 1,107,108
 830 646 830 646 806.5 637 c 128,-1,109
 783 628 783 628 763.5 608.5 c 128,-1,110
 744 589 744 589 718 556 c 2,111,-1
 695 526 l 2,112,113
 667 490 667 490 642 468 c 128,-1,114
 617 446 617 446 591.5 435.5 c 128,-1,115
 566 425 566 425 536 425 c 0,90,91
EndSplineSet
EndChar

StartChar: U
Encoding: 85 85 62
Width: 1033
Flags: W
LayerCount: 2
Fore
SplineSet
791.5 252 m 2,0,1
 791.5 178 791.5 178 761.5 118.5 c 128,-1,2
 731.5 59 731.5 59 670 24.5 c 128,-1,3
 608.5 -10 608.5 -10 513.5 -10 c 0,4,5
 380.5 -10 380.5 -10 311 62.5 c 128,-1,6
 241.5 135 241.5 135 241.5 254 c 2,7,-1
 241.5 714 l 1,8,-1
 331.5 714 l 1,9,-1
 331.5 251 l 2,10,11
 331.5 164 331.5 164 378 116 c 128,-1,12
 424.5 68 424.5 68 518.5 68 c 0,13,14
 583.5 68 583.5 68 624 91.5 c 128,-1,15
 664.5 115 664.5 115 683.5 156.5 c 128,-1,16
 702.5 198 702.5 198 702.5 252 c 2,17,-1
 702.5 714 l 1,18,-1
 791.5 714 l 1,19,-1
 791.5 252 l 2,0,1
EndSplineSet
EndChar

StartChar: V
Encoding: 86 86 63
Width: 1033
Flags: W
LayerCount: 2
Fore
SplineSet
816.5 714 m 1,0,-1
 561.5 0 l 1,1,-1
 471.5 0 l 1,2,-1
 216.5 714 l 1,3,-1
 310.5 714 l 1,4,-1
 471.5 256 l 2,5,6
 482.5 227 482.5 227 490.5 200 c 128,-1,7
 498.5 173 498.5 173 505 148.5 c 128,-1,8
 511.5 124 511.5 124 516.5 100 c 1,9,10
 521.5 124 521.5 124 528 149 c 128,-1,11
 534.5 174 534.5 174 543 201 c 128,-1,12
 551.5 228 551.5 228 561.5 258 c 2,13,-1
 721.5 714 l 1,14,-1
 816.5 714 l 1,0,-1
EndSplineSet
EndChar

StartChar: W
Encoding: 87 87 64
Width: 1033
Flags: W
LayerCount: 2
Fore
SplineSet
969 714 m 1,0,-1
 779 0 l 1,1,-1
 688 0 l 1,2,-1
 549 468 l 2,3,4
 543 489 543 489 537 511 c 128,-1,5
 531 533 531 533 526 553 c 128,-1,6
 521 573 521 573 517.5 587.5 c 128,-1,7
 514 602 514 602 513 609 c 1,8,9
 512 602 512 602 509.5 587.5 c 128,-1,10
 507 573 507 573 502 553 c 128,-1,11
 497 533 497 533 491.5 510.5 c 128,-1,12
 486 488 486 488 479 465 c 2,13,-1
 344 0 l 1,14,-1
 253 0 l 1,15,-1
 64 714 l 1,16,-1
 158 714 l 1,17,-1
 269 278 l 2,18,19
 275 255 275 255 280 232.5 c 128,-1,20
 285 210 285 210 289.5 188.5 c 128,-1,21
 294 167 294 167 297 147 c 128,-1,22
 300 127 300 127 303 108 c 1,23,24
 306 128 306 128 309.5 149 c 128,-1,25
 313 170 313 170 318 192.5 c 128,-1,26
 323 215 323 215 329 238 c 128,-1,27
 335 261 335 261 341 283 c 2,28,-1
 467 714 l 1,29,-1
 560 714 l 1,30,-1
 691 280 l 2,31,32
 698 257 698 257 704 233.5 c 128,-1,33
 710 210 710 210 715 188 c 128,-1,34
 720 166 720 166 723.5 145.5 c 128,-1,35
 727 125 727 125 730 108 c 1,36,37
 733 133 733 133 738 160.5 c 128,-1,38
 743 188 743 188 750 218 c 128,-1,39
 757 248 757 248 765 279 c 2,40,-1
 875 714 l 1,41,-1
 969 714 l 1,0,-1
EndSplineSet
EndChar

StartChar: X
Encoding: 88 88 65
Width: 1033
Flags: W
LayerCount: 2
Fore
SplineSet
805.5 0 m 1,0,-1
 703.5 0 l 1,1,-1
 514.5 310 l 1,2,-1
 322.5 0 l 1,3,-1
 227.5 0 l 1,4,-1
 464.5 372 l 1,5,-1
 242.5 714 l 1,6,-1
 342.5 714 l 1,7,-1
 517.5 434 l 1,8,-1
 693.5 714 l 1,9,-1
 788.5 714 l 1,10,-1
 567.5 374 l 1,11,-1
 805.5 0 l 1,0,-1
EndSplineSet
EndChar

StartChar: Y
Encoding: 89 89 66
Width: 1033
Flags: W
LayerCount: 2
Fore
SplineSet
516.5 363 m 1,0,-1
 702.5 714 l 1,1,-1
 799.5 714 l 1,2,-1
 561.5 277 l 1,3,-1
 561.5 0 l 1,4,-1
 471.5 0 l 1,5,-1
 471.5 273 l 1,6,-1
 233.5 714 l 1,7,-1
 331.5 714 l 1,8,-1
 516.5 363 l 1,0,-1
EndSplineSet
EndChar

StartChar: Z
Encoding: 90 90 67
Width: 1033
Flags: W
LayerCount: 2
Fore
SplineSet
764 0 m 1,0,-1
 269 0 l 1,1,-1
 269 68 l 1,2,-1
 645 634 l 1,3,-1
 281 634 l 1,4,-1
 281 714 l 1,5,-1
 754 714 l 1,6,-1
 754 646 l 1,7,-1
 378 80 l 1,8,-1
 764 80 l 1,9,-1
 764 0 l 1,0,-1
EndSplineSet
EndChar

StartChar: a
Encoding: 97 97 68
Width: 1033
Flags: W
LayerCount: 2
Fore
SplineSet
541.5 545 m 0,0,1
 639.5 545 639.5 545 686.5 502 c 128,-1,2
 733.5 459 733.5 459 733.5 365 c 2,3,-1
 733.5 0 l 1,4,-1
 669.5 0 l 1,5,-1
 652.5 76 l 1,6,-1
 648.5 76 l 1,7,8
 625.5 47 625.5 47 601 27.5 c 128,-1,9
 576.5 8 576.5 8 545 -1 c 128,-1,10
 513.5 -10 513.5 -10 468.5 -10 c 0,11,12
 420.5 -10 420.5 -10 382 7 c 128,-1,13
 343.5 24 343.5 24 321.5 59.5 c 128,-1,14
 299.5 95 299.5 95 299.5 149 c 0,15,16
 299.5 229 299.5 229 362.5 272.5 c 128,-1,17
 425.5 316 425.5 316 556.5 320 c 2,18,-1
 647.5 323 l 1,19,-1
 647.5 355 l 2,20,21
 647.5 422 647.5 422 618.5 448 c 128,-1,22
 589.5 474 589.5 474 536.5 474 c 0,23,24
 494.5 474 494.5 474 456.5 461.5 c 128,-1,25
 418.5 449 418.5 449 385.5 433 c 1,26,-1
 358.5 499 l 1,27,28
 393.5 518 393.5 518 441.5 531.5 c 128,-1,29
 489.5 545 489.5 545 541.5 545 c 0,0,1
567.5 259 m 2,30,31
 467.5 255 467.5 255 429 227 c 128,-1,32
 390.5 199 390.5 199 390.5 148 c 0,33,34
 390.5 103 390.5 103 418 82 c 128,-1,35
 445.5 61 445.5 61 488.5 61 c 0,36,37
 556.5 61 556.5 61 601.5 98.5 c 128,-1,38
 646.5 136 646.5 136 646.5 214 c 2,39,-1
 646.5 262 l 1,40,-1
 567.5 259 l 2,30,31
EndSplineSet
EndChar

StartChar: b
Encoding: 98 98 69
Width: 1033
Flags: W
LayerCount: 2
Fore
SplineSet
367 575 m 2,0,1
 367 541 367 541 365.5 511.5 c 128,-1,2
 364 482 364 482 362 465 c 1,3,-1
 367 465 l 1,4,5
 390 499 390 499 430 522 c 128,-1,6
 470 545 470 545 533 545 c 0,7,8
 633 545 633 545 693.5 475.5 c 128,-1,9
 754 406 754 406 754 268 c 0,10,11
 754 176 754 176 726.5 114 c 128,-1,12
 699 52 699 52 649 21 c 128,-1,13
 599 -10 599 -10 533 -10 c 0,14,15
 470 -10 470 -10 430 13 c 128,-1,16
 390 36 390 36 367 68 c 1,17,-1
 360 68 l 1,18,-1
 342 0 l 1,19,-1
 279 0 l 1,20,-1
 279 760 l 1,21,-1
 367 760 l 1,22,-1
 367 575 l 2,0,1
518 472 m 0,23,24
 461 472 461 472 428 450.5 c 128,-1,25
 395 429 395 429 381 384.5 c 128,-1,26
 367 340 367 340 367 271 c 2,27,-1
 367 267 l 2,28,29
 367 168 367 168 399.5 115.5 c 128,-1,30
 432 63 432 63 520 63 c 0,31,32
 592 63 592 63 627.5 116 c 128,-1,33
 663 169 663 169 663 269 c 0,34,35
 663 370 663 370 627.5 421 c 128,-1,36
 592 472 592 472 518 472 c 0,23,24
EndSplineSet
EndChar

StartChar: c
Encoding: 99 99 70
Width: 1033
Flags: W
AnchorPoint: "Anchor-1" 516.5 536 basechar 0
AnchorPoint: "Anchor-0" 516.5 0 basechar 0
LayerCount: 2
Fore
SplineSet
572.5 -10 m 0,0,1
 454.5 -10 454.5 -10 389.5 57 c 128,-1,2
 324.5 124 324.5 124 324.5 245 c 0,3,4
 324.5 325 324.5 325 353.5 380.5 c 128,-1,5
 382.5 436 382.5 436 436.5 465 c 1,6,-1
 303.5 465 l 1,7,-1
 303.5 537 l 1,8,-1
 729.5 537 l 1,9,-1
 729.5 465 l 1,10,-1
 616.5 465 l 2,11,12
 522.5 465 522.5 465 469 411.5 c 128,-1,13
 415.5 358 415.5 358 415.5 252 c 0,14,15
 415.5 165 415.5 165 458.5 114.5 c 128,-1,16
 501.5 64 501.5 64 581.5 64 c 0,17,18
 618.5 64 618.5 64 652.5 73.5 c 128,-1,19
 686.5 83 686.5 83 718.5 99 c 1,20,-1
 718.5 21 l 1,21,22
 689.5 5 689.5 5 654.5 -2.5 c 128,-1,23
 619.5 -10 619.5 -10 572.5 -10 c 0,0,1
EndSplineSet
EndChar

StartChar: d
Encoding: 100 100 71
Width: 1033
Flags: W
LayerCount: 2
Fore
SplineSet
499 -10 m 0,0,1
 399 -10 399 -10 339 59.5 c 128,-1,2
 279 129 279 129 279 267 c 256,3,4
 279 405 279 405 339.5 475.5 c 128,-1,5
 400 546 400 546 500 546 c 0,6,7
 542 546 542 546 573 535.5 c 128,-1,8
 604 525 604 525 627 507 c 128,-1,9
 650 489 650 489 666 467 c 1,10,-1
 672 467 l 1,11,12
 671 480 671 480 668.5 505.5 c 128,-1,13
 666 531 666 531 666 546 c 2,14,-1
 666 760 l 1,15,-1
 754 760 l 1,16,-1
 754 0 l 1,17,-1
 683 0 l 1,18,-1
 670 72 l 1,19,-1
 666 72 l 1,20,21
 650 49 650 49 627 30.5 c 128,-1,22
 604 12 604 12 572.5 1 c 128,-1,23
 541 -10 541 -10 499 -10 c 0,0,1
513 63 m 0,24,25
 598 63 598 63 632.5 109.5 c 128,-1,26
 667 156 667 156 667 250 c 2,27,-1
 667 266 l 2,28,29
 667 366 667 366 634 419.5 c 128,-1,30
 601 473 601 473 512 473 c 0,31,32
 441 473 441 473 405.5 416.5 c 128,-1,33
 370 360 370 360 370 265 c 0,34,35
 370 169 370 169 405.5 116 c 128,-1,36
 441 63 441 63 513 63 c 0,24,25
EndSplineSet
EndChar

StartChar: e
Encoding: 101 101 72
Width: 1033
Flags: W
LayerCount: 2
Fore
SplineSet
524.5 546 m 0,0,1
 593.5 546 593.5 546 643 516 c 128,-1,2
 692.5 486 692.5 486 719 431.5 c 128,-1,3
 745.5 377 745.5 377 745.5 304 c 2,4,-1
 745.5 251 l 1,5,-1
 378.5 251 l 1,6,7
 380.5 160 380.5 160 425 112.5 c 128,-1,8
 469.5 65 469.5 65 549.5 65 c 0,9,10
 600.5 65 600.5 65 640 74.5 c 128,-1,11
 679.5 84 679.5 84 721.5 102 c 1,12,-1
 721.5 25 l 1,13,14
 680.5 7 680.5 7 640.5 -1.5 c 128,-1,15
 600.5 -10 600.5 -10 545.5 -10 c 0,16,17
 469.5 -10 469.5 -10 411 21 c 128,-1,18
 352.5 52 352.5 52 320 113.5 c 128,-1,19
 287.5 175 287.5 175 287.5 264 c 0,20,21
 287.5 352 287.5 352 317 415 c 128,-1,22
 346.5 478 346.5 478 400 512 c 128,-1,23
 453.5 546 453.5 546 524.5 546 c 0,0,1
523.5 474 m 0,24,25
 460.5 474 460.5 474 424 433.5 c 128,-1,26
 387.5 393 387.5 393 380.5 321 c 1,27,-1
 653.5 321 l 1,28,29
 653.5 367 653.5 367 639.5 401 c 128,-1,30
 625.5 435 625.5 435 597 454.5 c 128,-1,31
 568.5 474 568.5 474 523.5 474 c 0,24,25
EndSplineSet
EndChar

StartChar: f
Encoding: 102 102 73
Width: 1033
Flags: W
LayerCount: 2
Fore
SplineSet
647.5 468 m 1,0,-1
 512.5 468 l 1,1,-1
 512.5 0 l 1,2,-1
 424.5 0 l 1,3,-1
 424.5 468 l 1,4,-1
 330.5 468 l 1,5,-1
 330.5 509 l 1,6,-1
 424.5 539 l 1,7,-1
 424.5 570 l 2,8,9
 424.5 639 424.5 639 445 682 c 128,-1,10
 465.5 725 465.5 725 504.5 745 c 128,-1,11
 543.5 765 543.5 765 598.5 765 c 0,12,13
 630.5 765 630.5 765 657 759.5 c 128,-1,14
 683.5 754 683.5 754 702.5 747 c 1,15,-1
 679.5 678 l 1,16,17
 663.5 683 663.5 683 642.5 688 c 128,-1,18
 621.5 693 621.5 693 599.5 693 c 0,19,20
 555.5 693 555.5 693 534 663.5 c 128,-1,21
 512.5 634 512.5 634 512.5 571 c 2,22,-1
 512.5 536 l 1,23,-1
 647.5 536 l 1,24,-1
 647.5 468 l 1,0,-1
EndSplineSet
EndChar

StartChar: g
Encoding: 103 103 74
Width: 1033
Flags: W
LayerCount: 2
Fore
SplineSet
499 546 m 0,0,1
 552 546 552 546 594.5 526 c 128,-1,2
 637 506 637 506 667 465 c 1,3,-1
 672 465 l 1,4,-1
 684 536 l 1,5,-1
 754 536 l 1,6,-1
 754 -9 l 2,7,8
 754 -85 754 -85 728 -136.5 c 128,-1,9
 702 -188 702 -188 649 -214 c 128,-1,10
 596 -240 596 -240 514 -240 c 0,11,12
 456 -240 456 -240 407.5 -231.5 c 128,-1,13
 359 -223 359 -223 321 -206 c 1,14,-1
 321 -125 l 1,15,16
 359 -145 359 -145 410 -156 c 128,-1,17
 461 -167 461 -167 519 -167 c 0,18,19
 588 -167 588 -167 627.5 -126.5 c 128,-1,20
 667 -86 667 -86 667 -16 c 2,21,-1
 667 5 l 2,22,23
 667 17 667 17 668 39.5 c 128,-1,24
 669 62 669 62 670 71 c 1,25,-1
 666 71 l 1,26,27
 638 30 638 30 596.5 10 c 128,-1,28
 555 -10 555 -10 500 -10 c 0,29,30
 396 -10 396 -10 337.5 63 c 128,-1,31
 279 136 279 136 279 267 c 0,32,33
 279 395 279 395 337.5 470.5 c 128,-1,34
 396 546 396 546 499 546 c 0,0,1
511 472 m 0,35,36
 466 472 466 472 434.5 448 c 128,-1,37
 403 424 403 424 386.5 378 c 128,-1,38
 370 332 370 332 370 266 c 0,39,40
 370 167 370 167 406.5 114.5 c 128,-1,41
 443 62 443 62 513 62 c 0,42,43
 554 62 554 62 583 72.5 c 128,-1,44
 612 83 612 83 631 105.5 c 128,-1,45
 650 128 650 128 659 163 c 128,-1,46
 668 198 668 198 668 246 c 2,47,-1
 668 267 l 2,48,49
 668 340 668 340 651.5 385 c 128,-1,50
 635 430 635 430 600 451 c 128,-1,51
 565 472 565 472 511 472 c 0,35,36
EndSplineSet
EndChar

StartChar: h
Encoding: 104 104 75
Width: 1033
Flags: W
LayerCount: 2
Fore
SplineSet
378.5 537 m 2,0,1
 378.5 518 378.5 518 377 498 c 128,-1,2
 375.5 478 375.5 478 373.5 462 c 1,3,-1
 379.5 462 l 1,4,5
 396.5 490 396.5 490 422.5 508 c 128,-1,6
 448.5 526 448.5 526 480.5 535.5 c 128,-1,7
 512.5 545 512.5 545 546.5 545 c 0,8,9
 611.5 545 611.5 545 655 524.5 c 128,-1,10
 698.5 504 698.5 504 720.5 461 c 128,-1,11
 742.5 418 742.5 418 742.5 349 c 2,12,-1
 742.5 0 l 1,13,-1
 655.5 0 l 1,14,-1
 655.5 343 l 2,15,16
 655.5 408 655.5 408 626.5 440 c 128,-1,17
 597.5 472 597.5 472 535.5 472 c 0,18,19
 475.5 472 475.5 472 441.5 449.5 c 128,-1,20
 407.5 427 407.5 427 393 383.5 c 128,-1,21
 378.5 340 378.5 340 378.5 277 c 2,22,-1
 378.5 0 l 1,23,-1
 290.5 0 l 1,24,-1
 290.5 760 l 1,25,-1
 378.5 760 l 1,26,-1
 378.5 537 l 2,0,1
EndSplineSet
EndChar

StartChar: i
Encoding: 105 105 76
Width: 1033
Flags: W
LayerCount: 2
Fore
SplineSet
560 536 m 1,0,-1
 560 0 l 1,1,-1
 472 0 l 1,2,-1
 472 536 l 1,3,-1
 560 536 l 1,0,-1
517 737 m 0,4,5
 537 737 537 737 552.5 723.5 c 128,-1,6
 568 710 568 710 568 681 c 0,7,8
 568 653 568 653 552.5 639 c 128,-1,9
 537 625 537 625 517 625 c 0,10,11
 495 625 495 625 480 639 c 128,-1,12
 465 653 465 653 465 681 c 0,13,14
 465 710 465 710 480 723.5 c 128,-1,15
 495 737 495 737 517 737 c 0,4,5
EndSplineSet
Substitution2: "Single Substitution lookup 97 subtable" dotlessi
Substitution2: "Single Substitution lookup 96 subtable" dotlessi
EndChar

StartChar: j
Encoding: 106 106 77
Width: 1033
Flags: W
AnchorPoint: "Anchor-1" 516.5 536 basechar 0
AnchorPoint: "Anchor-0" 516.5 0 basechar 0
LayerCount: 2
Fore
SplineSet
705.5 536 m 1,0,-1
 705.5 470 l 1,1,-1
 594.5 313 l 1,2,-1
 695.5 313 l 1,3,-1
 695.5 243 l 1,4,-1
 544.5 243 l 1,5,-1
 421.5 68 l 1,6,-1
 712.5 68 l 1,7,-1
 712.5 0 l 1,8,-1
 320.5 0 l 1,9,-1
 320.5 58 l 1,10,-1
 450.5 243 l 1,11,-1
 338.5 243 l 1,12,-1
 338.5 313 l 1,13,-1
 499.5 313 l 1,14,-1
 608.5 468 l 1,15,-1
 337.5 468 l 1,16,-1
 337.5 536 l 1,17,-1
 705.5 536 l 1,0,-1
EndSplineSet
Substitution2: "Single Substitution lookup 97 subtable" uni0237
Substitution2: "Single Substitution lookup 96 subtable" uni0237
EndChar

StartChar: k
Encoding: 107 107 78
Width: 1033
Flags: W
LayerCount: 2
Fore
SplineSet
383.5 363 m 2,0,1
 383.5 347 383.5 347 382 321 c 128,-1,2
 380.5 295 380.5 295 379.5 276 c 1,3,-1
 383.5 276 l 1,4,5
 389.5 284 389.5 284 401.5 299 c 128,-1,6
 413.5 314 413.5 314 426 329.5 c 128,-1,7
 438.5 345 438.5 345 447.5 355 c 2,8,-1
 618.5 536 l 1,9,-1
 721.5 536 l 1,10,-1
 504.5 307 l 1,11,-1
 736.5 0 l 1,12,-1
 630.5 0 l 1,13,-1
 444.5 250 l 1,14,-1
 383.5 197 l 1,15,-1
 383.5 0 l 1,16,-1
 296.5 0 l 1,17,-1
 296.5 760 l 1,18,-1
 383.5 760 l 1,19,-1
 383.5 363 l 2,0,1
EndSplineSet
EndChar

StartChar: l
Encoding: 108 108 79
Width: 1033
Flags: W
LayerCount: 2
Fore
SplineSet
560.5 0 m 1,0,-1
 472.5 0 l 1,1,-1
 472.5 760 l 1,2,-1
 560.5 760 l 1,3,-1
 560.5 0 l 1,0,-1
EndSplineSet
EndChar

StartChar: m
Encoding: 109 109 80
Width: 1033
Flags: W
LayerCount: 2
Fore
SplineSet
720 546 m 0,0,1
 811 546 811 546 856 499.5 c 128,-1,2
 901 453 901 453 901 349 c 2,3,-1
 901 0 l 1,4,-1
 814 0 l 1,5,-1
 814 345 l 2,6,7
 814 408 814 408 787.5 440 c 128,-1,8
 761 472 761 472 705 472 c 0,9,10
 627 472 627 472 593.5 427 c 128,-1,11
 560 382 560 382 560 296 c 2,12,-1
 560 0 l 1,13,-1
 473 0 l 1,14,-1
 473 345 l 2,15,16
 473 387 473 387 461 415.5 c 128,-1,17
 449 444 449 444 425 458 c 128,-1,18
 401 472 401 472 363 472 c 0,19,20
 309 472 309 472 278 449.5 c 128,-1,21
 247 427 247 427 233.5 384 c 128,-1,22
 220 341 220 341 220 278 c 2,23,-1
 220 0 l 1,24,-1
 132 0 l 1,25,-1
 132 536 l 1,26,-1
 203 536 l 1,27,-1
 216 463 l 1,28,-1
 221 463 l 1,29,30
 238 491 238 491 262.5 509.5 c 128,-1,31
 287 528 287 528 317 537 c 128,-1,32
 347 546 347 546 379 546 c 0,33,34
 441 546 441 546 482.5 524 c 128,-1,35
 524 502 524 502 543 456 c 1,36,-1
 548 456 l 1,37,38
 575 502 575 502 621.5 524 c 128,-1,39
 668 546 668 546 720 546 c 0,0,1
EndSplineSet
EndChar

StartChar: n
Encoding: 110 110 81
Width: 1033
Flags: W
LayerCount: 2
Fore
SplineSet
548.5 546 m 0,0,1
 644.5 546 644.5 546 693.5 499.5 c 128,-1,2
 742.5 453 742.5 453 742.5 349 c 2,3,-1
 742.5 0 l 1,4,-1
 655.5 0 l 1,5,-1
 655.5 343 l 2,6,7
 655.5 408 655.5 408 626.5 440 c 128,-1,8
 597.5 472 597.5 472 535.5 472 c 0,9,10
 446.5 472 446.5 472 412.5 422 c 128,-1,11
 378.5 372 378.5 372 378.5 278 c 2,12,-1
 378.5 0 l 1,13,-1
 290.5 0 l 1,14,-1
 290.5 536 l 1,15,-1
 361.5 536 l 1,16,-1
 374.5 463 l 1,17,-1
 379.5 463 l 1,18,19
 397.5 491 397.5 491 424 509.5 c 128,-1,20
 450.5 528 450.5 528 482.5 537 c 128,-1,21
 514.5 546 514.5 546 548.5 546 c 0,0,1
EndSplineSet
EndChar

StartChar: o
Encoding: 111 111 82
Width: 1033
Flags: W
LayerCount: 2
Fore
SplineSet
764.5 269 m 0,0,1
 764.5 202 764.5 202 747 150.5 c 128,-1,2
 729.5 99 729.5 99 697 63 c 128,-1,3
 664.5 27 664.5 27 618 8.5 c 128,-1,4
 571.5 -10 571.5 -10 514.5 -10 c 0,5,6
 461.5 -10 461.5 -10 416.5 8.5 c 128,-1,7
 371.5 27 371.5 27 338.5 63 c 128,-1,8
 305.5 99 305.5 99 287 150.5 c 128,-1,9
 268.5 202 268.5 202 268.5 269 c 0,10,11
 268.5 358 268.5 358 298.5 419.5 c 128,-1,12
 328.5 481 328.5 481 384.5 513.5 c 128,-1,13
 440.5 546 440.5 546 517.5 546 c 0,14,15
 590.5 546 590.5 546 646 513.5 c 128,-1,16
 701.5 481 701.5 481 733 419.5 c 128,-1,17
 764.5 358 764.5 358 764.5 269 c 0,0,1
359.5 269 m 0,18,19
 359.5 206 359.5 206 376 159.5 c 128,-1,20
 392.5 113 392.5 113 427.5 88 c 128,-1,21
 462.5 63 462.5 63 516.5 63 c 256,22,23
 570.5 63 570.5 63 605.5 88 c 128,-1,24
 640.5 113 640.5 113 657 159.5 c 128,-1,25
 673.5 206 673.5 206 673.5 269 c 0,26,27
 673.5 333 673.5 333 656.5 378 c 128,-1,28
 639.5 423 639.5 423 605 447.5 c 128,-1,29
 570.5 472 570.5 472 515.5 472 c 0,30,31
 433.5 472 433.5 472 396.5 418 c 128,-1,32
 359.5 364 359.5 364 359.5 269 c 0,18,19
EndSplineSet
EndChar

StartChar: p
Encoding: 112 112 83
Width: 1033
Flags: W
LayerCount: 2
Fore
SplineSet
534 546 m 0,0,1
 633 546 633 546 693.5 477 c 128,-1,2
 754 408 754 408 754 269 c 0,3,4
 754 178 754 178 726.5 115.5 c 128,-1,5
 699 53 699 53 649.5 21.5 c 128,-1,6
 600 -10 600 -10 533 -10 c 0,7,8
 492 -10 492 -10 460 1 c 128,-1,9
 428 12 428 12 405.5 29.5 c 128,-1,10
 383 47 383 47 367 68 c 1,11,-1
 361 68 l 1,12,13
 363 51 363 51 365 25 c 128,-1,14
 367 -1 367 -1 367 -20 c 2,15,-1
 367 -240 l 1,16,-1
 279 -240 l 1,17,-1
 279 536 l 1,18,-1
 351 536 l 1,19,-1
 363 463 l 1,20,-1
 367 463 l 1,21,22
 383 486 383 486 405.5 505 c 128,-1,23
 428 524 428 524 459.5 535 c 128,-1,24
 491 546 491 546 534 546 c 0,0,1
518 472 m 0,25,26
 464 472 464 472 431 451.5 c 128,-1,27
 398 431 398 431 383 390 c 128,-1,28
 368 349 368 349 367 286 c 2,29,-1
 367 269 l 2,30,31
 367 203 367 203 381 157 c 128,-1,32
 395 111 395 111 428.5 87 c 128,-1,33
 462 63 462 63 520 63 c 0,34,35
 569 63 569 63 600.5 90 c 128,-1,36
 632 117 632 117 647.5 163.5 c 128,-1,37
 663 210 663 210 663 270 c 0,38,39
 663 362 663 362 627.5 417 c 128,-1,40
 592 472 592 472 518 472 c 0,25,26
EndSplineSet
EndChar

StartChar: q
Encoding: 113 113 84
Width: 1033
Flags: W
AnchorPoint: "Anchor-1" 478.5 765 basechar 0
AnchorPoint: "Anchor-0" 478.5 0 basechar 0
LayerCount: 2
Fore
SplineSet
417.5 765 m 0,0,1
 436.5 765 436.5 765 454.5 761 c 128,-1,2
 472.5 757 472.5 757 482.5 752 c 1,3,-1
 482.5 679 l 1,4,5
 475.5 682 475.5 682 461.5 685.5 c 128,-1,6
 447.5 689 447.5 689 430.5 689 c 0,7,8
 408.5 689 408.5 689 396 676 c 128,-1,9
 383.5 663 383.5 663 383.5 631 c 2,10,-1
 383.5 363 l 2,11,12
 383.5 347 383.5 347 382.5 321 c 128,-1,13
 381.5 295 381.5 295 379.5 276 c 1,14,-1
 383.5 276 l 1,15,16
 389.5 285 389.5 285 401.5 299.5 c 128,-1,17
 413.5 314 413.5 314 426 329.5 c 128,-1,18
 438.5 345 438.5 345 447.5 355 c 2,19,-1
 618.5 536 l 1,20,-1
 721.5 536 l 1,21,-1
 504.5 307 l 1,22,-1
 736.5 0 l 1,23,-1
 630.5 0 l 1,24,-1
 444.5 250 l 1,25,-1
 383.5 197 l 1,26,-1
 383.5 0 l 1,27,-1
 296.5 0 l 1,28,-1
 296.5 625 l 2,29,30
 296.5 765 296.5 765 417.5 765 c 0,0,1
EndSplineSet
EndChar

StartChar: r
Encoding: 114 114 85
Width: 1033
Flags: W
LayerCount: 2
Fore
SplineSet
610 546 m 0,0,1
 625 546 625 546 642.5 544.5 c 128,-1,2
 660 543 660 543 673 540 c 1,3,-1
 662 459 l 1,4,5
 649 462 649 462 633.5 464 c 128,-1,6
 618 466 618 466 604 466 c 0,7,8
 573 466 573 466 545 453 c 128,-1,9
 517 440 517 440 495 416.5 c 128,-1,10
 473 393 473 393 460.5 360 c 128,-1,11
 448 327 448 327 448 286 c 2,12,-1
 448 0 l 1,13,-1
 360 0 l 1,14,-1
 360 536 l 1,15,-1
 432 536 l 1,16,-1
 442 438 l 1,17,-1
 446 438 l 1,18,19
 463 468 463 468 487 492.5 c 128,-1,20
 511 517 511 517 542 531.5 c 128,-1,21
 573 546 573 546 610 546 c 0,0,1
EndSplineSet
EndChar

StartChar: s
Encoding: 115 115 86
Width: 1033
Flags: W
LayerCount: 2
Fore
SplineSet
708 148 m 0,0,1
 708 96 708 96 682 61 c 128,-1,2
 656 26 656 26 608 8 c 128,-1,3
 560 -10 560 -10 494 -10 c 0,4,5
 438 -10 438 -10 397.5 -1 c 128,-1,6
 357 8 357 8 326 24 c 1,7,-1
 326 104 l 1,8,9
 358 88 358 88 403.5 74.5 c 128,-1,10
 449 61 449 61 496 61 c 0,11,12
 563 61 563 61 593 82.5 c 128,-1,13
 623 104 623 104 623 140 c 0,14,15
 623 160 623 160 612 176 c 128,-1,16
 601 192 601 192 572.5 208 c 128,-1,17
 544 224 544 224 491 244 c 0,18,19
 439 264 439 264 402 284 c 128,-1,20
 365 304 365 304 345 332 c 128,-1,21
 325 360 325 360 325 404 c 0,22,23
 325 472 325 472 380.5 509 c 128,-1,24
 436 546 436 546 526 546 c 0,25,26
 575 546 575 546 617.5 536.5 c 128,-1,27
 660 527 660 527 697 510 c 1,28,-1
 667 440 l 1,29,30
 633 454 633 454 596 464 c 128,-1,31
 559 474 559 474 520 474 c 0,32,33
 466 474 466 474 437.5 456.5 c 128,-1,34
 409 439 409 439 409 409 c 0,35,36
 409 387 409 387 422 371.5 c 128,-1,37
 435 356 435 356 465.5 341.5 c 128,-1,38
 496 327 496 327 547 307 c 0,39,40
 598 288 598 288 634 268 c 128,-1,41
 670 248 670 248 689 219.5 c 128,-1,42
 708 191 708 191 708 148 c 0,0,1
EndSplineSet
EndChar

StartChar: t
Encoding: 116 116 87
Width: 1033
Flags: W
LayerCount: 2
Fore
SplineSet
603 62 m 0,0,1
 623 62 623 62 644 65.5 c 128,-1,2
 665 69 665 69 678 73 c 1,3,-1
 678 6 l 1,4,5
 664 -1 664 -1 638 -5.5 c 128,-1,6
 612 -10 612 -10 588 -10 c 0,7,8
 546 -10 546 -10 510.5 4.5 c 128,-1,9
 475 19 475 19 453 55 c 128,-1,10
 431 91 431 91 431 156 c 2,11,-1
 431 468 l 1,12,-1
 355 468 l 1,13,-1
 355 510 l 1,14,-1
 432 545 l 1,15,-1
 467 659 l 1,16,-1
 519 659 l 1,17,-1
 519 536 l 1,18,-1
 674 536 l 1,19,-1
 674 468 l 1,20,-1
 519 468 l 1,21,-1
 519 158 l 2,22,23
 519 109 519 109 542.5 85.5 c 128,-1,24
 566 62 566 62 603 62 c 0,0,1
EndSplineSet
EndChar

StartChar: u
Encoding: 117 117 88
Width: 1033
Flags: W
LayerCount: 2
Fore
SplineSet
743.5 536 m 1,0,-1
 743.5 0 l 1,1,-1
 671.5 0 l 1,2,-1
 658.5 71 l 1,3,-1
 654.5 71 l 1,4,5
 637.5 43 637.5 43 610.5 25 c 128,-1,6
 583.5 7 583.5 7 551.5 -1.5 c 128,-1,7
 519.5 -10 519.5 -10 484.5 -10 c 0,8,9
 420.5 -10 420.5 -10 377 10.5 c 128,-1,10
 333.5 31 333.5 31 311.5 74 c 128,-1,11
 289.5 117 289.5 117 289.5 185 c 2,12,-1
 289.5 536 l 1,13,-1
 378.5 536 l 1,14,-1
 378.5 191 l 2,15,16
 378.5 127 378.5 127 407.5 95 c 128,-1,17
 436.5 63 436.5 63 497.5 63 c 0,18,19
 557.5 63 557.5 63 592 85.5 c 128,-1,20
 626.5 108 626.5 108 641 151.5 c 128,-1,21
 655.5 195 655.5 195 655.5 257 c 2,22,-1
 655.5 536 l 1,23,-1
 743.5 536 l 1,0,-1
EndSplineSet
EndChar

StartChar: v
Encoding: 118 118 89
Width: 1033
Flags: W
LayerCount: 2
Fore
SplineSet
465.5 0 m 1,0,-1
 262.5 536 l 1,1,-1
 356.5 536 l 1,2,-1
 470.5 220 l 2,3,4
 478.5 198 478.5 198 487.5 171 c 128,-1,5
 496.5 144 496.5 144 503.5 119.5 c 128,-1,6
 510.5 95 510.5 95 513.5 78 c 1,7,-1
 517.5 78 l 1,8,9
 521.5 95 521.5 95 529 120 c 128,-1,10
 536.5 145 536.5 145 546 172 c 128,-1,11
 555.5 199 555.5 199 562.5 220 c 2,12,-1
 676.5 536 l 1,13,-1
 770.5 536 l 1,14,-1
 566.5 0 l 1,15,-1
 465.5 0 l 1,0,-1
EndSplineSet
EndChar

StartChar: w
Encoding: 119 119 90
Width: 1033
Flags: W
AnchorPoint: "Anchor-1" 507 536 basechar 0
AnchorPoint: "Anchor-0" 506 0 basechar 0
LayerCount: 2
Fore
SplineSet
507 682 m 4,0,1
 527 682 527 682 542.5 668.5 c 132,-1,2
 558 655 558 655 558 626 c 4,3,4
 558 598 558 598 542.5 584 c 132,-1,5
 527 570 527 570 507 570 c 4,6,7
 485 570 485 570 470 584 c 132,-1,8
 455 598 455 598 455 626 c 4,9,10
 455 655 455 655 470 668.5 c 132,-1,11
 485 682 485 682 507 682 c 4,0,1
744 541 m 0,12,13
 756 541 756 541 766 539 c 128,-1,14
 776 537 776 537 785 535 c 1,15,-1
 785 467 l 1,16,17
 772 472 772 472 751 472 c 0,18,19
 729 472 729 472 715 452 c 128,-1,20
 701 432 701 432 687 390 c 2,21,-1
 564 0 l 1,22,-1
 447 0 l 1,23,-1
 248 536 l 1,24,-1
 340 536 l 1,25,-1
 467 181 l 2,26,27
 482 139 482 139 492 107.5 c 128,-1,28
 502 76 502 76 504 62 c 1,29,-1
 508 62 l 1,30,31
 512 83 512 83 520 119 c 128,-1,32
 528 155 528 155 539 189 c 2,33,-1
 609 407 l 2,34,35
 626 459 626 459 642.5 488 c 128,-1,36
 659 517 659 517 682.5 529 c 128,-1,37
 706 541 706 541 744 541 c 0,12,13
EndSplineSet
EndChar

StartChar: x
Encoding: 120 120 91
Width: 1033
Flags: W
LayerCount: 2
Fore
SplineSet
464 274 m 1,0,-1
 279 536 l 1,1,-1
 379 536 l 1,2,-1
 517 334 l 1,3,-1
 654 536 l 1,4,-1
 753 536 l 1,5,-1
 568 274 l 1,6,-1
 763 0 l 1,7,-1
 663 0 l 1,8,-1
 517 214 l 1,9,-1
 369 0 l 1,10,-1
 270 0 l 1,11,-1
 464 274 l 1,0,-1
EndSplineSet
EndChar

StartChar: y
Encoding: 121 121 92
Width: 1033
Flags: W
LayerCount: 2
Fore
SplineSet
262 536 m 1,0,-1
 356 536 l 1,1,-1
 472 231 l 2,2,3
 482 204 482 204 490.5 179 c 128,-1,4
 499 154 499 154 506 130.5 c 128,-1,5
 513 107 513 107 517 85 c 1,6,-1
 521 85 l 1,7,8
 527 110 527 110 540 150.5 c 128,-1,9
 553 191 553 191 567 232 c 2,10,-1
 676 536 l 1,11,-1
 771 536 l 1,12,-1
 540 -74 l 2,13,14
 521 -124 521 -124 495.5 -161.5 c 128,-1,15
 470 -199 470 -199 433.5 -219.5 c 128,-1,16
 397 -240 397 -240 345 -240 c 0,17,18
 321 -240 321 -240 303 -237.5 c 128,-1,19
 285 -235 285 -235 272 -232 c 1,20,-1
 272 -162 l 1,21,22
 283 -164 283 -164 298.5 -166 c 128,-1,23
 314 -168 314 -168 331 -168 c 0,24,25
 362 -168 362 -168 384.5 -156.5 c 128,-1,26
 407 -145 407 -145 423 -123.5 c 128,-1,27
 439 -102 439 -102 450 -73 c 2,28,-1
 478 -2 l 1,29,-1
 262 536 l 1,0,-1
EndSplineSet
EndChar

StartChar: z
Encoding: 122 122 93
Width: 1033
Flags: W
LayerCount: 2
Fore
SplineSet
712.5 0 m 1,0,-1
 320.5 0 l 1,1,-1
 320.5 58 l 1,2,-1
 608.5 468 l 1,3,-1
 337.5 468 l 1,4,-1
 337.5 536 l 1,5,-1
 705.5 536 l 1,6,-1
 705.5 470 l 1,7,-1
 421.5 68 l 1,8,-1
 712.5 68 l 1,9,-1
 712.5 0 l 1,0,-1
EndSplineSet
EndChar

StartChar: at
Encoding: 64 64 94
Width: 1033
Flags: W
LayerCount: 2
Fore
SplineSet
908 357 m 0,0,1
 908 311 908 311 897.5 267 c 128,-1,2
 887 223 887 223 865 187.5 c 128,-1,3
 843 152 843 152 811 130.5 c 128,-1,4
 779 109 779 109 735 109 c 0,5,6
 689 109 689 109 662.5 135.5 c 128,-1,7
 636 162 636 162 630 196 c 1,8,-1
 625 196 l 1,9,10
 607 159 607 159 572 134 c 128,-1,11
 537 109 537 109 484 109 c 0,12,13
 408 109 408 109 366.5 160 c 128,-1,14
 325 211 325 211 325 295 c 0,15,16
 325 361 325 361 351 411.5 c 128,-1,17
 377 462 377 462 424.5 491 c 128,-1,18
 472 520 472 520 537 520 c 0,19,20
 581 520 581 520 623.5 512.5 c 128,-1,21
 666 505 666 505 690 496 c 1,22,-1
 680 293 l 2,23,24
 679 275 679 275 679 267.5 c 128,-1,25
 679 260 679 260 679 257 c 0,26,27
 679 205 679 205 697.5 188 c 128,-1,28
 716 171 716 171 741 171 c 0,29,30
 772 171 772 171 793.5 196.5 c 128,-1,31
 815 222 815 222 826.5 264.5 c 128,-1,32
 838 307 838 307 838 358 c 0,33,34
 838 451 838 451 800.5 515.5 c 128,-1,35
 763 580 763 580 697.5 614 c 128,-1,36
 632 648 632 648 549 648 c 0,37,38
 464 648 464 648 398 621 c 128,-1,39
 332 594 332 594 287.5 545 c 128,-1,40
 243 496 243 496 220 429.5 c 128,-1,41
 197 363 197 363 197 283 c 0,42,43
 197 185 197 185 232 116.5 c 128,-1,44
 267 48 267 48 334.5 12.5 c 128,-1,45
 402 -23 402 -23 500 -23 c 0,46,47
 561 -23 561 -23 616.5 -9.5 c 128,-1,48
 672 4 672 4 715 20 c 1,49,-1
 715 -48 l 1,50,51
 672 -66 672 -66 618.5 -77.5 c 128,-1,52
 565 -89 565 -89 500 -89 c 0,53,54
 382 -89 382 -89 298 -45 c 128,-1,55
 214 -1 214 -1 169.5 81.5 c 128,-1,56
 125 164 125 164 125 280 c 0,57,58
 125 373 125 373 154 452.5 c 128,-1,59
 183 532 183 532 238 590.5 c 128,-1,60
 293 649 293 649 371.5 681.5 c 128,-1,61
 450 714 450 714 549 714 c 0,62,63
 627 714 627 714 692.5 689.5 c 128,-1,64
 758 665 758 665 806.5 618.5 c 128,-1,65
 855 572 855 572 881.5 506 c 128,-1,66
 908 440 908 440 908 357 c 0,0,1
403 293 m 0,67,68
 403 229 403 229 428.5 200 c 128,-1,69
 454 171 454 171 497 171 c 0,70,71
 553 171 553 171 577.5 213 c 128,-1,72
 602 255 602 255 606 322 c 2,73,-1
 612 447 l 1,74,75
 599 451 599 451 579 454 c 128,-1,76
 559 457 559 457 538 457 c 0,77,78
 489 457 489 457 459 433 c 128,-1,79
 429 409 429 409 416 371.5 c 128,-1,80
 403 334 403 334 403 293 c 0,67,68
EndSplineSet
EndChar

StartChar: ampersand
Encoding: 38 38 95
Width: 1033
Flags: W
LayerCount: 2
Fore
SplineSet
429 725 m 0,0,1
 483 725 483 725 521.5 706.5 c 128,-1,2
 560 688 560 688 581 654 c 128,-1,3
 602 620 602 620 602 571 c 0,4,5
 602 508 602 508 561.5 464 c 128,-1,6
 521 420 521 420 459 384 c 1,7,-1
 652 198 l 1,8,9
 678 229 678 229 694.5 269.5 c 128,-1,10
 711 310 711 310 722 357 c 1,11,-1
 811 357 l 1,12,13
 795 293 795 293 771 238 c 128,-1,14
 747 183 747 183 709 142 c 1,15,-1
 855 0 l 1,16,-1
 736 0 l 1,17,-1
 649 84 l 1,18,19
 618 56 618 56 582 35 c 128,-1,20
 546 14 546 14 502.5 2 c 128,-1,21
 459 -10 459 -10 403 -10 c 0,22,23
 334 -10 334 -10 283.5 12.5 c 128,-1,24
 233 35 233 35 205.5 79 c 128,-1,25
 178 123 178 123 178 186 c 0,26,27
 178 237 178 237 196.5 274 c 128,-1,28
 215 311 215 311 250 340 c 128,-1,29
 285 369 285 369 332 396 c 1,30,31
 311 420 311 420 291 446 c 128,-1,32
 271 472 271 472 258 502.5 c 128,-1,33
 245 533 245 533 245 569 c 0,34,35
 245 618 245 618 267 653 c 128,-1,36
 289 688 289 688 330.5 706.5 c 128,-1,37
 372 725 372 725 429 725 c 0,0,1
385 341 m 1,38,39
 349 320 349 320 323.5 298.5 c 128,-1,40
 298 277 298 277 284 251 c 128,-1,41
 270 225 270 225 270 189 c 0,42,43
 270 134 270 134 307 101 c 128,-1,44
 344 68 344 68 406 68 c 0,45,46
 470 68 470 68 516 89 c 128,-1,47
 562 110 562 110 593 139 c 1,48,-1
 385 341 l 1,38,39
426 653 m 0,49,50
 384 653 384 653 357.5 631 c 128,-1,51
 331 609 331 609 331 570 c 0,52,53
 331 534 331 534 350 503.5 c 128,-1,54
 369 473 369 473 405 436 c 1,55,56
 464 470 464 470 489.5 500.5 c 128,-1,57
 515 531 515 531 515 571 c 0,58,59
 515 607 515 607 491 630 c 128,-1,60
 467 653 467 653 426 653 c 0,49,50
EndSplineSet
EndChar

StartChar: dollar
Encoding: 36 36 96
Width: 1033
Flags: W
LayerCount: 2
Fore
SplineSet
480.5 49 m 1,0,1
 425.5 50 425.5 50 373.5 58.5 c 128,-1,2
 321.5 67 321.5 67 289.5 82 c 1,3,-1
 289.5 167 l 1,4,5
 323.5 151 323.5 151 376.5 139 c 128,-1,6
 429.5 127 429.5 127 480.5 126 c 1,7,-1
 480.5 328 l 1,8,9
 414.5 346 414.5 346 372.5 369.5 c 128,-1,10
 330.5 393 330.5 393 310 427 c 128,-1,11
 289.5 461 289.5 461 289.5 508 c 0,12,13
 289.5 557 289.5 557 313 592 c 128,-1,14
 336.5 627 336.5 627 379.5 647.5 c 128,-1,15
 422.5 668 422.5 668 480.5 671 c 1,16,-1
 480.5 759 l 1,17,-1
 544.5 759 l 1,18,-1
 544.5 672 l 1,19,20
 597.5 671 597.5 671 641 660.5 c 128,-1,21
 684.5 650 684.5 650 720.5 635 c 1,22,-1
 693.5 561 l 1,23,24
 661.5 574 661.5 574 623 583.5 c 128,-1,25
 584.5 593 584.5 593 544.5 596 c 1,26,-1
 544.5 395 l 1,27,28
 610.5 376 610.5 376 654.5 354.5 c 128,-1,29
 698.5 333 698.5 333 721 301.5 c 128,-1,30
 743.5 270 743.5 270 743.5 220 c 0,31,32
 743.5 150 743.5 150 691.5 106.5 c 128,-1,33
 639.5 63 639.5 63 544.5 53 c 1,34,-1
 544.5 -58 l 1,35,-1
 480.5 -58 l 1,36,-1
 480.5 49 l 1,0,1
544.5 131 m 1,37,38
 603.5 137 603.5 137 630.5 158.5 c 128,-1,39
 657.5 180 657.5 180 657.5 214 c 0,40,41
 657.5 239 657.5 239 647.5 255.5 c 128,-1,42
 637.5 272 637.5 272 613 284 c 128,-1,43
 588.5 296 588.5 296 544.5 307 c 1,44,-1
 544.5 131 l 1,37,38
480.5 594 m 1,45,46
 444.5 592 444.5 592 421.5 581.5 c 128,-1,47
 398.5 571 398.5 571 387 554 c 128,-1,48
 375.5 537 375.5 537 375.5 515 c 0,49,50
 375.5 489 375.5 489 385 470.5 c 128,-1,51
 394.5 452 394.5 452 417.5 439.5 c 128,-1,52
 440.5 427 440.5 427 480.5 417 c 1,53,-1
 480.5 594 l 1,45,46
EndSplineSet
EndChar

StartChar: grave
Encoding: 96 96 97
Width: 1033
Flags: W
LayerCount: 2
Fore
SplineSet
521 766 m 1,0,1
 532 744 532 744 548.5 716.5 c 128,-1,2
 565 689 565 689 583.5 663 c 128,-1,3
 602 637 602 637 617 618 c 1,4,-1
 617 606 l 1,5,-1
 558 606 l 1,6,7
 541 620 541 620 520 639.5 c 128,-1,8
 499 659 499 659 478.5 680.5 c 128,-1,9
 458 702 458 702 441.5 722 c 128,-1,10
 425 742 425 742 416 756 c 1,11,-1
 416 766 l 1,12,-1
 521 766 l 1,0,1
EndSplineSet
EndChar

StartChar: uni0080
Encoding: 128 128 98
Width: 1033
Flags: W
LayerCount: 2
Fore
SplineSet
311 85 m 0,0,1
 311 103 311 103 326.5 118 c 128,-1,2
 342 133 342 133 370 144.5 c 128,-1,3
 398 156 398 156 435.5 162.5 c 128,-1,4
 473 169 473 169 516 169 c 0,5,6
 560 169 560 169 597.5 162.5 c 128,-1,7
 635 156 635 156 662.5 144.5 c 128,-1,8
 690 133 690 133 706 118 c 128,-1,9
 722 103 722 103 722 85 c 0,10,11
 722 68 722 68 706 53 c 128,-1,12
 690 38 690 38 662.5 27 c 128,-1,13
 635 16 635 16 597.5 9.5 c 128,-1,14
 560 3 560 3 516 3 c 0,15,16
 473 3 473 3 435.5 9.5 c 128,-1,17
 398 16 398 16 370 27 c 128,-1,18
 342 38 342 38 326.5 53 c 128,-1,19
 311 68 311 68 311 85 c 0,0,1
391 85 m 256,20,21
 391 74 391 74 400.5 64.5 c 128,-1,22
 410 55 410 55 427 48.5 c 128,-1,23
 444 42 444 42 467 38 c 128,-1,24
 490 34 490 34 516 34 c 0,25,26
 543 34 543 34 565.5 38 c 128,-1,27
 588 42 588 42 605 48.5 c 128,-1,28
 622 55 622 55 631.5 64.5 c 128,-1,29
 641 74 641 74 641 85 c 256,30,31
 641 96 641 96 631.5 105.5 c 128,-1,32
 622 115 622 115 605 122 c 128,-1,33
 588 129 588 129 565.5 133 c 128,-1,34
 543 137 543 137 516 137 c 0,35,36
 490 137 490 137 467 133 c 128,-1,37
 444 129 444 129 427 122 c 128,-1,38
 410 115 410 115 400.5 105.5 c 128,-1,39
 391 96 391 96 391 85 c 256,20,21
311 272 m 0,40,41
 311 290 311 290 326.5 305 c 128,-1,42
 342 320 342 320 370 331.5 c 128,-1,43
 398 343 398 343 435.5 349 c 128,-1,44
 473 355 473 355 516 355 c 0,45,46
 560 355 560 355 597.5 349 c 128,-1,47
 635 343 635 343 662.5 331.5 c 128,-1,48
 690 320 690 320 706 305 c 128,-1,49
 722 290 722 290 722 272 c 0,50,51
 722 255 722 255 706 240 c 128,-1,52
 690 225 690 225 662.5 214 c 128,-1,53
 635 203 635 203 597.5 196 c 128,-1,54
 560 189 560 189 516 189 c 0,55,56
 473 189 473 189 435.5 196 c 128,-1,57
 398 203 398 203 370 214 c 128,-1,58
 342 225 342 225 326.5 240 c 128,-1,59
 311 255 311 255 311 272 c 0,40,41
391 272 m 256,60,61
 391 261 391 261 400.5 251.5 c 128,-1,62
 410 242 410 242 427 235 c 128,-1,63
 444 228 444 228 467 224 c 128,-1,64
 490 220 490 220 516 220 c 0,65,66
 543 220 543 220 565.5 224 c 128,-1,67
 588 228 588 228 605 235 c 128,-1,68
 622 242 622 242 631.5 251.5 c 128,-1,69
 641 261 641 261 641 272 c 256,70,71
 641 283 641 283 631.5 292.5 c 128,-1,72
 622 302 622 302 605 309 c 128,-1,73
 588 316 588 316 565.5 320 c 128,-1,74
 543 324 543 324 516 324 c 0,75,76
 490 324 490 324 467 320 c 128,-1,77
 444 316 444 316 427 309 c 128,-1,78
 410 302 410 302 400.5 292.5 c 128,-1,79
 391 283 391 283 391 272 c 256,60,61
311 461 m 256,80,81
 311 478 311 478 326.5 493.5 c 128,-1,82
 342 509 342 509 370 520 c 128,-1,83
 398 531 398 531 435.5 537.5 c 128,-1,84
 473 544 473 544 516 544 c 0,85,86
 560 544 560 544 597.5 537.5 c 128,-1,87
 635 531 635 531 662.5 520 c 128,-1,88
 690 509 690 509 706 493.5 c 128,-1,89
 722 478 722 478 722 461 c 256,90,91
 722 444 722 444 706 429 c 128,-1,92
 690 414 690 414 662.5 402.5 c 128,-1,93
 635 391 635 391 597.5 384.5 c 128,-1,94
 560 378 560 378 516 378 c 0,95,96
 473 378 473 378 435.5 384.5 c 128,-1,97
 398 391 398 391 370 402.5 c 128,-1,98
 342 414 342 414 326.5 429 c 128,-1,99
 311 444 311 444 311 461 c 256,80,81
391 461 m 256,100,101
 391 450 391 450 400.5 440.5 c 128,-1,102
 410 431 410 431 427 424 c 128,-1,103
 444 417 444 417 467 413 c 128,-1,104
 490 409 490 409 516 409 c 0,105,106
 543 409 543 409 565.5 413 c 128,-1,107
 588 417 588 417 605 424 c 128,-1,108
 622 431 622 431 631.5 440.5 c 128,-1,109
 641 450 641 450 641 461 c 256,110,111
 641 472 641 472 631.5 481.5 c 128,-1,112
 622 491 622 491 605 498 c 128,-1,113
 588 505 588 505 565.5 509 c 128,-1,114
 543 513 543 513 516 513 c 0,115,116
 490 513 490 513 467 509 c 128,-1,117
 444 505 444 505 427 498 c 128,-1,118
 410 491 410 491 400.5 481.5 c 128,-1,119
 391 472 391 472 391 461 c 256,100,101
311 648 m 256,120,121
 311 665 311 665 326.5 680.5 c 128,-1,122
 342 696 342 696 370 707 c 128,-1,123
 398 718 398 718 435.5 724.5 c 128,-1,124
 473 731 473 731 516 731 c 0,125,126
 560 731 560 731 597.5 724.5 c 128,-1,127
 635 718 635 718 662.5 707 c 128,-1,128
 690 696 690 696 706 680.5 c 128,-1,129
 722 665 722 665 722 648 c 256,130,131
 722 631 722 631 706 616 c 128,-1,132
 690 601 690 601 662.5 589.5 c 128,-1,133
 635 578 635 578 597.5 571.5 c 128,-1,134
 560 565 560 565 516 565 c 0,135,136
 473 565 473 565 435.5 571.5 c 128,-1,137
 398 578 398 578 370 589.5 c 128,-1,138
 342 601 342 601 326.5 616 c 128,-1,139
 311 631 311 631 311 648 c 256,120,121
391 648 m 0,140,141
 391 637 391 637 400.5 627.5 c 128,-1,142
 410 618 410 618 427 611 c 128,-1,143
 444 604 444 604 467 600 c 128,-1,144
 490 596 490 596 516 596 c 0,145,146
 543 596 543 596 565.5 600 c 128,-1,147
 588 604 588 604 605 611 c 128,-1,148
 622 618 622 618 631.5 627.5 c 128,-1,149
 641 637 641 637 641 648 c 0,150,151
 641 658 641 658 631.5 668 c 128,-1,152
 622 678 622 678 605 685 c 128,-1,153
 588 692 588 692 565.5 696 c 128,-1,154
 543 700 543 700 516 700 c 0,155,156
 490 700 490 700 467 696 c 128,-1,157
 444 692 444 692 427 685 c 128,-1,158
 410 678 410 678 400.5 668 c 128,-1,159
 391 658 391 658 391 648 c 0,140,141
EndSplineSet
EndChar

StartChar: uni0081
Encoding: 129 129 99
Width: 1033
Flags: W
LayerCount: 2
Fore
SplineSet
311 85 m 0,0,1
 311 103 311 103 326.5 118 c 128,-1,2
 342 133 342 133 370 144.5 c 128,-1,3
 398 156 398 156 435.5 162.5 c 128,-1,4
 473 169 473 169 516 169 c 0,5,6
 560 169 560 169 597.5 162.5 c 128,-1,7
 635 156 635 156 662.5 144.5 c 128,-1,8
 690 133 690 133 706 118 c 128,-1,9
 722 103 722 103 722 85 c 0,10,11
 722 68 722 68 706 53 c 128,-1,12
 690 38 690 38 662.5 27 c 128,-1,13
 635 16 635 16 597.5 9.5 c 128,-1,14
 560 3 560 3 516 3 c 0,15,16
 473 3 473 3 435.5 9.5 c 128,-1,17
 398 16 398 16 370 27 c 128,-1,18
 342 38 342 38 326.5 53 c 128,-1,19
 311 68 311 68 311 85 c 0,0,1
311 272 m 0,20,21
 311 290 311 290 326.5 305 c 128,-1,22
 342 320 342 320 370 331.5 c 128,-1,23
 398 343 398 343 435.5 349 c 128,-1,24
 473 355 473 355 516 355 c 0,25,26
 560 355 560 355 597.5 349 c 128,-1,27
 635 343 635 343 662.5 331.5 c 128,-1,28
 690 320 690 320 706 305 c 128,-1,29
 722 290 722 290 722 272 c 0,30,31
 722 255 722 255 706 240 c 128,-1,32
 690 225 690 225 662.5 214 c 128,-1,33
 635 203 635 203 597.5 196 c 128,-1,34
 560 189 560 189 516 189 c 0,35,36
 473 189 473 189 435.5 196 c 128,-1,37
 398 203 398 203 370 214 c 128,-1,38
 342 225 342 225 326.5 240 c 128,-1,39
 311 255 311 255 311 272 c 0,20,21
391 272 m 256,40,41
 391 261 391 261 400.5 251.5 c 128,-1,42
 410 242 410 242 427 235 c 128,-1,43
 444 228 444 228 467 224 c 128,-1,44
 490 220 490 220 516 220 c 0,45,46
 543 220 543 220 565.5 224 c 128,-1,47
 588 228 588 228 605 235 c 128,-1,48
 622 242 622 242 631.5 251.5 c 128,-1,49
 641 261 641 261 641 272 c 256,50,51
 641 283 641 283 631.5 292.5 c 128,-1,52
 622 302 622 302 605 309 c 128,-1,53
 588 316 588 316 565.5 320 c 128,-1,54
 543 324 543 324 516 324 c 0,55,56
 490 324 490 324 467 320 c 128,-1,57
 444 316 444 316 427 309 c 128,-1,58
 410 302 410 302 400.5 292.5 c 128,-1,59
 391 283 391 283 391 272 c 256,40,41
311 461 m 256,60,61
 311 478 311 478 326.5 493.5 c 128,-1,62
 342 509 342 509 370 520 c 128,-1,63
 398 531 398 531 435.5 537.5 c 128,-1,64
 473 544 473 544 516 544 c 0,65,66
 560 544 560 544 597.5 537.5 c 128,-1,67
 635 531 635 531 662.5 520 c 128,-1,68
 690 509 690 509 706 493.5 c 128,-1,69
 722 478 722 478 722 461 c 256,70,71
 722 444 722 444 706 429 c 128,-1,72
 690 414 690 414 662.5 402.5 c 128,-1,73
 635 391 635 391 597.5 384.5 c 128,-1,74
 560 378 560 378 516 378 c 0,75,76
 473 378 473 378 435.5 384.5 c 128,-1,77
 398 391 398 391 370 402.5 c 128,-1,78
 342 414 342 414 326.5 429 c 128,-1,79
 311 444 311 444 311 461 c 256,60,61
391 461 m 256,80,81
 391 450 391 450 400.5 440.5 c 128,-1,82
 410 431 410 431 427 424 c 128,-1,83
 444 417 444 417 467 413 c 128,-1,84
 490 409 490 409 516 409 c 0,85,86
 543 409 543 409 565.5 413 c 128,-1,87
 588 417 588 417 605 424 c 128,-1,88
 622 431 622 431 631.5 440.5 c 128,-1,89
 641 450 641 450 641 461 c 256,90,91
 641 472 641 472 631.5 481.5 c 128,-1,92
 622 491 622 491 605 498 c 128,-1,93
 588 505 588 505 565.5 509 c 128,-1,94
 543 513 543 513 516 513 c 0,95,96
 490 513 490 513 467 509 c 128,-1,97
 444 505 444 505 427 498 c 128,-1,98
 410 491 410 491 400.5 481.5 c 128,-1,99
 391 472 391 472 391 461 c 256,80,81
311 648 m 256,100,101
 311 665 311 665 326.5 680.5 c 128,-1,102
 342 696 342 696 370 707 c 128,-1,103
 398 718 398 718 435.5 724.5 c 128,-1,104
 473 731 473 731 516 731 c 0,105,106
 560 731 560 731 597.5 724.5 c 128,-1,107
 635 718 635 718 662.5 707 c 128,-1,108
 690 696 690 696 706 680.5 c 128,-1,109
 722 665 722 665 722 648 c 256,110,111
 722 631 722 631 706 616 c 128,-1,112
 690 601 690 601 662.5 589.5 c 128,-1,113
 635 578 635 578 597.5 571.5 c 128,-1,114
 560 565 560 565 516 565 c 0,115,116
 473 565 473 565 435.5 571.5 c 128,-1,117
 398 578 398 578 370 589.5 c 128,-1,118
 342 601 342 601 326.5 616 c 128,-1,119
 311 631 311 631 311 648 c 256,100,101
391 648 m 0,120,121
 391 637 391 637 400.5 627.5 c 128,-1,122
 410 618 410 618 427 611 c 128,-1,123
 444 604 444 604 467 600 c 128,-1,124
 490 596 490 596 516 596 c 0,125,126
 543 596 543 596 565.5 600 c 128,-1,127
 588 604 588 604 605 611 c 128,-1,128
 622 618 622 618 631.5 627.5 c 128,-1,129
 641 637 641 637 641 648 c 0,130,131
 641 658 641 658 631.5 668 c 128,-1,132
 622 678 622 678 605 685 c 128,-1,133
 588 692 588 692 565.5 696 c 128,-1,134
 543 700 543 700 516 700 c 0,135,136
 490 700 490 700 467 696 c 128,-1,137
 444 692 444 692 427 685 c 128,-1,138
 410 678 410 678 400.5 668 c 128,-1,139
 391 658 391 658 391 648 c 0,120,121
EndSplineSet
EndChar

StartChar: uni0082
Encoding: 130 130 100
Width: 1033
Flags: W
LayerCount: 2
Fore
SplineSet
311 85 m 0,0,1
 311 103 311 103 326.5 118 c 128,-1,2
 342 133 342 133 370 144.5 c 128,-1,3
 398 156 398 156 435.5 162.5 c 128,-1,4
 473 169 473 169 516 169 c 0,5,6
 560 169 560 169 597.5 162.5 c 128,-1,7
 635 156 635 156 662.5 144.5 c 128,-1,8
 690 133 690 133 706 118 c 128,-1,9
 722 103 722 103 722 85 c 0,10,11
 722 68 722 68 706 53 c 128,-1,12
 690 38 690 38 662.5 27 c 128,-1,13
 635 16 635 16 597.5 9.5 c 128,-1,14
 560 3 560 3 516 3 c 0,15,16
 473 3 473 3 435.5 9.5 c 128,-1,17
 398 16 398 16 370 27 c 128,-1,18
 342 38 342 38 326.5 53 c 128,-1,19
 311 68 311 68 311 85 c 0,0,1
391 85 m 256,20,21
 391 74 391 74 400.5 64.5 c 128,-1,22
 410 55 410 55 427 48.5 c 128,-1,23
 444 42 444 42 467 38 c 128,-1,24
 490 34 490 34 516 34 c 0,25,26
 543 34 543 34 565.5 38 c 128,-1,27
 588 42 588 42 605 48.5 c 128,-1,28
 622 55 622 55 631.5 64.5 c 128,-1,29
 641 74 641 74 641 85 c 256,30,31
 641 96 641 96 631.5 105.5 c 128,-1,32
 622 115 622 115 605 122 c 128,-1,33
 588 129 588 129 565.5 133 c 128,-1,34
 543 137 543 137 516 137 c 0,35,36
 490 137 490 137 467 133 c 128,-1,37
 444 129 444 129 427 122 c 128,-1,38
 410 115 410 115 400.5 105.5 c 128,-1,39
 391 96 391 96 391 85 c 256,20,21
311 272 m 0,40,41
 311 290 311 290 326.5 305 c 128,-1,42
 342 320 342 320 370 331.5 c 128,-1,43
 398 343 398 343 435.5 349 c 128,-1,44
 473 355 473 355 516 355 c 0,45,46
 560 355 560 355 597.5 349 c 128,-1,47
 635 343 635 343 662.5 331.5 c 128,-1,48
 690 320 690 320 706 305 c 128,-1,49
 722 290 722 290 722 272 c 0,50,51
 722 255 722 255 706 240 c 128,-1,52
 690 225 690 225 662.5 214 c 128,-1,53
 635 203 635 203 597.5 196 c 128,-1,54
 560 189 560 189 516 189 c 0,55,56
 473 189 473 189 435.5 196 c 128,-1,57
 398 203 398 203 370 214 c 128,-1,58
 342 225 342 225 326.5 240 c 128,-1,59
 311 255 311 255 311 272 c 0,40,41
311 461 m 256,60,61
 311 478 311 478 326.5 493.5 c 128,-1,62
 342 509 342 509 370 520 c 128,-1,63
 398 531 398 531 435.5 537.5 c 128,-1,64
 473 544 473 544 516 544 c 0,65,66
 560 544 560 544 597.5 537.5 c 128,-1,67
 635 531 635 531 662.5 520 c 128,-1,68
 690 509 690 509 706 493.5 c 128,-1,69
 722 478 722 478 722 461 c 256,70,71
 722 444 722 444 706 429 c 128,-1,72
 690 414 690 414 662.5 402.5 c 128,-1,73
 635 391 635 391 597.5 384.5 c 128,-1,74
 560 378 560 378 516 378 c 0,75,76
 473 378 473 378 435.5 384.5 c 128,-1,77
 398 391 398 391 370 402.5 c 128,-1,78
 342 414 342 414 326.5 429 c 128,-1,79
 311 444 311 444 311 461 c 256,60,61
391 461 m 256,80,81
 391 450 391 450 400.5 440.5 c 128,-1,82
 410 431 410 431 427 424 c 128,-1,83
 444 417 444 417 467 413 c 128,-1,84
 490 409 490 409 516 409 c 0,85,86
 543 409 543 409 565.5 413 c 128,-1,87
 588 417 588 417 605 424 c 128,-1,88
 622 431 622 431 631.5 440.5 c 128,-1,89
 641 450 641 450 641 461 c 256,90,91
 641 472 641 472 631.5 481.5 c 128,-1,92
 622 491 622 491 605 498 c 128,-1,93
 588 505 588 505 565.5 509 c 128,-1,94
 543 513 543 513 516 513 c 0,95,96
 490 513 490 513 467 509 c 128,-1,97
 444 505 444 505 427 498 c 128,-1,98
 410 491 410 491 400.5 481.5 c 128,-1,99
 391 472 391 472 391 461 c 256,80,81
311 648 m 256,100,101
 311 665 311 665 326.5 680.5 c 128,-1,102
 342 696 342 696 370 707 c 128,-1,103
 398 718 398 718 435.5 724.5 c 128,-1,104
 473 731 473 731 516 731 c 0,105,106
 560 731 560 731 597.5 724.5 c 128,-1,107
 635 718 635 718 662.5 707 c 128,-1,108
 690 696 690 696 706 680.5 c 128,-1,109
 722 665 722 665 722 648 c 256,110,111
 722 631 722 631 706 616 c 128,-1,112
 690 601 690 601 662.5 589.5 c 128,-1,113
 635 578 635 578 597.5 571.5 c 128,-1,114
 560 565 560 565 516 565 c 0,115,116
 473 565 473 565 435.5 571.5 c 128,-1,117
 398 578 398 578 370 589.5 c 128,-1,118
 342 601 342 601 326.5 616 c 128,-1,119
 311 631 311 631 311 648 c 256,100,101
391 648 m 0,120,121
 391 637 391 637 400.5 627.5 c 128,-1,122
 410 618 410 618 427 611 c 128,-1,123
 444 604 444 604 467 600 c 128,-1,124
 490 596 490 596 516 596 c 0,125,126
 543 596 543 596 565.5 600 c 128,-1,127
 588 604 588 604 605 611 c 128,-1,128
 622 618 622 618 631.5 627.5 c 128,-1,129
 641 637 641 637 641 648 c 0,130,131
 641 658 641 658 631.5 668 c 128,-1,132
 622 678 622 678 605 685 c 128,-1,133
 588 692 588 692 565.5 696 c 128,-1,134
 543 700 543 700 516 700 c 0,135,136
 490 700 490 700 467 696 c 128,-1,137
 444 692 444 692 427 685 c 128,-1,138
 410 678 410 678 400.5 668 c 128,-1,139
 391 658 391 658 391 648 c 0,120,121
EndSplineSet
EndChar

StartChar: uni0083
Encoding: 131 131 101
Width: 1033
Flags: W
LayerCount: 2
Fore
SplineSet
311 85 m 0,0,1
 311 103 311 103 326.5 118 c 128,-1,2
 342 133 342 133 370 144.5 c 128,-1,3
 398 156 398 156 435.5 162.5 c 128,-1,4
 473 169 473 169 516 169 c 0,5,6
 560 169 560 169 597.5 162.5 c 128,-1,7
 635 156 635 156 662.5 144.5 c 128,-1,8
 690 133 690 133 706 118 c 128,-1,9
 722 103 722 103 722 85 c 0,10,11
 722 68 722 68 706 53 c 128,-1,12
 690 38 690 38 662.5 27 c 128,-1,13
 635 16 635 16 597.5 9.5 c 128,-1,14
 560 3 560 3 516 3 c 0,15,16
 473 3 473 3 435.5 9.5 c 128,-1,17
 398 16 398 16 370 27 c 128,-1,18
 342 38 342 38 326.5 53 c 128,-1,19
 311 68 311 68 311 85 c 0,0,1
311 272 m 0,20,21
 311 290 311 290 326.5 305 c 128,-1,22
 342 320 342 320 370 331.5 c 128,-1,23
 398 343 398 343 435.5 349 c 128,-1,24
 473 355 473 355 516 355 c 0,25,26
 560 355 560 355 597.5 349 c 128,-1,27
 635 343 635 343 662.5 331.5 c 128,-1,28
 690 320 690 320 706 305 c 128,-1,29
 722 290 722 290 722 272 c 0,30,31
 722 255 722 255 706 240 c 128,-1,32
 690 225 690 225 662.5 214 c 128,-1,33
 635 203 635 203 597.5 196 c 128,-1,34
 560 189 560 189 516 189 c 0,35,36
 473 189 473 189 435.5 196 c 128,-1,37
 398 203 398 203 370 214 c 128,-1,38
 342 225 342 225 326.5 240 c 128,-1,39
 311 255 311 255 311 272 c 0,20,21
311 461 m 256,40,41
 311 478 311 478 326.5 493.5 c 128,-1,42
 342 509 342 509 370 520 c 128,-1,43
 398 531 398 531 435.5 537.5 c 128,-1,44
 473 544 473 544 516 544 c 0,45,46
 560 544 560 544 597.5 537.5 c 128,-1,47
 635 531 635 531 662.5 520 c 128,-1,48
 690 509 690 509 706 493.5 c 128,-1,49
 722 478 722 478 722 461 c 256,50,51
 722 444 722 444 706 429 c 128,-1,52
 690 414 690 414 662.5 402.5 c 128,-1,53
 635 391 635 391 597.5 384.5 c 128,-1,54
 560 378 560 378 516 378 c 0,55,56
 473 378 473 378 435.5 384.5 c 128,-1,57
 398 391 398 391 370 402.5 c 128,-1,58
 342 414 342 414 326.5 429 c 128,-1,59
 311 444 311 444 311 461 c 256,40,41
391 461 m 256,60,61
 391 450 391 450 400.5 440.5 c 128,-1,62
 410 431 410 431 427 424 c 128,-1,63
 444 417 444 417 467 413 c 128,-1,64
 490 409 490 409 516 409 c 0,65,66
 543 409 543 409 565.5 413 c 128,-1,67
 588 417 588 417 605 424 c 128,-1,68
 622 431 622 431 631.5 440.5 c 128,-1,69
 641 450 641 450 641 461 c 256,70,71
 641 472 641 472 631.5 481.5 c 128,-1,72
 622 491 622 491 605 498 c 128,-1,73
 588 505 588 505 565.5 509 c 128,-1,74
 543 513 543 513 516 513 c 0,75,76
 490 513 490 513 467 509 c 128,-1,77
 444 505 444 505 427 498 c 128,-1,78
 410 491 410 491 400.5 481.5 c 128,-1,79
 391 472 391 472 391 461 c 256,60,61
311 648 m 256,80,81
 311 665 311 665 326.5 680.5 c 128,-1,82
 342 696 342 696 370 707 c 128,-1,83
 398 718 398 718 435.5 724.5 c 128,-1,84
 473 731 473 731 516 731 c 0,85,86
 560 731 560 731 597.5 724.5 c 128,-1,87
 635 718 635 718 662.5 707 c 128,-1,88
 690 696 690 696 706 680.5 c 128,-1,89
 722 665 722 665 722 648 c 256,90,91
 722 631 722 631 706 616 c 128,-1,92
 690 601 690 601 662.5 589.5 c 128,-1,93
 635 578 635 578 597.5 571.5 c 128,-1,94
 560 565 560 565 516 565 c 0,95,96
 473 565 473 565 435.5 571.5 c 128,-1,97
 398 578 398 578 370 589.5 c 128,-1,98
 342 601 342 601 326.5 616 c 128,-1,99
 311 631 311 631 311 648 c 256,80,81
391 648 m 0,100,101
 391 637 391 637 400.5 627.5 c 128,-1,102
 410 618 410 618 427 611 c 128,-1,103
 444 604 444 604 467 600 c 128,-1,104
 490 596 490 596 516 596 c 0,105,106
 543 596 543 596 565.5 600 c 128,-1,107
 588 604 588 604 605 611 c 128,-1,108
 622 618 622 618 631.5 627.5 c 128,-1,109
 641 637 641 637 641 648 c 0,110,111
 641 658 641 658 631.5 668 c 128,-1,112
 622 678 622 678 605 685 c 128,-1,113
 588 692 588 692 565.5 696 c 128,-1,114
 543 700 543 700 516 700 c 0,115,116
 490 700 490 700 467 696 c 128,-1,117
 444 692 444 692 427 685 c 128,-1,118
 410 678 410 678 400.5 668 c 128,-1,119
 391 658 391 658 391 648 c 0,100,101
EndSplineSet
EndChar

StartChar: uni0084
Encoding: 132 132 102
Width: 1033
Flags: W
LayerCount: 2
Fore
SplineSet
311 85 m 0,0,1
 311 103 311 103 326.5 118 c 128,-1,2
 342 133 342 133 370 144.5 c 128,-1,3
 398 156 398 156 435.5 162.5 c 128,-1,4
 473 169 473 169 516 169 c 0,5,6
 560 169 560 169 597.5 162.5 c 128,-1,7
 635 156 635 156 662.5 144.5 c 128,-1,8
 690 133 690 133 706 118 c 128,-1,9
 722 103 722 103 722 85 c 0,10,11
 722 68 722 68 706 53 c 128,-1,12
 690 38 690 38 662.5 27 c 128,-1,13
 635 16 635 16 597.5 9.5 c 128,-1,14
 560 3 560 3 516 3 c 0,15,16
 473 3 473 3 435.5 9.5 c 128,-1,17
 398 16 398 16 370 27 c 128,-1,18
 342 38 342 38 326.5 53 c 128,-1,19
 311 68 311 68 311 85 c 0,0,1
391 85 m 256,20,21
 391 74 391 74 400.5 64.5 c 128,-1,22
 410 55 410 55 427 48.5 c 128,-1,23
 444 42 444 42 467 38 c 128,-1,24
 490 34 490 34 516 34 c 0,25,26
 543 34 543 34 565.5 38 c 128,-1,27
 588 42 588 42 605 48.5 c 128,-1,28
 622 55 622 55 631.5 64.5 c 128,-1,29
 641 74 641 74 641 85 c 256,30,31
 641 96 641 96 631.5 105.5 c 128,-1,32
 622 115 622 115 605 122 c 128,-1,33
 588 129 588 129 565.5 133 c 128,-1,34
 543 137 543 137 516 137 c 0,35,36
 490 137 490 137 467 133 c 128,-1,37
 444 129 444 129 427 122 c 128,-1,38
 410 115 410 115 400.5 105.5 c 128,-1,39
 391 96 391 96 391 85 c 256,20,21
311 272 m 0,40,41
 311 290 311 290 326.5 305 c 128,-1,42
 342 320 342 320 370 331.5 c 128,-1,43
 398 343 398 343 435.5 349 c 128,-1,44
 473 355 473 355 516 355 c 0,45,46
 560 355 560 355 597.5 349 c 128,-1,47
 635 343 635 343 662.5 331.5 c 128,-1,48
 690 320 690 320 706 305 c 128,-1,49
 722 290 722 290 722 272 c 0,50,51
 722 255 722 255 706 240 c 128,-1,52
 690 225 690 225 662.5 214 c 128,-1,53
 635 203 635 203 597.5 196 c 128,-1,54
 560 189 560 189 516 189 c 0,55,56
 473 189 473 189 435.5 196 c 128,-1,57
 398 203 398 203 370 214 c 128,-1,58
 342 225 342 225 326.5 240 c 128,-1,59
 311 255 311 255 311 272 c 0,40,41
391 272 m 256,60,61
 391 261 391 261 400.5 251.5 c 128,-1,62
 410 242 410 242 427 235 c 128,-1,63
 444 228 444 228 467 224 c 128,-1,64
 490 220 490 220 516 220 c 0,65,66
 543 220 543 220 565.5 224 c 128,-1,67
 588 228 588 228 605 235 c 128,-1,68
 622 242 622 242 631.5 251.5 c 128,-1,69
 641 261 641 261 641 272 c 256,70,71
 641 283 641 283 631.5 292.5 c 128,-1,72
 622 302 622 302 605 309 c 128,-1,73
 588 316 588 316 565.5 320 c 128,-1,74
 543 324 543 324 516 324 c 0,75,76
 490 324 490 324 467 320 c 128,-1,77
 444 316 444 316 427 309 c 128,-1,78
 410 302 410 302 400.5 292.5 c 128,-1,79
 391 283 391 283 391 272 c 256,60,61
311 461 m 256,80,81
 311 478 311 478 326.5 493.5 c 128,-1,82
 342 509 342 509 370 520 c 128,-1,83
 398 531 398 531 435.5 537.5 c 128,-1,84
 473 544 473 544 516 544 c 0,85,86
 560 544 560 544 597.5 537.5 c 128,-1,87
 635 531 635 531 662.5 520 c 128,-1,88
 690 509 690 509 706 493.5 c 128,-1,89
 722 478 722 478 722 461 c 256,90,91
 722 444 722 444 706 429 c 128,-1,92
 690 414 690 414 662.5 402.5 c 128,-1,93
 635 391 635 391 597.5 384.5 c 128,-1,94
 560 378 560 378 516 378 c 0,95,96
 473 378 473 378 435.5 384.5 c 128,-1,97
 398 391 398 391 370 402.5 c 128,-1,98
 342 414 342 414 326.5 429 c 128,-1,99
 311 444 311 444 311 461 c 256,80,81
311 648 m 256,100,101
 311 665 311 665 326.5 680.5 c 128,-1,102
 342 696 342 696 370 707 c 128,-1,103
 398 718 398 718 435.5 724.5 c 128,-1,104
 473 731 473 731 516 731 c 0,105,106
 560 731 560 731 597.5 724.5 c 128,-1,107
 635 718 635 718 662.5 707 c 128,-1,108
 690 696 690 696 706 680.5 c 128,-1,109
 722 665 722 665 722 648 c 256,110,111
 722 631 722 631 706 616 c 128,-1,112
 690 601 690 601 662.5 589.5 c 128,-1,113
 635 578 635 578 597.5 571.5 c 128,-1,114
 560 565 560 565 516 565 c 0,115,116
 473 565 473 565 435.5 571.5 c 128,-1,117
 398 578 398 578 370 589.5 c 128,-1,118
 342 601 342 601 326.5 616 c 128,-1,119
 311 631 311 631 311 648 c 256,100,101
391 648 m 0,120,121
 391 637 391 637 400.5 627.5 c 128,-1,122
 410 618 410 618 427 611 c 128,-1,123
 444 604 444 604 467 600 c 128,-1,124
 490 596 490 596 516 596 c 0,125,126
 543 596 543 596 565.5 600 c 128,-1,127
 588 604 588 604 605 611 c 128,-1,128
 622 618 622 618 631.5 627.5 c 128,-1,129
 641 637 641 637 641 648 c 0,130,131
 641 658 641 658 631.5 668 c 128,-1,132
 622 678 622 678 605 685 c 128,-1,133
 588 692 588 692 565.5 696 c 128,-1,134
 543 700 543 700 516 700 c 0,135,136
 490 700 490 700 467 696 c 128,-1,137
 444 692 444 692 427 685 c 128,-1,138
 410 678 410 678 400.5 668 c 128,-1,139
 391 658 391 658 391 648 c 0,120,121
EndSplineSet
EndChar

StartChar: uni0085
Encoding: 133 133 103
Width: 1033
Flags: W
LayerCount: 2
Fore
SplineSet
311 85 m 0,0,1
 311 103 311 103 326.5 118 c 128,-1,2
 342 133 342 133 370 144.5 c 128,-1,3
 398 156 398 156 435.5 162.5 c 128,-1,4
 473 169 473 169 516 169 c 0,5,6
 560 169 560 169 597.5 162.5 c 128,-1,7
 635 156 635 156 662.5 144.5 c 128,-1,8
 690 133 690 133 706 118 c 128,-1,9
 722 103 722 103 722 85 c 0,10,11
 722 68 722 68 706 53 c 128,-1,12
 690 38 690 38 662.5 27 c 128,-1,13
 635 16 635 16 597.5 9.5 c 128,-1,14
 560 3 560 3 516 3 c 0,15,16
 473 3 473 3 435.5 9.5 c 128,-1,17
 398 16 398 16 370 27 c 128,-1,18
 342 38 342 38 326.5 53 c 128,-1,19
 311 68 311 68 311 85 c 0,0,1
311 272 m 0,20,21
 311 290 311 290 326.5 305 c 128,-1,22
 342 320 342 320 370 331.5 c 128,-1,23
 398 343 398 343 435.5 349 c 128,-1,24
 473 355 473 355 516 355 c 0,25,26
 560 355 560 355 597.5 349 c 128,-1,27
 635 343 635 343 662.5 331.5 c 128,-1,28
 690 320 690 320 706 305 c 128,-1,29
 722 290 722 290 722 272 c 0,30,31
 722 255 722 255 706 240 c 128,-1,32
 690 225 690 225 662.5 214 c 128,-1,33
 635 203 635 203 597.5 196 c 128,-1,34
 560 189 560 189 516 189 c 0,35,36
 473 189 473 189 435.5 196 c 128,-1,37
 398 203 398 203 370 214 c 128,-1,38
 342 225 342 225 326.5 240 c 128,-1,39
 311 255 311 255 311 272 c 0,20,21
391 272 m 256,40,41
 391 261 391 261 400.5 251.5 c 128,-1,42
 410 242 410 242 427 235 c 128,-1,43
 444 228 444 228 467 224 c 128,-1,44
 490 220 490 220 516 220 c 0,45,46
 543 220 543 220 565.5 224 c 128,-1,47
 588 228 588 228 605 235 c 128,-1,48
 622 242 622 242 631.5 251.5 c 128,-1,49
 641 261 641 261 641 272 c 256,50,51
 641 283 641 283 631.5 292.5 c 128,-1,52
 622 302 622 302 605 309 c 128,-1,53
 588 316 588 316 565.5 320 c 128,-1,54
 543 324 543 324 516 324 c 0,55,56
 490 324 490 324 467 320 c 128,-1,57
 444 316 444 316 427 309 c 128,-1,58
 410 302 410 302 400.5 292.5 c 128,-1,59
 391 283 391 283 391 272 c 256,40,41
311 461 m 256,60,61
 311 478 311 478 326.5 493.5 c 128,-1,62
 342 509 342 509 370 520 c 128,-1,63
 398 531 398 531 435.5 537.5 c 128,-1,64
 473 544 473 544 516 544 c 0,65,66
 560 544 560 544 597.5 537.5 c 128,-1,67
 635 531 635 531 662.5 520 c 128,-1,68
 690 509 690 509 706 493.5 c 128,-1,69
 722 478 722 478 722 461 c 256,70,71
 722 444 722 444 706 429 c 128,-1,72
 690 414 690 414 662.5 402.5 c 128,-1,73
 635 391 635 391 597.5 384.5 c 128,-1,74
 560 378 560 378 516 378 c 0,75,76
 473 378 473 378 435.5 384.5 c 128,-1,77
 398 391 398 391 370 402.5 c 128,-1,78
 342 414 342 414 326.5 429 c 128,-1,79
 311 444 311 444 311 461 c 256,60,61
311 648 m 256,80,81
 311 665 311 665 326.5 680.5 c 128,-1,82
 342 696 342 696 370 707 c 128,-1,83
 398 718 398 718 435.5 724.5 c 128,-1,84
 473 731 473 731 516 731 c 0,85,86
 560 731 560 731 597.5 724.5 c 128,-1,87
 635 718 635 718 662.5 707 c 128,-1,88
 690 696 690 696 706 680.5 c 128,-1,89
 722 665 722 665 722 648 c 256,90,91
 722 631 722 631 706 616 c 128,-1,92
 690 601 690 601 662.5 589.5 c 128,-1,93
 635 578 635 578 597.5 571.5 c 128,-1,94
 560 565 560 565 516 565 c 0,95,96
 473 565 473 565 435.5 571.5 c 128,-1,97
 398 578 398 578 370 589.5 c 128,-1,98
 342 601 342 601 326.5 616 c 128,-1,99
 311 631 311 631 311 648 c 256,80,81
391 648 m 0,100,101
 391 637 391 637 400.5 627.5 c 128,-1,102
 410 618 410 618 427 611 c 128,-1,103
 444 604 444 604 467 600 c 128,-1,104
 490 596 490 596 516 596 c 0,105,106
 543 596 543 596 565.5 600 c 128,-1,107
 588 604 588 604 605 611 c 128,-1,108
 622 618 622 618 631.5 627.5 c 128,-1,109
 641 637 641 637 641 648 c 0,110,111
 641 658 641 658 631.5 668 c 128,-1,112
 622 678 622 678 605 685 c 128,-1,113
 588 692 588 692 565.5 696 c 128,-1,114
 543 700 543 700 516 700 c 0,115,116
 490 700 490 700 467 696 c 128,-1,117
 444 692 444 692 427 685 c 128,-1,118
 410 678 410 678 400.5 668 c 128,-1,119
 391 658 391 658 391 648 c 0,100,101
EndSplineSet
EndChar

StartChar: uni0086
Encoding: 134 134 104
Width: 1033
Flags: W
LayerCount: 2
Fore
SplineSet
311 85 m 0,0,1
 311 103 311 103 326.5 118 c 128,-1,2
 342 133 342 133 370 144.5 c 128,-1,3
 398 156 398 156 435.5 162.5 c 128,-1,4
 473 169 473 169 516 169 c 0,5,6
 560 169 560 169 597.5 162.5 c 128,-1,7
 635 156 635 156 662.5 144.5 c 128,-1,8
 690 133 690 133 706 118 c 128,-1,9
 722 103 722 103 722 85 c 0,10,11
 722 68 722 68 706 53 c 128,-1,12
 690 38 690 38 662.5 27 c 128,-1,13
 635 16 635 16 597.5 9.5 c 128,-1,14
 560 3 560 3 516 3 c 0,15,16
 473 3 473 3 435.5 9.5 c 128,-1,17
 398 16 398 16 370 27 c 128,-1,18
 342 38 342 38 326.5 53 c 128,-1,19
 311 68 311 68 311 85 c 0,0,1
391 85 m 256,20,21
 391 74 391 74 400.5 64.5 c 128,-1,22
 410 55 410 55 427 48.5 c 128,-1,23
 444 42 444 42 467 38 c 128,-1,24
 490 34 490 34 516 34 c 0,25,26
 543 34 543 34 565.5 38 c 128,-1,27
 588 42 588 42 605 48.5 c 128,-1,28
 622 55 622 55 631.5 64.5 c 128,-1,29
 641 74 641 74 641 85 c 256,30,31
 641 96 641 96 631.5 105.5 c 128,-1,32
 622 115 622 115 605 122 c 128,-1,33
 588 129 588 129 565.5 133 c 128,-1,34
 543 137 543 137 516 137 c 0,35,36
 490 137 490 137 467 133 c 128,-1,37
 444 129 444 129 427 122 c 128,-1,38
 410 115 410 115 400.5 105.5 c 128,-1,39
 391 96 391 96 391 85 c 256,20,21
311 272 m 0,40,41
 311 290 311 290 326.5 305 c 128,-1,42
 342 320 342 320 370 331.5 c 128,-1,43
 398 343 398 343 435.5 349 c 128,-1,44
 473 355 473 355 516 355 c 0,45,46
 560 355 560 355 597.5 349 c 128,-1,47
 635 343 635 343 662.5 331.5 c 128,-1,48
 690 320 690 320 706 305 c 128,-1,49
 722 290 722 290 722 272 c 0,50,51
 722 255 722 255 706 240 c 128,-1,52
 690 225 690 225 662.5 214 c 128,-1,53
 635 203 635 203 597.5 196 c 128,-1,54
 560 189 560 189 516 189 c 0,55,56
 473 189 473 189 435.5 196 c 128,-1,57
 398 203 398 203 370 214 c 128,-1,58
 342 225 342 225 326.5 240 c 128,-1,59
 311 255 311 255 311 272 c 0,40,41
311 461 m 256,60,61
 311 478 311 478 326.5 493.5 c 128,-1,62
 342 509 342 509 370 520 c 128,-1,63
 398 531 398 531 435.5 537.5 c 128,-1,64
 473 544 473 544 516 544 c 0,65,66
 560 544 560 544 597.5 537.5 c 128,-1,67
 635 531 635 531 662.5 520 c 128,-1,68
 690 509 690 509 706 493.5 c 128,-1,69
 722 478 722 478 722 461 c 256,70,71
 722 444 722 444 706 429 c 128,-1,72
 690 414 690 414 662.5 402.5 c 128,-1,73
 635 391 635 391 597.5 384.5 c 128,-1,74
 560 378 560 378 516 378 c 0,75,76
 473 378 473 378 435.5 384.5 c 128,-1,77
 398 391 398 391 370 402.5 c 128,-1,78
 342 414 342 414 326.5 429 c 128,-1,79
 311 444 311 444 311 461 c 256,60,61
311 648 m 256,80,81
 311 665 311 665 326.5 680.5 c 128,-1,82
 342 696 342 696 370 707 c 128,-1,83
 398 718 398 718 435.5 724.5 c 128,-1,84
 473 731 473 731 516 731 c 0,85,86
 560 731 560 731 597.5 724.5 c 128,-1,87
 635 718 635 718 662.5 707 c 128,-1,88
 690 696 690 696 706 680.5 c 128,-1,89
 722 665 722 665 722 648 c 256,90,91
 722 631 722 631 706 616 c 128,-1,92
 690 601 690 601 662.5 589.5 c 128,-1,93
 635 578 635 578 597.5 571.5 c 128,-1,94
 560 565 560 565 516 565 c 0,95,96
 473 565 473 565 435.5 571.5 c 128,-1,97
 398 578 398 578 370 589.5 c 128,-1,98
 342 601 342 601 326.5 616 c 128,-1,99
 311 631 311 631 311 648 c 256,80,81
391 648 m 0,100,101
 391 637 391 637 400.5 627.5 c 128,-1,102
 410 618 410 618 427 611 c 128,-1,103
 444 604 444 604 467 600 c 128,-1,104
 490 596 490 596 516 596 c 0,105,106
 543 596 543 596 565.5 600 c 128,-1,107
 588 604 588 604 605 611 c 128,-1,108
 622 618 622 618 631.5 627.5 c 128,-1,109
 641 637 641 637 641 648 c 0,110,111
 641 658 641 658 631.5 668 c 128,-1,112
 622 678 622 678 605 685 c 128,-1,113
 588 692 588 692 565.5 696 c 128,-1,114
 543 700 543 700 516 700 c 0,115,116
 490 700 490 700 467 696 c 128,-1,117
 444 692 444 692 427 685 c 128,-1,118
 410 678 410 678 400.5 668 c 128,-1,119
 391 658 391 658 391 648 c 0,100,101
EndSplineSet
EndChar

StartChar: uni0087
Encoding: 135 135 105
Width: 1033
Flags: W
LayerCount: 2
Fore
SplineSet
311 85 m 0,0,1
 311 103 311 103 326.5 118 c 128,-1,2
 342 133 342 133 370 144.5 c 128,-1,3
 398 156 398 156 435.5 162.5 c 128,-1,4
 473 169 473 169 516 169 c 0,5,6
 560 169 560 169 597.5 162.5 c 128,-1,7
 635 156 635 156 662.5 144.5 c 128,-1,8
 690 133 690 133 706 118 c 128,-1,9
 722 103 722 103 722 85 c 0,10,11
 722 68 722 68 706 53 c 128,-1,12
 690 38 690 38 662.5 27 c 128,-1,13
 635 16 635 16 597.5 9.5 c 128,-1,14
 560 3 560 3 516 3 c 0,15,16
 473 3 473 3 435.5 9.5 c 128,-1,17
 398 16 398 16 370 27 c 128,-1,18
 342 38 342 38 326.5 53 c 128,-1,19
 311 68 311 68 311 85 c 0,0,1
311 272 m 0,20,21
 311 290 311 290 326.5 305 c 128,-1,22
 342 320 342 320 370 331.5 c 128,-1,23
 398 343 398 343 435.5 349 c 128,-1,24
 473 355 473 355 516 355 c 0,25,26
 560 355 560 355 597.5 349 c 128,-1,27
 635 343 635 343 662.5 331.5 c 128,-1,28
 690 320 690 320 706 305 c 128,-1,29
 722 290 722 290 722 272 c 0,30,31
 722 255 722 255 706 240 c 128,-1,32
 690 225 690 225 662.5 214 c 128,-1,33
 635 203 635 203 597.5 196 c 128,-1,34
 560 189 560 189 516 189 c 0,35,36
 473 189 473 189 435.5 196 c 128,-1,37
 398 203 398 203 370 214 c 128,-1,38
 342 225 342 225 326.5 240 c 128,-1,39
 311 255 311 255 311 272 c 0,20,21
311 461 m 256,40,41
 311 478 311 478 326.5 493.5 c 128,-1,42
 342 509 342 509 370 520 c 128,-1,43
 398 531 398 531 435.5 537.5 c 128,-1,44
 473 544 473 544 516 544 c 0,45,46
 560 544 560 544 597.5 537.5 c 128,-1,47
 635 531 635 531 662.5 520 c 128,-1,48
 690 509 690 509 706 493.5 c 128,-1,49
 722 478 722 478 722 461 c 256,50,51
 722 444 722 444 706 429 c 128,-1,52
 690 414 690 414 662.5 402.5 c 128,-1,53
 635 391 635 391 597.5 384.5 c 128,-1,54
 560 378 560 378 516 378 c 0,55,56
 473 378 473 378 435.5 384.5 c 128,-1,57
 398 391 398 391 370 402.5 c 128,-1,58
 342 414 342 414 326.5 429 c 128,-1,59
 311 444 311 444 311 461 c 256,40,41
311 648 m 256,60,61
 311 665 311 665 326.5 680.5 c 128,-1,62
 342 696 342 696 370 707 c 128,-1,63
 398 718 398 718 435.5 724.5 c 128,-1,64
 473 731 473 731 516 731 c 0,65,66
 560 731 560 731 597.5 724.5 c 128,-1,67
 635 718 635 718 662.5 707 c 128,-1,68
 690 696 690 696 706 680.5 c 128,-1,69
 722 665 722 665 722 648 c 256,70,71
 722 631 722 631 706 616 c 128,-1,72
 690 601 690 601 662.5 589.5 c 128,-1,73
 635 578 635 578 597.5 571.5 c 128,-1,74
 560 565 560 565 516 565 c 0,75,76
 473 565 473 565 435.5 571.5 c 128,-1,77
 398 578 398 578 370 589.5 c 128,-1,78
 342 601 342 601 326.5 616 c 128,-1,79
 311 631 311 631 311 648 c 256,60,61
391 648 m 0,80,81
 391 637 391 637 400.5 627.5 c 128,-1,82
 410 618 410 618 427 611 c 128,-1,83
 444 604 444 604 467 600 c 128,-1,84
 490 596 490 596 516 596 c 0,85,86
 543 596 543 596 565.5 600 c 128,-1,87
 588 604 588 604 605 611 c 128,-1,88
 622 618 622 618 631.5 627.5 c 128,-1,89
 641 637 641 637 641 648 c 0,90,91
 641 658 641 658 631.5 668 c 128,-1,92
 622 678 622 678 605 685 c 128,-1,93
 588 692 588 692 565.5 696 c 128,-1,94
 543 700 543 700 516 700 c 0,95,96
 490 700 490 700 467 696 c 128,-1,97
 444 692 444 692 427 685 c 128,-1,98
 410 678 410 678 400.5 668 c 128,-1,99
 391 658 391 658 391 648 c 0,80,81
EndSplineSet
EndChar

StartChar: uni0088
Encoding: 136 136 106
Width: 1033
Flags: W
LayerCount: 2
Fore
SplineSet
311 85 m 0,0,1
 311 103 311 103 326.5 118 c 128,-1,2
 342 133 342 133 370 144.5 c 128,-1,3
 398 156 398 156 435.5 162.5 c 128,-1,4
 473 169 473 169 516 169 c 0,5,6
 560 169 560 169 597.5 162.5 c 128,-1,7
 635 156 635 156 662.5 144.5 c 128,-1,8
 690 133 690 133 706 118 c 128,-1,9
 722 103 722 103 722 85 c 0,10,11
 722 68 722 68 706 53 c 128,-1,12
 690 38 690 38 662.5 27 c 128,-1,13
 635 16 635 16 597.5 9.5 c 128,-1,14
 560 3 560 3 516 3 c 0,15,16
 473 3 473 3 435.5 9.5 c 128,-1,17
 398 16 398 16 370 27 c 128,-1,18
 342 38 342 38 326.5 53 c 128,-1,19
 311 68 311 68 311 85 c 0,0,1
391 85 m 256,20,21
 391 74 391 74 400.5 64.5 c 128,-1,22
 410 55 410 55 427 48.5 c 128,-1,23
 444 42 444 42 467 38 c 128,-1,24
 490 34 490 34 516 34 c 0,25,26
 543 34 543 34 565.5 38 c 128,-1,27
 588 42 588 42 605 48.5 c 128,-1,28
 622 55 622 55 631.5 64.5 c 128,-1,29
 641 74 641 74 641 85 c 256,30,31
 641 96 641 96 631.5 105.5 c 128,-1,32
 622 115 622 115 605 122 c 128,-1,33
 588 129 588 129 565.5 133 c 128,-1,34
 543 137 543 137 516 137 c 0,35,36
 490 137 490 137 467 133 c 128,-1,37
 444 129 444 129 427 122 c 128,-1,38
 410 115 410 115 400.5 105.5 c 128,-1,39
 391 96 391 96 391 85 c 256,20,21
311 272 m 0,40,41
 311 290 311 290 326.5 305 c 128,-1,42
 342 320 342 320 370 331.5 c 128,-1,43
 398 343 398 343 435.5 349 c 128,-1,44
 473 355 473 355 516 355 c 0,45,46
 560 355 560 355 597.5 349 c 128,-1,47
 635 343 635 343 662.5 331.5 c 128,-1,48
 690 320 690 320 706 305 c 128,-1,49
 722 290 722 290 722 272 c 0,50,51
 722 255 722 255 706 240 c 128,-1,52
 690 225 690 225 662.5 214 c 128,-1,53
 635 203 635 203 597.5 196 c 128,-1,54
 560 189 560 189 516 189 c 0,55,56
 473 189 473 189 435.5 196 c 128,-1,57
 398 203 398 203 370 214 c 128,-1,58
 342 225 342 225 326.5 240 c 128,-1,59
 311 255 311 255 311 272 c 0,40,41
391 272 m 256,60,61
 391 261 391 261 400.5 251.5 c 128,-1,62
 410 242 410 242 427 235 c 128,-1,63
 444 228 444 228 467 224 c 128,-1,64
 490 220 490 220 516 220 c 0,65,66
 543 220 543 220 565.5 224 c 128,-1,67
 588 228 588 228 605 235 c 128,-1,68
 622 242 622 242 631.5 251.5 c 128,-1,69
 641 261 641 261 641 272 c 256,70,71
 641 283 641 283 631.5 292.5 c 128,-1,72
 622 302 622 302 605 309 c 128,-1,73
 588 316 588 316 565.5 320 c 128,-1,74
 543 324 543 324 516 324 c 0,75,76
 490 324 490 324 467 320 c 128,-1,77
 444 316 444 316 427 309 c 128,-1,78
 410 302 410 302 400.5 292.5 c 128,-1,79
 391 283 391 283 391 272 c 256,60,61
311 461 m 256,80,81
 311 478 311 478 326.5 493.5 c 128,-1,82
 342 509 342 509 370 520 c 128,-1,83
 398 531 398 531 435.5 537.5 c 128,-1,84
 473 544 473 544 516 544 c 0,85,86
 560 544 560 544 597.5 537.5 c 128,-1,87
 635 531 635 531 662.5 520 c 128,-1,88
 690 509 690 509 706 493.5 c 128,-1,89
 722 478 722 478 722 461 c 256,90,91
 722 444 722 444 706 429 c 128,-1,92
 690 414 690 414 662.5 402.5 c 128,-1,93
 635 391 635 391 597.5 384.5 c 128,-1,94
 560 378 560 378 516 378 c 0,95,96
 473 378 473 378 435.5 384.5 c 128,-1,97
 398 391 398 391 370 402.5 c 128,-1,98
 342 414 342 414 326.5 429 c 128,-1,99
 311 444 311 444 311 461 c 256,80,81
391 461 m 256,100,101
 391 450 391 450 400.5 440.5 c 128,-1,102
 410 431 410 431 427 424 c 128,-1,103
 444 417 444 417 467 413 c 128,-1,104
 490 409 490 409 516 409 c 0,105,106
 543 409 543 409 565.5 413 c 128,-1,107
 588 417 588 417 605 424 c 128,-1,108
 622 431 622 431 631.5 440.5 c 128,-1,109
 641 450 641 450 641 461 c 256,110,111
 641 472 641 472 631.5 481.5 c 128,-1,112
 622 491 622 491 605 498 c 128,-1,113
 588 505 588 505 565.5 509 c 128,-1,114
 543 513 543 513 516 513 c 0,115,116
 490 513 490 513 467 509 c 128,-1,117
 444 505 444 505 427 498 c 128,-1,118
 410 491 410 491 400.5 481.5 c 128,-1,119
 391 472 391 472 391 461 c 256,100,101
311 648 m 256,120,121
 311 665 311 665 326.5 680.5 c 128,-1,122
 342 696 342 696 370 707 c 128,-1,123
 398 718 398 718 435.5 724.5 c 128,-1,124
 473 731 473 731 516 731 c 0,125,126
 560 731 560 731 597.5 724.5 c 128,-1,127
 635 718 635 718 662.5 707 c 128,-1,128
 690 696 690 696 706 680.5 c 128,-1,129
 722 665 722 665 722 648 c 256,130,131
 722 631 722 631 706 616 c 128,-1,132
 690 601 690 601 662.5 589.5 c 128,-1,133
 635 578 635 578 597.5 571.5 c 128,-1,134
 560 565 560 565 516 565 c 0,135,136
 473 565 473 565 435.5 571.5 c 128,-1,137
 398 578 398 578 370 589.5 c 128,-1,138
 342 601 342 601 326.5 616 c 128,-1,139
 311 631 311 631 311 648 c 256,120,121
EndSplineSet
EndChar

StartChar: uni0089
Encoding: 137 137 107
Width: 1033
Flags: W
LayerCount: 2
Fore
SplineSet
311 85 m 0,0,1
 311 103 311 103 326.5 118 c 128,-1,2
 342 133 342 133 370 144.5 c 128,-1,3
 398 156 398 156 435.5 162.5 c 128,-1,4
 473 169 473 169 516 169 c 0,5,6
 560 169 560 169 597.5 162.5 c 128,-1,7
 635 156 635 156 662.5 144.5 c 128,-1,8
 690 133 690 133 706 118 c 128,-1,9
 722 103 722 103 722 85 c 0,10,11
 722 68 722 68 706 53 c 128,-1,12
 690 38 690 38 662.5 27 c 128,-1,13
 635 16 635 16 597.5 9.5 c 128,-1,14
 560 3 560 3 516 3 c 0,15,16
 473 3 473 3 435.5 9.5 c 128,-1,17
 398 16 398 16 370 27 c 128,-1,18
 342 38 342 38 326.5 53 c 128,-1,19
 311 68 311 68 311 85 c 0,0,1
311 272 m 0,20,21
 311 290 311 290 326.5 305 c 128,-1,22
 342 320 342 320 370 331.5 c 128,-1,23
 398 343 398 343 435.5 349 c 128,-1,24
 473 355 473 355 516 355 c 0,25,26
 560 355 560 355 597.5 349 c 128,-1,27
 635 343 635 343 662.5 331.5 c 128,-1,28
 690 320 690 320 706 305 c 128,-1,29
 722 290 722 290 722 272 c 0,30,31
 722 255 722 255 706 240 c 128,-1,32
 690 225 690 225 662.5 214 c 128,-1,33
 635 203 635 203 597.5 196 c 128,-1,34
 560 189 560 189 516 189 c 0,35,36
 473 189 473 189 435.5 196 c 128,-1,37
 398 203 398 203 370 214 c 128,-1,38
 342 225 342 225 326.5 240 c 128,-1,39
 311 255 311 255 311 272 c 0,20,21
391 272 m 256,40,41
 391 261 391 261 400.5 251.5 c 128,-1,42
 410 242 410 242 427 235 c 128,-1,43
 444 228 444 228 467 224 c 128,-1,44
 490 220 490 220 516 220 c 0,45,46
 543 220 543 220 565.5 224 c 128,-1,47
 588 228 588 228 605 235 c 128,-1,48
 622 242 622 242 631.5 251.5 c 128,-1,49
 641 261 641 261 641 272 c 256,50,51
 641 283 641 283 631.5 292.5 c 128,-1,52
 622 302 622 302 605 309 c 128,-1,53
 588 316 588 316 565.5 320 c 128,-1,54
 543 324 543 324 516 324 c 0,55,56
 490 324 490 324 467 320 c 128,-1,57
 444 316 444 316 427 309 c 128,-1,58
 410 302 410 302 400.5 292.5 c 128,-1,59
 391 283 391 283 391 272 c 256,40,41
311 461 m 256,60,61
 311 478 311 478 326.5 493.5 c 128,-1,62
 342 509 342 509 370 520 c 128,-1,63
 398 531 398 531 435.5 537.5 c 128,-1,64
 473 544 473 544 516 544 c 0,65,66
 560 544 560 544 597.5 537.5 c 128,-1,67
 635 531 635 531 662.5 520 c 128,-1,68
 690 509 690 509 706 493.5 c 128,-1,69
 722 478 722 478 722 461 c 256,70,71
 722 444 722 444 706 429 c 128,-1,72
 690 414 690 414 662.5 402.5 c 128,-1,73
 635 391 635 391 597.5 384.5 c 128,-1,74
 560 378 560 378 516 378 c 0,75,76
 473 378 473 378 435.5 384.5 c 128,-1,77
 398 391 398 391 370 402.5 c 128,-1,78
 342 414 342 414 326.5 429 c 128,-1,79
 311 444 311 444 311 461 c 256,60,61
391 461 m 256,80,81
 391 450 391 450 400.5 440.5 c 128,-1,82
 410 431 410 431 427 424 c 128,-1,83
 444 417 444 417 467 413 c 128,-1,84
 490 409 490 409 516 409 c 0,85,86
 543 409 543 409 565.5 413 c 128,-1,87
 588 417 588 417 605 424 c 128,-1,88
 622 431 622 431 631.5 440.5 c 128,-1,89
 641 450 641 450 641 461 c 256,90,91
 641 472 641 472 631.5 481.5 c 128,-1,92
 622 491 622 491 605 498 c 128,-1,93
 588 505 588 505 565.5 509 c 128,-1,94
 543 513 543 513 516 513 c 0,95,96
 490 513 490 513 467 509 c 128,-1,97
 444 505 444 505 427 498 c 128,-1,98
 410 491 410 491 400.5 481.5 c 128,-1,99
 391 472 391 472 391 461 c 256,80,81
311 648 m 256,100,101
 311 665 311 665 326.5 680.5 c 128,-1,102
 342 696 342 696 370 707 c 128,-1,103
 398 718 398 718 435.5 724.5 c 128,-1,104
 473 731 473 731 516 731 c 0,105,106
 560 731 560 731 597.5 724.5 c 128,-1,107
 635 718 635 718 662.5 707 c 128,-1,108
 690 696 690 696 706 680.5 c 128,-1,109
 722 665 722 665 722 648 c 256,110,111
 722 631 722 631 706 616 c 128,-1,112
 690 601 690 601 662.5 589.5 c 128,-1,113
 635 578 635 578 597.5 571.5 c 128,-1,114
 560 565 560 565 516 565 c 0,115,116
 473 565 473 565 435.5 571.5 c 128,-1,117
 398 578 398 578 370 589.5 c 128,-1,118
 342 601 342 601 326.5 616 c 128,-1,119
 311 631 311 631 311 648 c 256,100,101
EndSplineSet
EndChar

StartChar: uni008A
Encoding: 138 138 108
Width: 1033
Flags: W
LayerCount: 2
Fore
SplineSet
311 85 m 0,0,1
 311 103 311 103 326.5 118 c 128,-1,2
 342 133 342 133 370 144.5 c 128,-1,3
 398 156 398 156 435.5 162.5 c 128,-1,4
 473 169 473 169 516 169 c 0,5,6
 560 169 560 169 597.5 162.5 c 128,-1,7
 635 156 635 156 662.5 144.5 c 128,-1,8
 690 133 690 133 706 118 c 128,-1,9
 722 103 722 103 722 85 c 0,10,11
 722 68 722 68 706 53 c 128,-1,12
 690 38 690 38 662.5 27 c 128,-1,13
 635 16 635 16 597.5 9.5 c 128,-1,14
 560 3 560 3 516 3 c 0,15,16
 473 3 473 3 435.5 9.5 c 128,-1,17
 398 16 398 16 370 27 c 128,-1,18
 342 38 342 38 326.5 53 c 128,-1,19
 311 68 311 68 311 85 c 0,0,1
391 85 m 256,20,21
 391 74 391 74 400.5 64.5 c 128,-1,22
 410 55 410 55 427 48.5 c 128,-1,23
 444 42 444 42 467 38 c 128,-1,24
 490 34 490 34 516 34 c 0,25,26
 543 34 543 34 565.5 38 c 128,-1,27
 588 42 588 42 605 48.5 c 128,-1,28
 622 55 622 55 631.5 64.5 c 128,-1,29
 641 74 641 74 641 85 c 256,30,31
 641 96 641 96 631.5 105.5 c 128,-1,32
 622 115 622 115 605 122 c 128,-1,33
 588 129 588 129 565.5 133 c 128,-1,34
 543 137 543 137 516 137 c 0,35,36
 490 137 490 137 467 133 c 128,-1,37
 444 129 444 129 427 122 c 128,-1,38
 410 115 410 115 400.5 105.5 c 128,-1,39
 391 96 391 96 391 85 c 256,20,21
311 272 m 0,40,41
 311 290 311 290 326.5 305 c 128,-1,42
 342 320 342 320 370 331.5 c 128,-1,43
 398 343 398 343 435.5 349 c 128,-1,44
 473 355 473 355 516 355 c 0,45,46
 560 355 560 355 597.5 349 c 128,-1,47
 635 343 635 343 662.5 331.5 c 128,-1,48
 690 320 690 320 706 305 c 128,-1,49
 722 290 722 290 722 272 c 0,50,51
 722 255 722 255 706 240 c 128,-1,52
 690 225 690 225 662.5 214 c 128,-1,53
 635 203 635 203 597.5 196 c 128,-1,54
 560 189 560 189 516 189 c 0,55,56
 473 189 473 189 435.5 196 c 128,-1,57
 398 203 398 203 370 214 c 128,-1,58
 342 225 342 225 326.5 240 c 128,-1,59
 311 255 311 255 311 272 c 0,40,41
311 461 m 256,60,61
 311 478 311 478 326.5 493.5 c 128,-1,62
 342 509 342 509 370 520 c 128,-1,63
 398 531 398 531 435.5 537.5 c 128,-1,64
 473 544 473 544 516 544 c 0,65,66
 560 544 560 544 597.5 537.5 c 128,-1,67
 635 531 635 531 662.5 520 c 128,-1,68
 690 509 690 509 706 493.5 c 128,-1,69
 722 478 722 478 722 461 c 256,70,71
 722 444 722 444 706 429 c 128,-1,72
 690 414 690 414 662.5 402.5 c 128,-1,73
 635 391 635 391 597.5 384.5 c 128,-1,74
 560 378 560 378 516 378 c 0,75,76
 473 378 473 378 435.5 384.5 c 128,-1,77
 398 391 398 391 370 402.5 c 128,-1,78
 342 414 342 414 326.5 429 c 128,-1,79
 311 444 311 444 311 461 c 256,60,61
391 461 m 256,80,81
 391 450 391 450 400.5 440.5 c 128,-1,82
 410 431 410 431 427 424 c 128,-1,83
 444 417 444 417 467 413 c 128,-1,84
 490 409 490 409 516 409 c 0,85,86
 543 409 543 409 565.5 413 c 128,-1,87
 588 417 588 417 605 424 c 128,-1,88
 622 431 622 431 631.5 440.5 c 128,-1,89
 641 450 641 450 641 461 c 256,90,91
 641 472 641 472 631.5 481.5 c 128,-1,92
 622 491 622 491 605 498 c 128,-1,93
 588 505 588 505 565.5 509 c 128,-1,94
 543 513 543 513 516 513 c 0,95,96
 490 513 490 513 467 509 c 128,-1,97
 444 505 444 505 427 498 c 128,-1,98
 410 491 410 491 400.5 481.5 c 128,-1,99
 391 472 391 472 391 461 c 256,80,81
311 648 m 256,100,101
 311 665 311 665 326.5 680.5 c 128,-1,102
 342 696 342 696 370 707 c 128,-1,103
 398 718 398 718 435.5 724.5 c 128,-1,104
 473 731 473 731 516 731 c 0,105,106
 560 731 560 731 597.5 724.5 c 128,-1,107
 635 718 635 718 662.5 707 c 128,-1,108
 690 696 690 696 706 680.5 c 128,-1,109
 722 665 722 665 722 648 c 256,110,111
 722 631 722 631 706 616 c 128,-1,112
 690 601 690 601 662.5 589.5 c 128,-1,113
 635 578 635 578 597.5 571.5 c 128,-1,114
 560 565 560 565 516 565 c 0,115,116
 473 565 473 565 435.5 571.5 c 128,-1,117
 398 578 398 578 370 589.5 c 128,-1,118
 342 601 342 601 326.5 616 c 128,-1,119
 311 631 311 631 311 648 c 256,100,101
EndSplineSet
EndChar

StartChar: uni008B
Encoding: 139 139 109
Width: 1033
Flags: W
LayerCount: 2
Fore
SplineSet
311 85 m 0,0,1
 311 103 311 103 326.5 118 c 128,-1,2
 342 133 342 133 370 144.5 c 128,-1,3
 398 156 398 156 435.5 162.5 c 128,-1,4
 473 169 473 169 516 169 c 0,5,6
 560 169 560 169 597.5 162.5 c 128,-1,7
 635 156 635 156 662.5 144.5 c 128,-1,8
 690 133 690 133 706 118 c 128,-1,9
 722 103 722 103 722 85 c 0,10,11
 722 68 722 68 706 53 c 128,-1,12
 690 38 690 38 662.5 27 c 128,-1,13
 635 16 635 16 597.5 9.5 c 128,-1,14
 560 3 560 3 516 3 c 0,15,16
 473 3 473 3 435.5 9.5 c 128,-1,17
 398 16 398 16 370 27 c 128,-1,18
 342 38 342 38 326.5 53 c 128,-1,19
 311 68 311 68 311 85 c 0,0,1
311 272 m 0,20,21
 311 290 311 290 326.5 305 c 128,-1,22
 342 320 342 320 370 331.5 c 128,-1,23
 398 343 398 343 435.5 349 c 128,-1,24
 473 355 473 355 516 355 c 0,25,26
 560 355 560 355 597.5 349 c 128,-1,27
 635 343 635 343 662.5 331.5 c 128,-1,28
 690 320 690 320 706 305 c 128,-1,29
 722 290 722 290 722 272 c 0,30,31
 722 255 722 255 706 240 c 128,-1,32
 690 225 690 225 662.5 214 c 128,-1,33
 635 203 635 203 597.5 196 c 128,-1,34
 560 189 560 189 516 189 c 0,35,36
 473 189 473 189 435.5 196 c 128,-1,37
 398 203 398 203 370 214 c 128,-1,38
 342 225 342 225 326.5 240 c 128,-1,39
 311 255 311 255 311 272 c 0,20,21
311 461 m 256,40,41
 311 478 311 478 326.5 493.5 c 128,-1,42
 342 509 342 509 370 520 c 128,-1,43
 398 531 398 531 435.5 537.5 c 128,-1,44
 473 544 473 544 516 544 c 0,45,46
 560 544 560 544 597.5 537.5 c 128,-1,47
 635 531 635 531 662.5 520 c 128,-1,48
 690 509 690 509 706 493.5 c 128,-1,49
 722 478 722 478 722 461 c 256,50,51
 722 444 722 444 706 429 c 128,-1,52
 690 414 690 414 662.5 402.5 c 128,-1,53
 635 391 635 391 597.5 384.5 c 128,-1,54
 560 378 560 378 516 378 c 0,55,56
 473 378 473 378 435.5 384.5 c 128,-1,57
 398 391 398 391 370 402.5 c 128,-1,58
 342 414 342 414 326.5 429 c 128,-1,59
 311 444 311 444 311 461 c 256,40,41
391 461 m 256,60,61
 391 450 391 450 400.5 440.5 c 128,-1,62
 410 431 410 431 427 424 c 128,-1,63
 444 417 444 417 467 413 c 128,-1,64
 490 409 490 409 516 409 c 0,65,66
 543 409 543 409 565.5 413 c 128,-1,67
 588 417 588 417 605 424 c 128,-1,68
 622 431 622 431 631.5 440.5 c 128,-1,69
 641 450 641 450 641 461 c 256,70,71
 641 472 641 472 631.5 481.5 c 128,-1,72
 622 491 622 491 605 498 c 128,-1,73
 588 505 588 505 565.5 509 c 128,-1,74
 543 513 543 513 516 513 c 0,75,76
 490 513 490 513 467 509 c 128,-1,77
 444 505 444 505 427 498 c 128,-1,78
 410 491 410 491 400.5 481.5 c 128,-1,79
 391 472 391 472 391 461 c 256,60,61
311 648 m 256,80,81
 311 665 311 665 326.5 680.5 c 128,-1,82
 342 696 342 696 370 707 c 128,-1,83
 398 718 398 718 435.5 724.5 c 128,-1,84
 473 731 473 731 516 731 c 0,85,86
 560 731 560 731 597.5 724.5 c 128,-1,87
 635 718 635 718 662.5 707 c 128,-1,88
 690 696 690 696 706 680.5 c 128,-1,89
 722 665 722 665 722 648 c 256,90,91
 722 631 722 631 706 616 c 128,-1,92
 690 601 690 601 662.5 589.5 c 128,-1,93
 635 578 635 578 597.5 571.5 c 128,-1,94
 560 565 560 565 516 565 c 0,95,96
 473 565 473 565 435.5 571.5 c 128,-1,97
 398 578 398 578 370 589.5 c 128,-1,98
 342 601 342 601 326.5 616 c 128,-1,99
 311 631 311 631 311 648 c 256,80,81
EndSplineSet
EndChar

StartChar: uni008C
Encoding: 140 140 110
Width: 1033
Flags: W
LayerCount: 2
Fore
SplineSet
311 85 m 0,0,1
 311 103 311 103 326.5 118 c 128,-1,2
 342 133 342 133 370 144.5 c 128,-1,3
 398 156 398 156 435.5 162.5 c 128,-1,4
 473 169 473 169 516 169 c 0,5,6
 560 169 560 169 597.5 162.5 c 128,-1,7
 635 156 635 156 662.5 144.5 c 128,-1,8
 690 133 690 133 706 118 c 128,-1,9
 722 103 722 103 722 85 c 0,10,11
 722 68 722 68 706 53 c 128,-1,12
 690 38 690 38 662.5 27 c 128,-1,13
 635 16 635 16 597.5 9.5 c 128,-1,14
 560 3 560 3 516 3 c 0,15,16
 473 3 473 3 435.5 9.5 c 128,-1,17
 398 16 398 16 370 27 c 128,-1,18
 342 38 342 38 326.5 53 c 128,-1,19
 311 68 311 68 311 85 c 0,0,1
391 85 m 256,20,21
 391 74 391 74 400.5 64.5 c 128,-1,22
 410 55 410 55 427 48.5 c 128,-1,23
 444 42 444 42 467 38 c 128,-1,24
 490 34 490 34 516 34 c 0,25,26
 543 34 543 34 565.5 38 c 128,-1,27
 588 42 588 42 605 48.5 c 128,-1,28
 622 55 622 55 631.5 64.5 c 128,-1,29
 641 74 641 74 641 85 c 256,30,31
 641 96 641 96 631.5 105.5 c 128,-1,32
 622 115 622 115 605 122 c 128,-1,33
 588 129 588 129 565.5 133 c 128,-1,34
 543 137 543 137 516 137 c 0,35,36
 490 137 490 137 467 133 c 128,-1,37
 444 129 444 129 427 122 c 128,-1,38
 410 115 410 115 400.5 105.5 c 128,-1,39
 391 96 391 96 391 85 c 256,20,21
311 272 m 0,40,41
 311 290 311 290 326.5 305 c 128,-1,42
 342 320 342 320 370 331.5 c 128,-1,43
 398 343 398 343 435.5 349 c 128,-1,44
 473 355 473 355 516 355 c 0,45,46
 560 355 560 355 597.5 349 c 128,-1,47
 635 343 635 343 662.5 331.5 c 128,-1,48
 690 320 690 320 706 305 c 128,-1,49
 722 290 722 290 722 272 c 0,50,51
 722 255 722 255 706 240 c 128,-1,52
 690 225 690 225 662.5 214 c 128,-1,53
 635 203 635 203 597.5 196 c 128,-1,54
 560 189 560 189 516 189 c 0,55,56
 473 189 473 189 435.5 196 c 128,-1,57
 398 203 398 203 370 214 c 128,-1,58
 342 225 342 225 326.5 240 c 128,-1,59
 311 255 311 255 311 272 c 0,40,41
391 272 m 256,60,61
 391 261 391 261 400.5 251.5 c 128,-1,62
 410 242 410 242 427 235 c 128,-1,63
 444 228 444 228 467 224 c 128,-1,64
 490 220 490 220 516 220 c 0,65,66
 543 220 543 220 565.5 224 c 128,-1,67
 588 228 588 228 605 235 c 128,-1,68
 622 242 622 242 631.5 251.5 c 128,-1,69
 641 261 641 261 641 272 c 256,70,71
 641 283 641 283 631.5 292.5 c 128,-1,72
 622 302 622 302 605 309 c 128,-1,73
 588 316 588 316 565.5 320 c 128,-1,74
 543 324 543 324 516 324 c 0,75,76
 490 324 490 324 467 320 c 128,-1,77
 444 316 444 316 427 309 c 128,-1,78
 410 302 410 302 400.5 292.5 c 128,-1,79
 391 283 391 283 391 272 c 256,60,61
311 461 m 256,80,81
 311 478 311 478 326.5 493.5 c 128,-1,82
 342 509 342 509 370 520 c 128,-1,83
 398 531 398 531 435.5 537.5 c 128,-1,84
 473 544 473 544 516 544 c 0,85,86
 560 544 560 544 597.5 537.5 c 128,-1,87
 635 531 635 531 662.5 520 c 128,-1,88
 690 509 690 509 706 493.5 c 128,-1,89
 722 478 722 478 722 461 c 256,90,91
 722 444 722 444 706 429 c 128,-1,92
 690 414 690 414 662.5 402.5 c 128,-1,93
 635 391 635 391 597.5 384.5 c 128,-1,94
 560 378 560 378 516 378 c 0,95,96
 473 378 473 378 435.5 384.5 c 128,-1,97
 398 391 398 391 370 402.5 c 128,-1,98
 342 414 342 414 326.5 429 c 128,-1,99
 311 444 311 444 311 461 c 256,80,81
311 648 m 256,100,101
 311 665 311 665 326.5 680.5 c 128,-1,102
 342 696 342 696 370 707 c 128,-1,103
 398 718 398 718 435.5 724.5 c 128,-1,104
 473 731 473 731 516 731 c 0,105,106
 560 731 560 731 597.5 724.5 c 128,-1,107
 635 718 635 718 662.5 707 c 128,-1,108
 690 696 690 696 706 680.5 c 128,-1,109
 722 665 722 665 722 648 c 256,110,111
 722 631 722 631 706 616 c 128,-1,112
 690 601 690 601 662.5 589.5 c 128,-1,113
 635 578 635 578 597.5 571.5 c 128,-1,114
 560 565 560 565 516 565 c 0,115,116
 473 565 473 565 435.5 571.5 c 128,-1,117
 398 578 398 578 370 589.5 c 128,-1,118
 342 601 342 601 326.5 616 c 128,-1,119
 311 631 311 631 311 648 c 256,100,101
EndSplineSet
EndChar

StartChar: uni008D
Encoding: 141 141 111
Width: 1033
Flags: W
LayerCount: 2
Fore
SplineSet
311 85 m 0,0,1
 311 103 311 103 326.5 118 c 128,-1,2
 342 133 342 133 370 144.5 c 128,-1,3
 398 156 398 156 435.5 162.5 c 128,-1,4
 473 169 473 169 516 169 c 0,5,6
 560 169 560 169 597.5 162.5 c 128,-1,7
 635 156 635 156 662.5 144.5 c 128,-1,8
 690 133 690 133 706 118 c 128,-1,9
 722 103 722 103 722 85 c 0,10,11
 722 68 722 68 706 53 c 128,-1,12
 690 38 690 38 662.5 27 c 128,-1,13
 635 16 635 16 597.5 9.5 c 128,-1,14
 560 3 560 3 516 3 c 0,15,16
 473 3 473 3 435.5 9.5 c 128,-1,17
 398 16 398 16 370 27 c 128,-1,18
 342 38 342 38 326.5 53 c 128,-1,19
 311 68 311 68 311 85 c 0,0,1
311 272 m 0,20,21
 311 290 311 290 326.5 305 c 128,-1,22
 342 320 342 320 370 331.5 c 128,-1,23
 398 343 398 343 435.5 349 c 128,-1,24
 473 355 473 355 516 355 c 0,25,26
 560 355 560 355 597.5 349 c 128,-1,27
 635 343 635 343 662.5 331.5 c 128,-1,28
 690 320 690 320 706 305 c 128,-1,29
 722 290 722 290 722 272 c 0,30,31
 722 255 722 255 706 240 c 128,-1,32
 690 225 690 225 662.5 214 c 128,-1,33
 635 203 635 203 597.5 196 c 128,-1,34
 560 189 560 189 516 189 c 0,35,36
 473 189 473 189 435.5 196 c 128,-1,37
 398 203 398 203 370 214 c 128,-1,38
 342 225 342 225 326.5 240 c 128,-1,39
 311 255 311 255 311 272 c 0,20,21
391 272 m 256,40,41
 391 261 391 261 400.5 251.5 c 128,-1,42
 410 242 410 242 427 235 c 128,-1,43
 444 228 444 228 467 224 c 128,-1,44
 490 220 490 220 516 220 c 0,45,46
 543 220 543 220 565.5 224 c 128,-1,47
 588 228 588 228 605 235 c 128,-1,48
 622 242 622 242 631.5 251.5 c 128,-1,49
 641 261 641 261 641 272 c 256,50,51
 641 283 641 283 631.5 292.5 c 128,-1,52
 622 302 622 302 605 309 c 128,-1,53
 588 316 588 316 565.5 320 c 128,-1,54
 543 324 543 324 516 324 c 0,55,56
 490 324 490 324 467 320 c 128,-1,57
 444 316 444 316 427 309 c 128,-1,58
 410 302 410 302 400.5 292.5 c 128,-1,59
 391 283 391 283 391 272 c 256,40,41
311 461 m 256,60,61
 311 478 311 478 326.5 493.5 c 128,-1,62
 342 509 342 509 370 520 c 128,-1,63
 398 531 398 531 435.5 537.5 c 128,-1,64
 473 544 473 544 516 544 c 0,65,66
 560 544 560 544 597.5 537.5 c 128,-1,67
 635 531 635 531 662.5 520 c 128,-1,68
 690 509 690 509 706 493.5 c 128,-1,69
 722 478 722 478 722 461 c 256,70,71
 722 444 722 444 706 429 c 128,-1,72
 690 414 690 414 662.5 402.5 c 128,-1,73
 635 391 635 391 597.5 384.5 c 128,-1,74
 560 378 560 378 516 378 c 0,75,76
 473 378 473 378 435.5 384.5 c 128,-1,77
 398 391 398 391 370 402.5 c 128,-1,78
 342 414 342 414 326.5 429 c 128,-1,79
 311 444 311 444 311 461 c 256,60,61
311 648 m 256,80,81
 311 665 311 665 326.5 680.5 c 128,-1,82
 342 696 342 696 370 707 c 128,-1,83
 398 718 398 718 435.5 724.5 c 128,-1,84
 473 731 473 731 516 731 c 0,85,86
 560 731 560 731 597.5 724.5 c 128,-1,87
 635 718 635 718 662.5 707 c 128,-1,88
 690 696 690 696 706 680.5 c 128,-1,89
 722 665 722 665 722 648 c 256,90,91
 722 631 722 631 706 616 c 128,-1,92
 690 601 690 601 662.5 589.5 c 128,-1,93
 635 578 635 578 597.5 571.5 c 128,-1,94
 560 565 560 565 516 565 c 0,95,96
 473 565 473 565 435.5 571.5 c 128,-1,97
 398 578 398 578 370 589.5 c 128,-1,98
 342 601 342 601 326.5 616 c 128,-1,99
 311 631 311 631 311 648 c 256,80,81
EndSplineSet
EndChar

StartChar: uni008E
Encoding: 142 142 112
Width: 1033
Flags: W
LayerCount: 2
Fore
SplineSet
311 85 m 0,0,1
 311 103 311 103 326.5 118 c 128,-1,2
 342 133 342 133 370 144.5 c 128,-1,3
 398 156 398 156 435.5 162.5 c 128,-1,4
 473 169 473 169 516 169 c 0,5,6
 560 169 560 169 597.5 162.5 c 128,-1,7
 635 156 635 156 662.5 144.5 c 128,-1,8
 690 133 690 133 706 118 c 128,-1,9
 722 103 722 103 722 85 c 0,10,11
 722 68 722 68 706 53 c 128,-1,12
 690 38 690 38 662.5 27 c 128,-1,13
 635 16 635 16 597.5 9.5 c 128,-1,14
 560 3 560 3 516 3 c 0,15,16
 473 3 473 3 435.5 9.5 c 128,-1,17
 398 16 398 16 370 27 c 128,-1,18
 342 38 342 38 326.5 53 c 128,-1,19
 311 68 311 68 311 85 c 0,0,1
391 85 m 256,20,21
 391 74 391 74 400.5 64.5 c 128,-1,22
 410 55 410 55 427 48.5 c 128,-1,23
 444 42 444 42 467 38 c 128,-1,24
 490 34 490 34 516 34 c 0,25,26
 543 34 543 34 565.5 38 c 128,-1,27
 588 42 588 42 605 48.5 c 128,-1,28
 622 55 622 55 631.5 64.5 c 128,-1,29
 641 74 641 74 641 85 c 256,30,31
 641 96 641 96 631.5 105.5 c 128,-1,32
 622 115 622 115 605 122 c 128,-1,33
 588 129 588 129 565.5 133 c 128,-1,34
 543 137 543 137 516 137 c 0,35,36
 490 137 490 137 467 133 c 128,-1,37
 444 129 444 129 427 122 c 128,-1,38
 410 115 410 115 400.5 105.5 c 128,-1,39
 391 96 391 96 391 85 c 256,20,21
311 272 m 0,40,41
 311 290 311 290 326.5 305 c 128,-1,42
 342 320 342 320 370 331.5 c 128,-1,43
 398 343 398 343 435.5 349 c 128,-1,44
 473 355 473 355 516 355 c 0,45,46
 560 355 560 355 597.5 349 c 128,-1,47
 635 343 635 343 662.5 331.5 c 128,-1,48
 690 320 690 320 706 305 c 128,-1,49
 722 290 722 290 722 272 c 0,50,51
 722 255 722 255 706 240 c 128,-1,52
 690 225 690 225 662.5 214 c 128,-1,53
 635 203 635 203 597.5 196 c 128,-1,54
 560 189 560 189 516 189 c 0,55,56
 473 189 473 189 435.5 196 c 128,-1,57
 398 203 398 203 370 214 c 128,-1,58
 342 225 342 225 326.5 240 c 128,-1,59
 311 255 311 255 311 272 c 0,40,41
311 461 m 256,60,61
 311 478 311 478 326.5 493.5 c 128,-1,62
 342 509 342 509 370 520 c 128,-1,63
 398 531 398 531 435.5 537.5 c 128,-1,64
 473 544 473 544 516 544 c 0,65,66
 560 544 560 544 597.5 537.5 c 128,-1,67
 635 531 635 531 662.5 520 c 128,-1,68
 690 509 690 509 706 493.5 c 128,-1,69
 722 478 722 478 722 461 c 256,70,71
 722 444 722 444 706 429 c 128,-1,72
 690 414 690 414 662.5 402.5 c 128,-1,73
 635 391 635 391 597.5 384.5 c 128,-1,74
 560 378 560 378 516 378 c 0,75,76
 473 378 473 378 435.5 384.5 c 128,-1,77
 398 391 398 391 370 402.5 c 128,-1,78
 342 414 342 414 326.5 429 c 128,-1,79
 311 444 311 444 311 461 c 256,60,61
311 648 m 256,80,81
 311 665 311 665 326.5 680.5 c 128,-1,82
 342 696 342 696 370 707 c 128,-1,83
 398 718 398 718 435.5 724.5 c 128,-1,84
 473 731 473 731 516 731 c 0,85,86
 560 731 560 731 597.5 724.5 c 128,-1,87
 635 718 635 718 662.5 707 c 128,-1,88
 690 696 690 696 706 680.5 c 128,-1,89
 722 665 722 665 722 648 c 256,90,91
 722 631 722 631 706 616 c 128,-1,92
 690 601 690 601 662.5 589.5 c 128,-1,93
 635 578 635 578 597.5 571.5 c 128,-1,94
 560 565 560 565 516 565 c 0,95,96
 473 565 473 565 435.5 571.5 c 128,-1,97
 398 578 398 578 370 589.5 c 128,-1,98
 342 601 342 601 326.5 616 c 128,-1,99
 311 631 311 631 311 648 c 256,80,81
EndSplineSet
EndChar

StartChar: uni008F
Encoding: 143 143 113
Width: 1033
Flags: W
LayerCount: 2
Fore
SplineSet
311 85 m 0,0,1
 311 103 311 103 326.5 118 c 128,-1,2
 342 133 342 133 370 144.5 c 128,-1,3
 398 156 398 156 435.5 162.5 c 128,-1,4
 473 169 473 169 516 169 c 0,5,6
 560 169 560 169 597.5 162.5 c 128,-1,7
 635 156 635 156 662.5 144.5 c 128,-1,8
 690 133 690 133 706 118 c 128,-1,9
 722 103 722 103 722 85 c 0,10,11
 722 68 722 68 706 53 c 128,-1,12
 690 38 690 38 662.5 27 c 128,-1,13
 635 16 635 16 597.5 9.5 c 128,-1,14
 560 3 560 3 516 3 c 0,15,16
 473 3 473 3 435.5 9.5 c 128,-1,17
 398 16 398 16 370 27 c 128,-1,18
 342 38 342 38 326.5 53 c 128,-1,19
 311 68 311 68 311 85 c 0,0,1
311 272 m 0,20,21
 311 290 311 290 326.5 305 c 128,-1,22
 342 320 342 320 370 331.5 c 128,-1,23
 398 343 398 343 435.5 349 c 128,-1,24
 473 355 473 355 516 355 c 0,25,26
 560 355 560 355 597.5 349 c 128,-1,27
 635 343 635 343 662.5 331.5 c 128,-1,28
 690 320 690 320 706 305 c 128,-1,29
 722 290 722 290 722 272 c 0,30,31
 722 255 722 255 706 240 c 128,-1,32
 690 225 690 225 662.5 214 c 128,-1,33
 635 203 635 203 597.5 196 c 128,-1,34
 560 189 560 189 516 189 c 0,35,36
 473 189 473 189 435.5 196 c 128,-1,37
 398 203 398 203 370 214 c 128,-1,38
 342 225 342 225 326.5 240 c 128,-1,39
 311 255 311 255 311 272 c 0,20,21
311 461 m 256,40,41
 311 478 311 478 326.5 493.5 c 128,-1,42
 342 509 342 509 370 520 c 128,-1,43
 398 531 398 531 435.5 537.5 c 128,-1,44
 473 544 473 544 516 544 c 0,45,46
 560 544 560 544 597.5 537.5 c 128,-1,47
 635 531 635 531 662.5 520 c 128,-1,48
 690 509 690 509 706 493.5 c 128,-1,49
 722 478 722 478 722 461 c 256,50,51
 722 444 722 444 706 429 c 128,-1,52
 690 414 690 414 662.5 402.5 c 128,-1,53
 635 391 635 391 597.5 384.5 c 128,-1,54
 560 378 560 378 516 378 c 0,55,56
 473 378 473 378 435.5 384.5 c 128,-1,57
 398 391 398 391 370 402.5 c 128,-1,58
 342 414 342 414 326.5 429 c 128,-1,59
 311 444 311 444 311 461 c 256,40,41
311 648 m 256,60,61
 311 665 311 665 326.5 680.5 c 128,-1,62
 342 696 342 696 370 707 c 128,-1,63
 398 718 398 718 435.5 724.5 c 128,-1,64
 473 731 473 731 516 731 c 0,65,66
 560 731 560 731 597.5 724.5 c 128,-1,67
 635 718 635 718 662.5 707 c 128,-1,68
 690 696 690 696 706 680.5 c 128,-1,69
 722 665 722 665 722 648 c 256,70,71
 722 631 722 631 706 616 c 128,-1,72
 690 601 690 601 662.5 589.5 c 128,-1,73
 635 578 635 578 597.5 571.5 c 128,-1,74
 560 565 560 565 516 565 c 0,75,76
 473 565 473 565 435.5 571.5 c 128,-1,77
 398 578 398 578 370 589.5 c 128,-1,78
 342 601 342 601 326.5 616 c 128,-1,79
 311 631 311 631 311 648 c 256,60,61
EndSplineSet
EndChar

StartChar: uni0090
Encoding: 144 144 114
Width: 1033
Flags: W
LayerCount: 2
Fore
SplineSet
515.5 -10 m 0,0,1
 400.5 -10 400.5 -10 344.5 87.5 c 128,-1,2
 288.5 185 288.5 185 288.5 358 c 0,3,4
 288.5 474 288.5 474 311 556 c 128,-1,5
 333.5 638 333.5 638 383.5 681.5 c 128,-1,6
 433.5 725 433.5 725 515.5 725 c 0,7,8
 631.5 725 631.5 725 688 628.5 c 128,-1,9
 744.5 532 744.5 532 744.5 358 c 0,10,11
 744.5 271 744.5 271 732 203 c 128,-1,12
 719.5 135 719.5 135 692.5 87.5 c 128,-1,13
 665.5 40 665.5 40 621.5 15 c 128,-1,14
 577.5 -10 577.5 -10 515.5 -10 c 0,0,1
515.5 66 m 256,15,16
 590.5 66 590.5 66 622.5 138 c 128,-1,17
 654.5 210 654.5 210 654.5 358 c 0,18,19
 654.5 504 654.5 504 622.5 576.5 c 128,-1,20
 590.5 649 590.5 649 515.5 649 c 256,21,22
 440.5 649 440.5 649 409.5 576.5 c 128,-1,23
 378.5 504 378.5 504 378.5 358 c 256,24,25
 378.5 212 378.5 212 409.5 139 c 128,-1,26
 440.5 66 440.5 66 515.5 66 c 256,15,16
EndSplineSet
EndChar

StartChar: uni0091
Encoding: 145 145 115
Width: 1033
Flags: W
LayerCount: 2
Fore
SplineSet
560.5 0 m 1,0,-1
 560.5 446 l 2,1,2
 560.5 474 560.5 474 561.5 506.5 c 128,-1,3
 562.5 539 562.5 539 563.5 569.5 c 128,-1,4
 564.5 600 564.5 600 564.5 622 c 1,5,6
 548.5 605 548.5 605 537 594.5 c 128,-1,7
 525.5 584 525.5 584 505.5 567 c 2,8,-1
 433.5 508 l 1,9,-1
 386.5 568 l 1,10,-1
 573.5 714 l 1,11,-1
 646.5 714 l 1,12,-1
 646.5 0 l 1,13,-1
 560.5 0 l 1,0,-1
EndSplineSet
EndChar

StartChar: uni0092
Encoding: 146 146 116
Width: 1033
Flags: W
LayerCount: 2
Fore
SplineSet
294 76 m 1,0,-1
 465 262 l 2,1,2
 514 315 514 315 548.5 357 c 128,-1,3
 583 399 583 399 602 440 c 128,-1,4
 621 481 621 481 621 530 c 0,5,6
 621 587 621 587 589 618 c 128,-1,7
 557 649 557 649 506 649 c 0,8,9
 460 649 460 649 422.5 630 c 128,-1,10
 385 611 385 611 351 582 c 1,11,-1
 301 640 l 1,12,13
 327 664 327 664 358.5 683 c 128,-1,14
 390 702 390 702 427.5 713 c 128,-1,15
 465 724 465 724 507 724 c 0,16,17
 570 724 570 724 615.5 701 c 128,-1,18
 661 678 661 678 686 635.5 c 128,-1,19
 711 593 711 593 711 533 c 0,20,21
 711 478 711 478 689 429 c 128,-1,22
 667 380 667 380 628.5 332 c 128,-1,23
 590 284 590 284 540 231 c 2,24,-1
 403 85 l 1,25,-1
 403 81 l 1,26,-1
 739 81 l 1,27,-1
 739 0 l 1,28,-1
 294 0 l 1,29,-1
 294 76 l 1,0,-1
EndSplineSet
EndChar

StartChar: uni0093
Encoding: 147 147 117
Width: 1033
Flags: W
LayerCount: 2
Fore
SplineSet
480 -10 m 0,0,1
 427 -10 427 -10 379.5 -1.5 c 128,-1,2
 332 7 332 7 291 29 c 1,3,-1
 291 112 l 1,4,5
 334 90 334 90 383 77.5 c 128,-1,6
 432 65 432 65 478 65 c 0,7,8
 568 65 568 65 609.5 102.5 c 128,-1,9
 651 140 651 140 651 206 c 0,10,11
 651 250 651 250 628.5 278 c 128,-1,12
 606 306 606 306 564.5 319 c 128,-1,13
 523 332 523 332 465 332 c 2,14,-1
 400 332 l 1,15,-1
 400 406 l 1,16,-1
 465 406 l 2,17,18
 518 406 518 406 554.5 423 c 128,-1,19
 591 440 591 440 610 470.5 c 128,-1,20
 629 501 629 501 629 541 c 0,21,22
 629 575 629 575 613.5 599 c 128,-1,23
 598 623 598 623 571 636 c 128,-1,24
 544 649 544 649 507 649 c 0,25,26
 455 649 455 649 415 632.5 c 128,-1,27
 375 616 375 616 339 590 c 1,28,-1
 294 651 l 1,29,30
 331 681 331 681 385 702.5 c 128,-1,31
 439 724 439 724 507 724 c 0,32,33
 577 724 577 724 624.5 701 c 128,-1,34
 672 678 672 678 696 638.5 c 128,-1,35
 720 599 720 599 720 547 c 0,36,37
 720 499 720 499 700.5 463.5 c 128,-1,38
 681 428 681 428 646.5 406 c 128,-1,39
 612 384 612 384 566 376 c 1,40,-1
 566 373 l 1,41,42
 652 363 652 363 697 318.5 c 128,-1,43
 742 274 742 274 742 203 c 0,44,45
 742 141 742 141 714 92.5 c 128,-1,46
 686 44 686 44 628 17 c 128,-1,47
 570 -10 570 -10 480 -10 c 0,0,1
EndSplineSet
EndChar

StartChar: uni0094
Encoding: 148 148 118
Width: 1033
Flags: W
LayerCount: 2
Fore
SplineSet
586.5 160 m 1,0,-1
 256.5 160 l 1,1,-1
 256.5 238 l 1,2,-1
 580.5 718 l 1,3,-1
 672.5 718 l 1,4,-1
 672.5 241 l 1,5,-1
 776.5 241 l 1,6,-1
 776.5 160 l 1,7,-1
 672.5 160 l 1,8,-1
 672.5 0 l 1,9,-1
 586.5 0 l 1,10,-1
 586.5 160 l 1,0,-1
586.5 241 m 1,11,-1
 586.5 415 l 2,12,13
 586.5 452 586.5 452 588 492.5 c 128,-1,14
 589.5 533 589.5 533 591 568.5 c 128,-1,15
 592.5 604 592.5 604 592.5 626 c 1,16,-1
 588.5 626 l 1,17,18
 581.5 607 581.5 607 568.5 581 c 128,-1,19
 555.5 555 555.5 555 544.5 538 c 2,20,-1
 343.5 241 l 1,21,-1
 586.5 241 l 1,11,-1
EndSplineSet
EndChar

StartChar: uni0095
Encoding: 149 149 119
Width: 1033
Flags: W
LayerCount: 2
Fore
SplineSet
475 -10 m 0,0,1
 425 -10 425 -10 379 -0.5 c 128,-1,2
 333 9 333 9 301 29 c 1,3,-1
 301 113 l 1,4,5
 323 98 323 98 353.5 87.5 c 128,-1,6
 384 77 384 77 417 71.5 c 128,-1,7
 450 66 450 66 477 66 c 0,8,9
 554 66 554 66 597.5 103 c 128,-1,10
 641 140 641 140 641 219 c 0,11,12
 641 290 641 290 598 326.5 c 128,-1,13
 555 363 555 363 473 363 c 0,14,15
 447 363 447 363 413.5 358.5 c 128,-1,16
 380 354 380 354 360 350 c 1,17,-1
 316 378 l 1,18,-1
 343 714 l 1,19,-1
 680 714 l 1,20,-1
 680 633 l 1,21,-1
 420 633 l 1,22,-1
 401 428 l 1,23,24
 417 432 417 432 444.5 435 c 128,-1,25
 472 438 472 438 503 438 c 0,26,27
 568 438 568 438 619.5 414.5 c 128,-1,28
 671 391 671 391 701.5 344.5 c 128,-1,29
 732 298 732 298 732 229 c 0,30,31
 732 117 732 117 666 53.5 c 128,-1,32
 600 -10 600 -10 475 -10 c 0,0,1
EndSplineSet
EndChar

StartChar: uni0096
Encoding: 150 150 120
Width: 1033
Flags: W
LayerCount: 2
Fore
SplineSet
524.5 -10 m 0,0,1
 459.5 -10 459.5 -10 406.5 24 c 128,-1,2
 353.5 58 353.5 58 322.5 128 c 128,-1,3
 291.5 198 291.5 198 291.5 305 c 0,4,5
 291.5 367 291.5 367 299 427 c 128,-1,6
 306.5 487 306.5 487 326.5 540.5 c 128,-1,7
 346.5 594 346.5 594 381.5 635.5 c 128,-1,8
 416.5 677 416.5 677 471 700.5 c 128,-1,9
 525.5 724 525.5 724 603.5 724 c 0,10,11
 622.5 724 622.5 724 647 722 c 128,-1,12
 671.5 720 671.5 720 687.5 715 c 1,13,-1
 687.5 639 l 1,14,15
 670.5 645 670.5 645 649 648 c 128,-1,16
 627.5 651 627.5 651 606.5 651 c 0,17,18
 540.5 651 540.5 651 498 628 c 128,-1,19
 455.5 605 455.5 605 431 565.5 c 128,-1,20
 406.5 526 406.5 526 395.5 474 c 128,-1,21
 384.5 422 384.5 422 382.5 364 c 1,22,-1
 388.5 364 l 1,23,24
 408.5 399 408.5 399 444.5 423 c 128,-1,25
 480.5 447 480.5 447 538.5 447 c 0,26,27
 600.5 447 600.5 447 646 421.5 c 128,-1,28
 691.5 396 691.5 396 716.5 347.5 c 128,-1,29
 741.5 299 741.5 299 741.5 230 c 0,30,31
 741.5 156 741.5 156 715 102 c 128,-1,32
 688.5 48 688.5 48 640 19 c 128,-1,33
 591.5 -10 591.5 -10 524.5 -10 c 0,0,1
523.5 65 m 0,34,35
 582.5 65 582.5 65 619 105 c 128,-1,36
 655.5 145 655.5 145 655.5 230 c 0,37,38
 655.5 298 655.5 298 623.5 337.5 c 128,-1,39
 591.5 377 591.5 377 526.5 377 c 0,40,41
 482.5 377 482.5 377 449.5 357.5 c 128,-1,42
 416.5 338 416.5 338 398.5 308.5 c 128,-1,43
 380.5 279 380.5 279 380.5 247 c 0,44,45
 380.5 204 380.5 204 396.5 162 c 128,-1,46
 412.5 120 412.5 120 444 92.5 c 128,-1,47
 475.5 65 475.5 65 523.5 65 c 0,34,35
EndSplineSet
EndChar

StartChar: uni0097
Encoding: 151 151 121
Width: 1033
Flags: W
LayerCount: 2
Fore
SplineSet
655 633 m 1,0,-1
 287 633 l 1,1,-1
 287 714 l 1,2,-1
 746 714 l 1,3,-1
 746 643 l 1,4,-1
 475 0 l 1,5,-1
 380 0 l 1,6,-1
 655 633 l 1,0,-1
EndSplineSet
EndChar

StartChar: uni0098
Encoding: 152 152 122
Width: 1033
Flags: W
LayerCount: 2
Fore
SplineSet
516.5 -10 m 0,0,1
 409.5 -10 409.5 -10 351 41.5 c 128,-1,2
 292.5 93 292.5 93 292.5 182 c 0,3,4
 292.5 231 292.5 231 311 267 c 128,-1,5
 329.5 303 329.5 303 361 329.5 c 128,-1,6
 392.5 356 392.5 356 430.5 374 c 1,7,8
 398.5 395 398.5 395 372.5 420 c 128,-1,9
 346.5 445 346.5 445 331 478 c 128,-1,10
 315.5 511 315.5 511 315.5 554 c 0,11,12
 315.5 611 315.5 611 343.5 649 c 128,-1,13
 371.5 687 371.5 687 417.5 706 c 128,-1,14
 463.5 725 463.5 725 516.5 725 c 0,15,16
 571.5 725 571.5 725 617 706 c 128,-1,17
 662.5 687 662.5 687 690 649 c 128,-1,18
 717.5 611 717.5 611 717.5 553 c 0,19,20
 717.5 510 717.5 510 700.5 477.5 c 128,-1,21
 683.5 445 683.5 445 655 421 c 128,-1,22
 626.5 397 626.5 397 589.5 378 c 1,23,24
 627.5 358 627.5 358 662 331.5 c 128,-1,25
 696.5 305 696.5 305 718.5 269.5 c 128,-1,26
 740.5 234 740.5 234 740.5 186 c 0,27,28
 740.5 126 740.5 126 712 82 c 128,-1,29
 683.5 38 683.5 38 633.5 14 c 128,-1,30
 583.5 -10 583.5 -10 516.5 -10 c 0,0,1
514.5 64 m 0,31,32
 583.5 64 583.5 64 618.5 97 c 128,-1,33
 653.5 130 653.5 130 653.5 185 c 0,34,35
 653.5 233 653.5 233 617 268.5 c 128,-1,36
 580.5 304 580.5 304 503.5 340 c 1,37,38
 462.5 321 462.5 321 435 297.5 c 128,-1,39
 407.5 274 407.5 274 393.5 245.5 c 128,-1,40
 379.5 217 379.5 217 379.5 181 c 0,41,42
 379.5 129 379.5 129 412 96.5 c 128,-1,43
 444.5 64 444.5 64 514.5 64 c 0,31,32
517.5 414 m 1,44,45
 549.5 429 549.5 429 575 447 c 128,-1,46
 600.5 465 600.5 465 615.5 490 c 128,-1,47
 630.5 515 630.5 515 630.5 550 c 0,48,49
 630.5 600 630.5 600 600 625.5 c 128,-1,50
 569.5 651 569.5 651 515.5 651 c 0,51,52
 481.5 651 481.5 651 456 639.5 c 128,-1,53
 430.5 628 430.5 628 416.5 605.5 c 128,-1,54
 402.5 583 402.5 583 402.5 550 c 0,55,56
 402.5 514 402.5 514 417.5 489.5 c 128,-1,57
 432.5 465 432.5 465 458.5 447.5 c 128,-1,58
 484.5 430 484.5 430 517.5 414 c 1,44,45
EndSplineSet
EndChar

StartChar: uni0099
Encoding: 153 153 123
Width: 1033
Flags: W
LayerCount: 2
Fore
SplineSet
429.5 -10 m 0,0,1
 410.5 -10 410.5 -10 386.5 -7.5 c 128,-1,2
 362.5 -5 362.5 -5 345.5 -1 c 1,3,-1
 345.5 75 l 1,4,5
 362.5 69 362.5 69 384 66 c 128,-1,6
 405.5 63 405.5 63 426.5 63 c 0,7,8
 492.5 63 492.5 63 535.5 86 c 128,-1,9
 578.5 109 578.5 109 602.5 148.5 c 128,-1,10
 626.5 188 626.5 188 637.5 240 c 128,-1,11
 648.5 292 648.5 292 650.5 350 c 1,12,-1
 644.5 350 l 1,13,14
 631.5 327 631.5 327 611 308 c 128,-1,15
 590.5 289 590.5 289 562 278 c 128,-1,16
 533.5 267 533.5 267 494.5 267 c 0,17,18
 433.5 267 433.5 267 387.5 292.5 c 128,-1,19
 341.5 318 341.5 318 316.5 366.5 c 128,-1,20
 291.5 415 291.5 415 291.5 484 c 0,21,22
 291.5 559 291.5 559 318 612.5 c 128,-1,23
 344.5 666 344.5 666 393.5 695 c 128,-1,24
 442.5 724 442.5 724 508.5 724 c 256,25,26
 574.5 724 574.5 724 627 690 c 128,-1,27
 679.5 656 679.5 656 710.5 586 c 128,-1,28
 741.5 516 741.5 516 741.5 409 c 0,29,30
 741.5 348 741.5 348 734 287.5 c 128,-1,31
 726.5 227 726.5 227 706.5 173.5 c 128,-1,32
 686.5 120 686.5 120 651.5 78.5 c 128,-1,33
 616.5 37 616.5 37 562 13.5 c 128,-1,34
 507.5 -10 507.5 -10 429.5 -10 c 0,0,1
506.5 337 m 0,35,36
 550.5 337 550.5 337 583.5 356.5 c 128,-1,37
 616.5 376 616.5 376 634.5 406 c 128,-1,38
 652.5 436 652.5 436 652.5 467 c 0,39,40
 652.5 500 652.5 500 643.5 532 c 128,-1,41
 634.5 564 634.5 564 616.5 590.5 c 128,-1,42
 598.5 617 598.5 617 572 633 c 128,-1,43
 545.5 649 545.5 649 509.5 649 c 0,44,45
 451.5 649 451.5 649 414.5 609 c 128,-1,46
 377.5 569 377.5 569 377.5 484 c 0,47,48
 377.5 416 377.5 416 410 376.5 c 128,-1,49
 442.5 337 442.5 337 506.5 337 c 0,35,36
EndSplineSet
EndChar

StartChar: uni009C
Encoding: 156 156 124
Width: 1033
Flags: W
LayerCount: 2
Fore
SplineSet
767.5 -5 m 1,0,1
 747.5 -5 747.5 -5 728.5 2 c 128,-1,2
 709.5 9 709.5 9 695.5 26 c 1,3,-1
 695.5 291 l 5,4,5
 667.5 266 667.5 266 630.5 250.5 c 132,-1,6
 593.5 235 593.5 235 543.5 235 c 4,7,8
 501.5 235 501.5 235 452.5 258 c 132,-1,9
 403.5 281 403.5 281 361.5 318 c 132,-1,10
 319.5 355 319.5 355 291.5 401 c 132,-1,11
 263.5 447 263.5 447 263.5 493 c 4,12,13
 263.5 541 263.5 541 281 578 c 132,-1,14
 298.5 615 298.5 615 328.5 640.5 c 132,-1,15
 358.5 666 358.5 666 399 679 c 132,-1,16
 439.5 692 439.5 692 485.5 692 c 4,17,18
 519.5 692 519.5 692 549.5 684 c 4,19,20
 598.5 671 598.5 671 605.5 662.5 c 4,21,22
 640.5 622 640.5 622 654 631.5 c 4,23,24
 657.5 634 657.5 634 695.5 718 c 5,25,-1
 693.5 717 l 5,26,-1
 769.5 717 l 6,27,-1
 767.5 -5 l 1,0,1
486.5 292 m 4,28,29
 524.5 292 524.5 292 560.5 304.5 c 132,-1,30
 596.5 317 596.5 317 626.5 340 c 5,31,-1
 393.5 580 l 5,32,33
 366.5 556 366.5 556 351.5 521.5 c 132,-1,34
 336.5 487 336.5 487 336.5 442 c 4,35,36
 336.5 406 336.5 406 348 378 c 132,-1,37
 359.5 350 359.5 350 379.5 331 c 132,-1,38
 399.5 312 399.5 312 427 302 c 132,-1,39
 454.5 292 454.5 292 486.5 292 c 4,28,29
695.5 571 m 5,40,41
 660.5 598 660.5 598 623 613.5 c 132,-1,42
 585.5 629 585.5 629 536.5 629 c 4,43,44
 464.5 629 464.5 629 413.5 596 c 5,45,-1
 644.5 356 l 5,46,47
 660.5 371 660.5 371 673.5 389 c 132,-1,48
 686.5 407 686.5 407 695.5 427 c 5,49,-1
 695.5 571 l 5,40,41
EndSplineSet
EndChar

StartChar: uni009A
Encoding: 154 154 125
Width: 1033
Flags: W
LayerCount: 2
Fore
SplineSet
567 723 m 0,0,1
 622 723 622 723 666 711 c 128,-1,2
 710 699 710 699 744 682 c 1,3,-1
 713 612 l 1,4,5
 683 626 683 626 646.5 638 c 128,-1,6
 610 650 610 650 569 650 c 0,7,8
 512 650 512 650 482 620.5 c 128,-1,9
 452 591 452 591 452 525 c 2,10,-1
 452 386 l 1,11,-1
 656 386 l 1,12,-1
 656 320 l 1,13,-1
 452 320 l 1,14,-1
 452 216 l 2,15,16
 452 176 452 176 442.5 149.5 c 128,-1,17
 433 123 433 123 417.5 107 c 128,-1,18
 402 91 402 91 384 80 c 1,19,-1
 768 80 l 1,20,-1
 768 0 l 1,21,-1
 265 0 l 1,22,-1
 265 74 l 1,23,24
 294 81 294 81 316 97.5 c 128,-1,25
 338 114 338 114 351 142.5 c 128,-1,26
 364 171 364 171 364 215 c 2,27,-1
 364 320 l 1,28,-1
 268 320 l 1,29,-1
 268 386 l 1,30,-1
 364 386 l 1,31,-1
 364 534 l 2,32,33
 364 594 364 594 389 636 c 128,-1,34
 414 678 414 678 460 700.5 c 128,-1,35
 506 723 506 723 567 723 c 0,0,1
EndSplineSet
EndChar

StartChar: uni009B
Encoding: 155 155 126
Width: 1033
Flags: W
LayerCount: 2
Fore
SplineSet
466 -8 m 4,0,1
 411 -8 411 -8 367 4 c 132,-1,2
 323 16 323 16 289 33 c 5,3,-1
 320 103 l 5,4,5
 350 89 350 89 386.5 77 c 132,-1,6
 423 65 423 65 464 65 c 4,7,8
 521 65 521 65 551 94.5 c 132,-1,9
 581 124 581 124 581 190 c 6,10,-1
 581 329 l 5,11,-1
 377 329 l 5,12,-1
 377 395 l 5,13,-1
 581 395 l 5,14,-1
 581 499 l 6,15,16
 581 539 581 539 590.5 565.5 c 132,-1,17
 600 592 600 592 615.5 608 c 132,-1,18
 631 624 631 624 649 635 c 5,19,-1
 265 635 l 5,20,-1
 265 715 l 5,21,-1
 768 715 l 5,22,-1
 768 641 l 5,23,24
 739 634 739 634 717 617.5 c 132,-1,25
 695 601 695 601 682 572.5 c 132,-1,26
 669 544 669 544 669 500 c 6,27,-1
 669 395 l 5,28,-1
 765 395 l 5,29,-1
 765 329 l 5,30,-1
 669 329 l 5,31,-1
 669 181 l 6,32,33
 669 121 669 121 644 79 c 132,-1,34
 619 37 619 37 573 14.5 c 132,-1,35
 527 -8 527 -8 466 -8 c 4,0,1
EndSplineSet
EndChar

StartChar: uni009D
Encoding: 157 157 127
Width: 1033
Flags: W
LayerCount: 2
Fore
SplineSet
969 714 m 1,0,-1
 779 0 l 1,1,-1
 688 0 l 1,2,-1
 549 468 l 2,3,4
 543 489 543 489 537 511 c 128,-1,5
 531 533 531 533 526 553 c 128,-1,6
 521 573 521 573 517.5 587.5 c 128,-1,7
 514 602 514 602 513 609 c 1,8,9
 512 602 512 602 509.5 587.5 c 128,-1,10
 507 573 507 573 502 553 c 128,-1,11
 497 533 497 533 491.5 510.5 c 128,-1,12
 486 488 486 488 479 465 c 2,13,-1
 344 0 l 1,14,-1
 253 0 l 1,15,-1
 64 714 l 1,16,-1
 158 714 l 1,17,-1
 269 278 l 2,18,19
 275 255 275 255 280 232.5 c 128,-1,20
 285 210 285 210 289.5 188.5 c 128,-1,21
 294 167 294 167 297 147 c 128,-1,22
 300 127 300 127 303 108 c 1,23,24
 306 128 306 128 309.5 149 c 128,-1,25
 313 170 313 170 318 192.5 c 128,-1,26
 323 215 323 215 329 238 c 128,-1,27
 335 261 335 261 341 283 c 2,28,-1
 467 714 l 1,29,-1
 560 714 l 1,30,-1
 691 280 l 2,31,32
 698 257 698 257 704 233.5 c 128,-1,33
 710 210 710 210 715 188 c 128,-1,34
 720 166 720 166 723.5 145.5 c 128,-1,35
 727 125 727 125 730 108 c 1,36,37
 733 133 733 133 738 160.5 c 128,-1,38
 743 188 743 188 750 218 c 128,-1,39
 757 248 757 248 765 279 c 2,40,-1
 875 714 l 1,41,-1
 969 714 l 1,0,-1
EndSplineSet
EndChar

StartChar: uni009E
Encoding: 158 158 128
Width: 1033
Flags: W
LayerCount: 2
Fore
SplineSet
805.5 0 m 1,0,-1
 703.5 0 l 1,1,-1
 514.5 310 l 1,2,-1
 322.5 0 l 1,3,-1
 227.5 0 l 1,4,-1
 464.5 372 l 1,5,-1
 242.5 714 l 1,6,-1
 342.5 714 l 1,7,-1
 517.5 434 l 1,8,-1
 693.5 714 l 1,9,-1
 788.5 714 l 1,10,-1
 567.5 374 l 1,11,-1
 805.5 0 l 1,0,-1
EndSplineSet
EndChar

StartChar: uni009F
Encoding: 159 159 129
Width: 1033
Flags: W
LayerCount: 2
Fore
SplineSet
407 0 m 1,0,-1
 317 0 l 1,1,-1
 317 714 l 1,2,-1
 716 714 l 1,3,-1
 716 635 l 1,4,-1
 407 635 l 1,5,-1
 407 382 l 1,6,-1
 697 382 l 1,7,-1
 697 303 l 1,8,-1
 407 303 l 1,9,-1
 407 0 l 1,0,-1
EndSplineSet
EndChar
